<svg width="600" height="400" viewBox="0 0 600 400" fill="none" xmlns="http://www.w3.org/2000/svg">
<rect width="600" height="400" fill="#1E1E1E"/>
<path id="bg" d="M600 0H0V400H600V0Z" fill="#D9D9D9"/>
<path data-slot="0" d="M281 51H34V303H281V51Z" fill="#747373"/>
<path data-slot="1" d="M565 51H309V303H565V51Z" fill="#747373"/>
<path d="M253.959 332.952C254.346 332.952 254.686 332.988 254.979 333.06C255.273 333.131 255.531 333.214 255.753 333.307C255.982 333.393 256.179 333.471 256.344 333.543C256.516 333.615 256.666 333.65 256.795 333.65C256.888 333.65 256.967 333.611 257.031 333.532C257.096 333.453 257.153 333.357 257.203 333.242C257.253 333.128 257.296 333.002 257.332 332.866C257.368 332.73 257.404 332.605 257.439 332.49C257.482 332.326 257.529 332.186 257.579 332.071C257.636 331.95 257.715 331.889 257.815 331.889C257.93 331.889 257.987 331.993 257.987 332.2C257.987 332.315 257.973 332.444 257.944 332.587C257.923 332.73 257.891 332.902 257.848 333.103C257.812 333.296 257.769 333.525 257.719 333.79C257.676 334.048 257.633 334.349 257.59 334.692C257.533 335.115 257.493 335.491 257.472 335.82C257.457 336.143 257.443 336.415 257.429 336.637C257.414 336.852 257.393 337.016 257.364 337.131C257.343 337.245 257.3 337.303 257.235 337.303C257.185 337.303 257.146 337.278 257.117 337.228C257.089 337.17 257.063 337.102 257.042 337.023C257.021 336.945 257.003 336.866 256.988 336.787C256.974 336.708 256.963 336.64 256.956 336.583C256.92 336.397 256.874 336.193 256.816 335.971C256.766 335.742 256.695 335.512 256.602 335.283C256.508 335.047 256.394 334.818 256.258 334.596C256.122 334.374 255.95 334.177 255.742 334.005C255.542 333.833 255.302 333.697 255.022 333.597C254.743 333.489 254.417 333.436 254.045 333.436C253.372 333.436 252.849 333.636 252.477 334.037C252.104 334.438 251.918 335.029 251.918 335.81C251.918 336.203 252.011 336.604 252.197 337.013C252.391 337.414 252.641 337.829 252.949 338.259C253.264 338.688 253.619 339.129 254.013 339.58C254.407 340.031 254.811 340.497 255.227 340.977C255.642 341.456 256.047 341.951 256.44 342.459C256.834 342.967 257.185 343.494 257.493 344.038C257.808 344.582 258.059 345.148 258.245 345.735C258.438 346.315 258.535 346.917 258.535 347.54C258.535 348.399 258.396 349.148 258.116 349.785C257.837 350.415 257.461 350.938 256.988 351.354C256.516 351.776 255.968 352.088 255.345 352.288C254.722 352.496 254.07 352.6 253.39 352.6C252.86 352.6 252.394 352.535 251.993 352.406C251.599 352.285 251.241 352.148 250.919 351.998C250.604 351.855 250.314 351.719 250.049 351.59C249.791 351.468 249.533 351.407 249.275 351.407C249.075 351.407 248.889 351.468 248.717 351.59C248.552 351.712 248.398 351.844 248.255 351.987C248.119 352.138 247.997 352.274 247.89 352.396C247.789 352.517 247.707 352.578 247.643 352.578C247.585 352.578 247.549 352.557 247.535 352.514C247.521 352.478 247.514 352.431 247.514 352.374C247.514 352.317 247.524 352.22 247.546 352.084C247.567 351.955 247.589 351.798 247.61 351.611C247.639 351.425 247.664 351.214 247.686 350.978C247.707 350.741 247.718 350.487 247.718 350.215C247.718 349.728 247.671 349.23 247.578 348.722C247.485 348.206 247.381 347.723 247.267 347.271C247.152 346.82 247.048 346.423 246.955 346.079C246.862 345.735 246.815 345.488 246.815 345.338C246.815 345.273 246.83 345.213 246.858 345.155C246.88 345.098 246.93 345.069 247.009 345.069C247.116 345.069 247.216 345.148 247.31 345.306C247.403 345.456 247.499 345.657 247.6 345.907C247.664 346.079 247.746 346.29 247.847 346.541C247.954 346.792 248.072 347.064 248.201 347.357C248.33 347.644 248.47 347.945 248.62 348.26C248.778 348.575 248.946 348.883 249.125 349.184C249.433 349.714 249.755 350.154 250.092 350.505C250.428 350.856 250.772 351.135 251.123 351.343C251.481 351.558 251.843 351.708 252.208 351.794C252.573 351.887 252.938 351.934 253.304 351.934C253.741 351.934 254.117 351.851 254.432 351.687C254.754 351.522 255.019 351.307 255.227 351.042C255.434 350.777 255.585 350.48 255.678 350.15C255.778 349.821 255.828 349.492 255.828 349.162C255.828 348.51 255.739 347.902 255.56 347.336C255.388 346.763 255.159 346.219 254.872 345.703C254.593 345.18 254.271 344.679 253.905 344.199C253.54 343.719 253.164 343.25 252.777 342.792C252.398 342.334 252.025 341.879 251.66 341.428C251.295 340.977 250.969 340.518 250.683 340.053C250.403 339.58 250.174 339.097 249.995 338.603C249.823 338.101 249.737 337.575 249.737 337.023C249.737 336.486 249.805 336.014 249.941 335.605C250.077 335.197 250.257 334.843 250.479 334.542C250.708 334.241 250.965 333.991 251.252 333.79C251.546 333.582 251.846 333.418 252.154 333.296C252.469 333.174 252.781 333.088 253.089 333.038C253.404 332.981 253.694 332.952 253.959 332.952ZM261.801 332.77C262.223 332.77 262.56 332.881 262.811 333.103C263.061 333.325 263.187 333.64 263.187 334.048C263.187 334.32 263.144 334.549 263.058 334.735C262.972 334.914 262.861 335.061 262.725 335.176C262.589 335.283 262.438 335.362 262.273 335.412C262.116 335.455 261.958 335.477 261.801 335.477C261.665 335.477 261.521 335.455 261.371 335.412C261.221 335.369 261.081 335.298 260.952 335.197C260.823 335.09 260.716 334.954 260.63 334.789C260.551 334.617 260.512 334.406 260.512 334.155C260.512 333.89 260.555 333.672 260.641 333.5C260.727 333.321 260.834 333.178 260.963 333.07C261.092 332.963 261.231 332.888 261.382 332.845C261.532 332.795 261.672 332.77 261.801 332.77ZM263.326 336.293C263.398 336.293 263.434 336.375 263.434 336.54C263.434 336.647 263.419 336.826 263.391 337.077C263.369 337.321 263.34 337.582 263.305 337.861C263.247 338.305 263.19 338.799 263.133 339.344C263.076 339.881 263.018 340.436 262.961 341.009C262.911 341.575 262.861 342.137 262.811 342.695C262.768 343.254 262.728 343.773 262.692 344.253C262.657 344.726 262.628 345.145 262.606 345.51C262.585 345.868 262.574 346.133 262.574 346.305C262.574 346.527 262.589 346.709 262.617 346.853C262.646 346.996 262.682 347.114 262.725 347.207C262.768 347.3 262.814 347.375 262.864 347.433C262.922 347.49 262.979 347.54 263.036 347.583C263.101 347.626 263.179 347.665 263.272 347.701C263.366 347.737 263.466 347.773 263.573 347.809C263.681 347.837 263.788 347.862 263.896 347.884C264.01 347.905 264.114 347.92 264.207 347.927C264.357 347.955 264.479 347.977 264.572 347.991C264.665 348.006 264.712 348.052 264.712 348.131C264.712 348.274 264.558 348.346 264.25 348.346C264.035 348.346 263.82 348.331 263.605 348.303C263.391 348.267 263.169 348.228 262.939 348.185C262.717 348.142 262.485 348.106 262.241 348.077C261.998 348.041 261.736 348.023 261.457 348.023C261.199 348.023 260.966 348.031 260.759 348.045C260.551 348.059 260.361 348.077 260.189 348.099C260.018 348.12 259.856 348.138 259.706 348.152C259.556 348.167 259.405 348.174 259.255 348.174C259.133 348.174 259.022 348.16 258.922 348.131C258.822 348.095 258.771 348.027 258.771 347.927C258.771 347.826 258.825 347.758 258.933 347.723C259.047 347.68 259.162 347.647 259.276 347.626C259.42 347.597 259.559 347.565 259.695 347.529C259.831 347.493 259.953 347.44 260.061 347.368C260.175 347.289 260.268 347.189 260.34 347.067C260.419 346.938 260.469 346.774 260.49 346.573C260.519 346.179 260.54 345.778 260.555 345.37C260.569 344.962 260.58 344.561 260.587 344.167C260.594 343.766 260.598 343.379 260.598 343.007C260.598 342.627 260.598 342.273 260.598 341.943C260.598 341.549 260.598 341.191 260.598 340.869C260.598 340.54 260.59 340.26 260.576 340.031C260.562 339.666 260.519 339.38 260.447 339.172C260.383 338.964 260.286 338.81 260.157 338.71C260.035 338.61 259.878 338.545 259.685 338.517C259.491 338.481 259.258 338.452 258.986 338.431C258.908 338.416 258.843 338.391 258.793 338.355C258.75 338.32 258.729 338.262 258.729 338.184C258.729 338.048 258.836 337.969 259.051 337.947C259.158 337.94 259.294 337.929 259.459 337.915C259.624 337.894 259.813 337.865 260.028 337.829C260.25 337.793 260.49 337.743 260.748 337.679C261.006 337.607 261.278 337.51 261.564 337.389C261.88 337.26 262.137 337.131 262.338 337.002C262.546 336.873 262.714 336.758 262.843 336.658C262.972 336.551 263.072 336.465 263.144 336.4C263.215 336.329 263.276 336.293 263.326 336.293ZM268.171 336.164C268.228 336.164 268.285 336.257 268.343 336.443C268.4 336.622 268.457 336.859 268.515 337.152C268.572 337.446 268.629 337.786 268.687 338.173C268.744 338.552 268.801 338.939 268.858 339.333L269.245 342.04C269.281 341.804 269.342 341.532 269.428 341.224C269.521 340.916 269.643 340.597 269.793 340.268C269.943 339.938 270.126 339.616 270.341 339.301C270.556 338.986 270.803 338.703 271.082 338.452C271.368 338.201 271.687 338.001 272.038 337.851C272.396 337.693 272.794 337.614 273.23 337.614C273.768 337.614 274.233 337.718 274.627 337.926C275.021 338.126 275.347 338.409 275.604 338.774C275.862 339.132 276.052 339.562 276.174 340.063C276.296 340.565 276.356 341.113 276.356 341.707C276.356 342.244 276.324 342.785 276.26 343.329C276.202 343.866 276.138 344.396 276.066 344.919C276.002 345.442 275.938 345.947 275.873 346.434C275.816 346.921 275.787 347.375 275.787 347.798C275.787 348.049 275.809 348.267 275.852 348.453C275.895 348.639 275.959 348.811 276.045 348.969C276.145 349.119 276.267 349.252 276.41 349.366C276.561 349.474 276.7 349.577 276.829 349.678C276.965 349.771 277.08 349.868 277.173 349.968C277.273 350.061 277.323 350.161 277.323 350.269C277.323 350.333 277.305 350.387 277.27 350.43C277.234 350.48 277.173 350.505 277.087 350.505C276.958 350.505 276.815 350.455 276.657 350.354C276.507 350.261 276.317 350.143 276.088 350C275.866 349.85 275.597 349.692 275.282 349.527C274.967 349.355 274.584 349.198 274.133 349.055C273.796 348.94 273.456 348.851 273.112 348.786C272.776 348.722 272.382 348.679 271.931 348.657C271.68 348.636 271.555 348.564 271.555 348.442C271.555 348.306 271.637 348.238 271.802 348.238C271.902 348.238 272.042 348.238 272.221 348.238C272.4 348.238 272.582 348.231 272.769 348.217C273.055 348.195 273.291 348.109 273.478 347.959C273.664 347.801 273.803 347.515 273.896 347.1C273.925 346.935 273.954 346.727 273.982 346.477C274.011 346.219 274.036 345.947 274.058 345.66C274.079 345.367 274.097 345.069 274.111 344.769C274.126 344.468 274.133 344.181 274.133 343.909C274.133 343.666 274.129 343.386 274.122 343.071C274.115 342.749 274.09 342.416 274.047 342.072C274.011 341.729 273.95 341.392 273.864 341.062C273.785 340.733 273.667 340.439 273.51 340.182C273.352 339.924 273.152 339.716 272.908 339.559C272.665 339.394 272.368 339.312 272.017 339.312C271.716 339.312 271.44 339.387 271.189 339.537C270.946 339.688 270.728 339.899 270.534 340.171C270.341 340.436 270.176 340.751 270.04 341.116C269.904 341.481 269.8 341.882 269.729 342.319C269.65 342.763 269.596 343.222 269.567 343.694C269.546 344.16 269.535 344.625 269.535 345.091C269.535 345.485 269.549 345.864 269.578 346.229C269.607 346.588 269.646 346.921 269.696 347.229C269.746 347.529 269.807 347.798 269.879 348.034C269.951 348.271 270.033 348.457 270.126 348.593C270.262 348.779 270.409 348.919 270.566 349.012C270.724 349.105 270.856 349.169 270.964 349.205C271.107 349.248 271.207 349.287 271.265 349.323C271.329 349.352 271.361 349.395 271.361 349.452C271.361 349.495 271.326 349.535 271.254 349.57C271.189 349.606 271.078 349.624 270.921 349.624C270.771 349.624 270.606 349.613 270.427 349.592C270.248 349.563 270.062 349.535 269.868 349.506C269.675 349.477 269.474 349.452 269.267 349.431C269.059 349.402 268.855 349.388 268.654 349.388C268.454 349.388 268.25 349.395 268.042 349.409C267.834 349.424 267.634 349.438 267.44 349.452C267.254 349.466 267.082 349.481 266.925 349.495C266.767 349.509 266.642 349.517 266.549 349.517C266.27 349.517 266.13 349.427 266.13 349.248C266.13 349.184 266.151 349.13 266.194 349.087C266.244 349.037 266.33 349.005 266.452 348.99C266.552 348.983 266.642 348.976 266.721 348.969C266.799 348.962 266.878 348.958 266.957 348.958C267.043 348.951 267.129 348.944 267.215 348.937C267.308 348.929 267.415 348.919 267.537 348.904C267.766 348.868 267.92 348.786 267.999 348.657C268.085 348.521 268.128 348.339 268.128 348.109C268.128 347.715 268.092 347.236 268.021 346.67C267.956 346.104 267.867 345.481 267.752 344.801C267.637 344.12 267.498 343.401 267.333 342.642C267.175 341.875 267.007 341.095 266.828 340.3C266.742 339.892 266.642 339.587 266.527 339.387C266.42 339.186 266.262 339.086 266.055 339.086C265.947 339.086 265.836 339.107 265.722 339.15C265.607 339.186 265.493 339.229 265.378 339.279C265.271 339.322 265.167 339.365 265.066 339.408C264.966 339.444 264.873 339.462 264.787 339.462C264.651 339.462 264.583 339.405 264.583 339.29C264.583 339.197 264.619 339.132 264.69 339.097C264.769 339.054 264.852 339.014 264.938 338.979C265.138 338.9 265.353 338.799 265.582 338.678C265.818 338.556 266.073 338.391 266.345 338.184C266.61 337.976 266.846 337.754 267.054 337.518C267.261 337.281 267.44 337.063 267.591 336.862C267.741 336.662 267.863 336.497 267.956 336.368C268.049 336.232 268.121 336.164 268.171 336.164ZM288.033 336.959C288.398 336.959 288.728 337.016 289.021 337.131C289.315 337.238 289.566 337.389 289.773 337.582C289.981 337.775 290.139 338.001 290.246 338.259C290.361 338.517 290.418 338.792 290.418 339.086C290.418 339.666 290.278 340.117 289.999 340.439C289.727 340.755 289.358 340.912 288.893 340.912C288.699 340.912 288.52 340.883 288.355 340.826C288.191 340.769 288.048 340.683 287.926 340.568C287.804 340.454 287.707 340.314 287.636 340.149C287.564 339.985 287.528 339.799 287.528 339.591C287.528 339.362 287.557 339.158 287.614 338.979C287.679 338.792 287.711 338.61 287.711 338.431C287.711 338.187 287.639 338.019 287.496 337.926C287.353 337.833 287.188 337.786 287.002 337.786C286.758 337.786 286.511 337.868 286.261 338.033C286.017 338.198 285.817 338.416 285.659 338.688C285.595 338.81 285.537 338.939 285.487 339.075C285.444 339.204 285.423 339.319 285.423 339.419C285.423 339.476 285.455 339.541 285.52 339.612C285.584 339.677 285.666 339.752 285.767 339.838C285.874 339.924 285.992 340.024 286.121 340.139C286.257 340.246 286.39 340.371 286.519 340.515C286.748 340.765 286.955 341.08 287.142 341.46C287.328 341.84 287.421 342.287 287.421 342.803C287.421 343.376 287.356 343.877 287.228 344.307C287.099 344.729 286.92 345.098 286.69 345.413C286.468 345.721 286.207 345.979 285.906 346.187C285.605 346.387 285.28 346.548 284.929 346.67C284.585 346.792 284.223 346.878 283.844 346.928C283.471 346.978 283.103 347.003 282.737 347.003H282.318C281.853 347.082 281.473 347.229 281.18 347.443C280.893 347.658 280.75 347.938 280.75 348.281C280.75 348.503 280.822 348.689 280.965 348.84C281.108 348.99 281.298 349.119 281.534 349.227C281.778 349.327 282.057 349.409 282.372 349.474C282.687 349.531 283.013 349.585 283.35 349.635C283.693 349.678 284.034 349.721 284.37 349.764C284.714 349.807 285.033 349.857 285.326 349.914C285.82 350.014 286.297 350.147 286.755 350.312C287.22 350.476 287.629 350.695 287.979 350.967C288.338 351.246 288.624 351.593 288.839 352.009C289.054 352.424 289.161 352.929 289.161 353.523C289.161 353.989 289.082 354.422 288.925 354.823C288.767 355.231 288.549 355.604 288.27 355.94C287.99 356.284 287.661 356.596 287.281 356.875C286.902 357.154 286.493 357.394 286.057 357.595C285.484 357.86 284.857 358.06 284.177 358.196C283.496 358.332 282.787 358.4 282.05 358.4C281.362 358.4 280.718 358.325 280.116 358.175C279.515 358.024 278.988 357.792 278.537 357.477C278.093 357.169 277.742 356.778 277.484 356.306C277.227 355.833 277.098 355.278 277.098 354.641C277.098 354.118 277.184 353.645 277.355 353.223C277.527 352.8 277.746 352.421 278.011 352.084C278.283 351.755 278.584 351.465 278.913 351.214C279.25 350.963 279.576 350.748 279.891 350.569C280.213 350.39 280.51 350.243 280.782 350.129C281.054 350.014 281.266 349.928 281.416 349.871C281.165 349.842 280.911 349.792 280.653 349.721C280.403 349.649 280.174 349.552 279.966 349.431C279.765 349.309 279.601 349.155 279.472 348.969C279.343 348.775 279.278 348.546 279.278 348.281C279.278 347.93 279.429 347.633 279.729 347.39C280.037 347.139 280.467 346.946 281.019 346.81C280.61 346.702 280.231 346.548 279.88 346.348C279.529 346.14 279.225 345.886 278.967 345.585C278.709 345.284 278.505 344.93 278.354 344.521C278.211 344.113 278.14 343.651 278.14 343.136C278.14 342.498 278.251 341.929 278.473 341.428C278.702 340.926 279.01 340.504 279.396 340.16C279.783 339.809 280.238 339.544 280.761 339.365C281.284 339.179 281.846 339.086 282.447 339.086C282.626 339.086 282.809 339.097 282.995 339.118C283.181 339.132 283.357 339.154 283.521 339.183C283.686 339.204 283.837 339.226 283.973 339.247C284.116 339.261 284.23 339.269 284.316 339.269C284.495 339.269 284.642 339.243 284.757 339.193C284.879 339.143 284.99 339.036 285.09 338.871C285.233 338.642 285.391 338.413 285.562 338.184C285.734 337.954 285.935 337.75 286.164 337.571C286.393 337.385 286.658 337.238 286.959 337.131C287.267 337.016 287.625 336.959 288.033 336.959ZM283.199 339.73C282.927 339.73 282.655 339.795 282.383 339.924C282.118 340.046 281.878 340.253 281.663 340.547C281.455 340.833 281.284 341.209 281.147 341.675C281.019 342.14 280.954 342.71 280.954 343.383C280.954 343.934 281.011 344.407 281.126 344.801C281.248 345.188 281.402 345.51 281.588 345.768C281.781 346.018 281.996 346.204 282.232 346.326C282.469 346.441 282.701 346.498 282.931 346.498C283.131 346.498 283.36 346.451 283.618 346.358C283.876 346.258 284.119 346.072 284.349 345.8C284.578 345.528 284.771 345.152 284.929 344.672C285.093 344.192 285.176 343.569 285.176 342.803C285.176 341.786 284.997 341.02 284.639 340.504C284.288 339.988 283.808 339.73 283.199 339.73ZM279.826 353.964C279.826 354.487 279.901 354.974 280.052 355.425C280.209 355.883 280.438 356.281 280.739 356.617C281.04 356.961 281.409 357.229 281.846 357.423C282.283 357.623 282.784 357.724 283.35 357.724C283.994 357.724 284.549 357.62 285.015 357.412C285.48 357.212 285.863 356.943 286.164 356.606C286.465 356.277 286.687 355.894 286.83 355.457C286.973 355.027 287.045 354.58 287.045 354.114C287.045 353.663 286.988 353.237 286.873 352.836C286.758 352.442 286.583 352.084 286.347 351.762C286.11 351.439 285.806 351.157 285.434 350.913C285.061 350.677 284.617 350.491 284.102 350.354C283.765 350.261 283.443 350.19 283.135 350.14C282.827 350.097 282.548 350.064 282.297 350.043C282.046 350.193 281.774 350.387 281.48 350.623C281.194 350.867 280.925 351.149 280.675 351.472C280.431 351.801 280.227 352.174 280.062 352.589C279.905 353.004 279.826 353.463 279.826 353.964ZM297.024 330.814C297.483 330.814 297.877 330.879 298.206 331.008C298.535 331.137 298.808 331.312 299.022 331.534C299.237 331.756 299.395 332.01 299.495 332.297C299.603 332.583 299.656 332.881 299.656 333.188C299.656 333.797 299.531 334.377 299.28 334.929C299.03 335.48 298.707 336.021 298.313 336.551C297.92 337.081 297.483 337.607 297.003 338.13C296.53 338.653 296.068 339.193 295.617 339.752C295.904 340.354 296.204 340.93 296.52 341.481C296.835 342.026 297.135 342.52 297.422 342.964C297.715 343.408 297.98 343.795 298.217 344.124C298.46 344.453 298.646 344.704 298.775 344.876C298.883 345.019 299.019 345.188 299.184 345.381C299.348 345.574 299.535 345.785 299.742 346.015C299.95 346.237 300.175 346.469 300.419 346.713C300.67 346.949 300.924 347.186 301.182 347.422C301.49 347.071 301.758 346.699 301.987 346.305C302.216 345.904 302.406 345.503 302.557 345.102C302.707 344.701 302.818 344.307 302.89 343.92C302.968 343.526 303.008 343.161 303.008 342.824C303.008 342.122 302.904 341.625 302.696 341.331C302.489 341.037 302.224 340.891 301.901 340.891C301.672 340.891 301.4 340.926 301.085 340.998C300.77 341.062 300.448 341.134 300.118 341.213C299.796 341.292 299.488 341.367 299.194 341.438C298.901 341.503 298.661 341.535 298.475 341.535C298.36 341.535 298.267 341.517 298.195 341.481C298.131 341.446 298.099 341.388 298.099 341.31C298.099 341.216 298.163 341.148 298.292 341.105C298.428 341.055 298.629 340.998 298.894 340.934C299.159 340.862 299.488 340.762 299.882 340.633C300.283 340.504 300.752 340.311 301.289 340.053C301.733 339.838 302.109 339.612 302.417 339.376C302.725 339.132 302.983 338.91 303.19 338.71C303.398 338.502 303.566 338.33 303.695 338.194C303.824 338.058 303.932 337.99 304.018 337.99C304.096 337.99 304.164 338.04 304.222 338.141C304.286 338.241 304.34 338.377 304.383 338.549C304.426 338.714 304.458 338.91 304.479 339.14C304.508 339.362 304.522 339.594 304.522 339.838C304.522 340.583 304.465 341.327 304.351 342.072C304.236 342.817 304.064 343.54 303.835 344.242C303.606 344.937 303.316 345.599 302.965 346.229C302.621 346.853 302.216 347.418 301.751 347.927C301.994 348.134 302.234 348.328 302.471 348.507C302.714 348.679 302.951 348.829 303.18 348.958C303.409 349.087 303.627 349.187 303.835 349.259C304.05 349.33 304.25 349.366 304.437 349.366C304.594 349.366 304.741 349.32 304.877 349.227C305.02 349.126 305.153 349.001 305.274 348.851C305.396 348.7 305.507 348.543 305.607 348.378C305.715 348.206 305.812 348.045 305.897 347.895C305.983 347.744 306.062 347.622 306.134 347.529C306.205 347.429 306.27 347.379 306.327 347.379C306.399 347.379 306.435 347.44 306.435 347.562C306.435 347.669 306.384 347.859 306.284 348.131C306.191 348.403 306.066 348.711 305.908 349.055C305.758 349.391 305.582 349.742 305.382 350.107C305.181 350.48 304.977 350.82 304.77 351.128C304.569 351.436 304.372 351.687 304.179 351.88C303.993 352.08 303.828 352.181 303.685 352.181C303.556 352.181 303.373 352.131 303.137 352.03C302.9 351.937 302.618 351.783 302.288 351.568C301.959 351.354 301.586 351.071 301.171 350.72C300.763 350.369 300.319 349.939 299.839 349.431C299.33 349.703 298.779 349.918 298.185 350.075C297.597 350.233 296.96 350.312 296.272 350.312C295.435 350.312 294.665 350.201 293.963 349.979C293.268 349.757 292.67 349.427 292.169 348.99C291.668 348.553 291.277 348.009 290.998 347.357C290.719 346.706 290.579 345.95 290.579 345.091C290.579 344.511 290.654 343.959 290.805 343.437C290.955 342.914 291.159 342.412 291.417 341.933C291.675 341.453 291.976 340.991 292.319 340.547C292.67 340.103 293.043 339.677 293.437 339.269C293.043 338.001 292.846 336.723 292.846 335.434C292.846 334.696 292.95 334.041 293.157 333.468C293.372 332.888 293.666 332.404 294.038 332.018C294.41 331.624 294.851 331.326 295.359 331.126C295.875 330.918 296.43 330.814 297.024 330.814ZM297.658 346.874C296.255 345.034 295.148 343.254 294.339 341.535C294.052 342.044 293.823 342.57 293.651 343.114C293.479 343.651 293.394 344.224 293.394 344.833C293.394 345.478 293.476 346.083 293.641 346.648C293.812 347.207 294.06 347.694 294.382 348.109C294.711 348.518 295.112 348.84 295.585 349.076C296.058 349.312 296.595 349.431 297.196 349.431C297.597 349.431 297.977 349.384 298.335 349.291C298.693 349.198 299.033 349.076 299.355 348.926C299.105 348.625 298.829 348.31 298.528 347.98C298.235 347.644 297.945 347.275 297.658 346.874ZM294.21 334.467C294.21 335.033 294.264 335.598 294.371 336.164C294.486 336.73 294.643 337.303 294.844 337.883C295.302 337.446 295.739 337.013 296.154 336.583C296.57 336.146 296.931 335.716 297.239 335.294C297.547 334.864 297.791 334.438 297.97 334.016C298.156 333.586 298.249 333.156 298.249 332.727C298.249 332.275 298.124 331.907 297.873 331.62C297.622 331.334 297.25 331.19 296.756 331.19C296.441 331.19 296.129 331.251 295.821 331.373C295.521 331.488 295.248 331.674 295.005 331.932C294.769 332.189 294.575 332.526 294.425 332.941C294.282 333.357 294.21 333.865 294.21 334.467ZM313.836 332.952C314.223 332.952 314.563 332.988 314.856 333.06C315.15 333.131 315.408 333.214 315.63 333.307C315.859 333.393 316.056 333.471 316.221 333.543C316.393 333.615 316.543 333.65 316.672 333.65C316.765 333.65 316.844 333.611 316.908 333.532C316.973 333.453 317.03 333.357 317.08 333.242C317.13 333.128 317.173 333.002 317.209 332.866C317.245 332.73 317.281 332.605 317.316 332.49C317.359 332.326 317.406 332.186 317.456 332.071C317.513 331.95 317.592 331.889 317.692 331.889C317.807 331.889 317.864 331.993 317.864 332.2C317.864 332.315 317.85 332.444 317.821 332.587C317.8 332.73 317.768 332.902 317.725 333.103C317.689 333.296 317.646 333.525 317.596 333.79C317.553 334.048 317.51 334.349 317.467 334.692C317.41 335.115 317.37 335.491 317.349 335.82C317.334 336.143 317.32 336.415 317.306 336.637C317.291 336.852 317.27 337.016 317.241 337.131C317.22 337.245 317.177 337.303 317.112 337.303C317.062 337.303 317.023 337.278 316.994 337.228C316.965 337.17 316.94 337.102 316.919 337.023C316.897 336.945 316.88 336.866 316.865 336.787C316.851 336.708 316.84 336.64 316.833 336.583C316.797 336.397 316.751 336.193 316.693 335.971C316.643 335.742 316.572 335.512 316.479 335.283C316.385 335.047 316.271 334.818 316.135 334.596C315.999 334.374 315.827 334.177 315.619 334.005C315.419 333.833 315.179 333.697 314.899 333.597C314.62 333.489 314.294 333.436 313.922 333.436C313.249 333.436 312.726 333.636 312.354 334.037C311.981 334.438 311.795 335.029 311.795 335.81C311.795 336.203 311.888 336.604 312.074 337.013C312.268 337.414 312.518 337.829 312.826 338.259C313.141 338.688 313.496 339.129 313.89 339.58C314.284 340.031 314.688 340.497 315.104 340.977C315.519 341.456 315.924 341.951 316.317 342.459C316.711 342.967 317.062 343.494 317.37 344.038C317.685 344.582 317.936 345.148 318.122 345.735C318.315 346.315 318.412 346.917 318.412 347.54C318.412 348.399 318.272 349.148 317.993 349.785C317.714 350.415 317.338 350.938 316.865 351.354C316.393 351.776 315.845 352.088 315.222 352.288C314.599 352.496 313.947 352.6 313.267 352.6C312.737 352.6 312.271 352.535 311.87 352.406C311.476 352.285 311.118 352.148 310.796 351.998C310.481 351.855 310.191 351.719 309.926 351.59C309.668 351.468 309.41 351.407 309.152 351.407C308.952 351.407 308.766 351.468 308.594 351.59C308.429 351.712 308.275 351.844 308.132 351.987C307.996 352.138 307.874 352.274 307.767 352.396C307.666 352.517 307.584 352.578 307.52 352.578C307.462 352.578 307.426 352.557 307.412 352.514C307.398 352.478 307.391 352.431 307.391 352.374C307.391 352.317 307.401 352.22 307.423 352.084C307.444 351.955 307.466 351.798 307.487 351.611C307.516 351.425 307.541 351.214 307.562 350.978C307.584 350.741 307.595 350.487 307.595 350.215C307.595 349.728 307.548 349.23 307.455 348.722C307.362 348.206 307.258 347.723 307.144 347.271C307.029 346.82 306.925 346.423 306.832 346.079C306.739 345.735 306.692 345.488 306.692 345.338C306.692 345.273 306.707 345.213 306.735 345.155C306.757 345.098 306.807 345.069 306.886 345.069C306.993 345.069 307.093 345.148 307.187 345.306C307.28 345.456 307.376 345.657 307.477 345.907C307.541 346.079 307.623 346.29 307.724 346.541C307.831 346.792 307.949 347.064 308.078 347.357C308.207 347.644 308.347 347.945 308.497 348.26C308.655 348.575 308.823 348.883 309.002 349.184C309.31 349.714 309.632 350.154 309.969 350.505C310.305 350.856 310.649 351.135 311 351.343C311.358 351.558 311.72 351.708 312.085 351.794C312.45 351.887 312.815 351.934 313.181 351.934C313.618 351.934 313.993 351.851 314.309 351.687C314.631 351.522 314.896 351.307 315.104 351.042C315.311 350.777 315.462 350.48 315.555 350.15C315.655 349.821 315.705 349.492 315.705 349.162C315.705 348.51 315.616 347.902 315.437 347.336C315.265 346.763 315.035 346.219 314.749 345.703C314.47 345.18 314.147 344.679 313.782 344.199C313.417 343.719 313.041 343.25 312.654 342.792C312.275 342.334 311.902 341.879 311.537 341.428C311.172 340.977 310.846 340.518 310.56 340.053C310.28 339.58 310.051 339.097 309.872 338.603C309.7 338.101 309.614 337.575 309.614 337.023C309.614 336.486 309.682 336.014 309.818 335.605C309.954 335.197 310.133 334.843 310.355 334.542C310.585 334.241 310.842 333.991 311.129 333.79C311.423 333.582 311.723 333.418 312.031 333.296C312.346 333.174 312.658 333.088 312.966 333.038C313.281 332.981 313.571 332.952 313.836 332.952ZM321.968 336.164C322.025 336.164 322.082 336.257 322.14 336.443C322.197 336.622 322.254 336.859 322.312 337.152C322.369 337.446 322.426 337.786 322.483 338.173C322.541 338.552 322.598 338.939 322.655 339.333L323.042 342.04C323.078 341.804 323.139 341.532 323.225 341.224C323.318 340.916 323.439 340.597 323.59 340.268C323.74 339.938 323.923 339.616 324.138 339.301C324.353 338.986 324.6 338.703 324.879 338.452C325.165 338.201 325.484 338.001 325.835 337.851C326.193 337.693 326.59 337.614 327.027 337.614C327.564 337.614 328.03 337.718 328.424 337.926C328.818 338.126 329.144 338.409 329.401 338.774C329.659 339.132 329.849 339.562 329.971 340.063C330.092 340.565 330.153 341.113 330.153 341.707C330.153 342.244 330.121 342.785 330.057 343.329C329.999 343.866 329.935 344.396 329.863 344.919C329.799 345.442 329.734 345.947 329.67 346.434C329.613 346.921 329.584 347.375 329.584 347.798C329.584 348.049 329.605 348.267 329.648 348.453C329.691 348.639 329.756 348.811 329.842 348.969C329.942 349.119 330.064 349.252 330.207 349.366C330.357 349.474 330.497 349.577 330.626 349.678C330.762 349.771 330.877 349.868 330.97 349.968C331.07 350.061 331.12 350.161 331.12 350.269C331.12 350.333 331.102 350.387 331.066 350.43C331.031 350.48 330.97 350.505 330.884 350.505C330.755 350.505 330.612 350.455 330.454 350.354C330.304 350.261 330.114 350.143 329.885 350C329.663 349.85 329.394 349.692 329.079 349.527C328.764 349.355 328.381 349.198 327.93 349.055C327.593 348.94 327.253 348.851 326.909 348.786C326.573 348.722 326.179 348.679 325.728 348.657C325.477 348.636 325.352 348.564 325.352 348.442C325.352 348.306 325.434 348.238 325.599 348.238C325.699 348.238 325.839 348.238 326.018 348.238C326.197 348.238 326.379 348.231 326.565 348.217C326.852 348.195 327.088 348.109 327.274 347.959C327.461 347.801 327.6 347.515 327.693 347.1C327.722 346.935 327.751 346.727 327.779 346.477C327.808 346.219 327.833 345.947 327.854 345.66C327.876 345.367 327.894 345.069 327.908 344.769C327.923 344.468 327.93 344.181 327.93 343.909C327.93 343.666 327.926 343.386 327.919 343.071C327.912 342.749 327.887 342.416 327.844 342.072C327.808 341.729 327.747 341.392 327.661 341.062C327.582 340.733 327.464 340.439 327.307 340.182C327.149 339.924 326.949 339.716 326.705 339.559C326.462 339.394 326.164 339.312 325.813 339.312C325.513 339.312 325.237 339.387 324.986 339.537C324.743 339.688 324.524 339.899 324.331 340.171C324.138 340.436 323.973 340.751 323.837 341.116C323.701 341.481 323.597 341.882 323.525 342.319C323.447 342.763 323.393 343.222 323.364 343.694C323.343 344.16 323.332 344.625 323.332 345.091C323.332 345.485 323.346 345.864 323.375 346.229C323.404 346.588 323.443 346.921 323.493 347.229C323.543 347.529 323.604 347.798 323.676 348.034C323.747 348.271 323.83 348.457 323.923 348.593C324.059 348.779 324.206 348.919 324.363 349.012C324.521 349.105 324.653 349.169 324.761 349.205C324.904 349.248 325.004 349.287 325.062 349.323C325.126 349.352 325.158 349.395 325.158 349.452C325.158 349.495 325.122 349.535 325.051 349.57C324.986 349.606 324.875 349.624 324.718 349.624C324.567 349.624 324.403 349.613 324.224 349.592C324.045 349.563 323.858 349.535 323.665 349.506C323.472 349.477 323.271 349.452 323.063 349.431C322.856 349.402 322.652 349.388 322.451 349.388C322.251 349.388 322.047 349.395 321.839 349.409C321.631 349.424 321.431 349.438 321.237 349.452C321.051 349.466 320.879 349.481 320.722 349.495C320.564 349.509 320.439 349.517 320.346 349.517C320.066 349.517 319.927 349.427 319.927 349.248C319.927 349.184 319.948 349.13 319.991 349.087C320.041 349.037 320.127 349.005 320.249 348.99C320.349 348.983 320.439 348.976 320.518 348.969C320.596 348.962 320.675 348.958 320.754 348.958C320.84 348.951 320.926 348.944 321.012 348.937C321.105 348.929 321.212 348.919 321.334 348.904C321.563 348.868 321.717 348.786 321.796 348.657C321.882 348.521 321.925 348.339 321.925 348.109C321.925 347.715 321.889 347.236 321.817 346.67C321.753 346.104 321.663 345.481 321.549 344.801C321.434 344.12 321.295 343.401 321.13 342.642C320.972 341.875 320.804 341.095 320.625 340.3C320.539 339.892 320.439 339.587 320.324 339.387C320.217 339.186 320.059 339.086 319.852 339.086C319.744 339.086 319.633 339.107 319.519 339.15C319.404 339.186 319.289 339.229 319.175 339.279C319.067 339.322 318.964 339.365 318.863 339.408C318.763 339.444 318.67 339.462 318.584 339.462C318.448 339.462 318.38 339.405 318.38 339.29C318.38 339.197 318.416 339.132 318.487 339.097C318.566 339.054 318.648 339.014 318.734 338.979C318.935 338.9 319.15 338.799 319.379 338.678C319.615 338.556 319.869 338.391 320.142 338.184C320.407 337.976 320.643 337.754 320.851 337.518C321.058 337.281 321.237 337.063 321.388 336.862C321.538 336.662 321.66 336.497 321.753 336.368C321.846 336.232 321.918 336.164 321.968 336.164ZM334.461 342.255C334.196 342.255 333.945 342.205 333.709 342.104C333.48 342.004 333.279 341.854 333.107 341.653C332.936 341.453 332.799 341.202 332.699 340.901C332.599 340.601 332.549 340.246 332.549 339.838C332.549 339.394 332.61 338.961 332.731 338.538C332.86 338.108 333.057 337.729 333.322 337.399C333.587 337.063 333.924 336.794 334.332 336.594C334.747 336.393 335.245 336.293 335.825 336.293C336.305 336.293 336.728 336.357 337.093 336.486C337.465 336.608 337.791 336.776 338.07 336.991C338.35 337.199 338.586 337.442 338.779 337.722C338.98 338.001 339.148 338.295 339.284 338.603C339.42 338.903 339.531 339.211 339.617 339.526C339.71 339.834 339.789 340.128 339.854 340.407C339.889 340.565 339.932 340.79 339.982 341.084C340.04 341.37 340.101 341.703 340.165 342.083C340.229 342.463 340.298 342.871 340.369 343.308C340.441 343.737 340.512 344.174 340.584 344.618C340.656 345.062 340.724 345.495 340.788 345.918C340.86 346.333 340.924 346.716 340.981 347.067C341.039 347.411 341.085 347.708 341.121 347.959C341.164 348.202 341.196 348.371 341.218 348.464C341.261 348.686 341.307 348.911 341.357 349.141C341.415 349.37 341.483 349.581 341.562 349.774C341.647 349.961 341.751 350.115 341.873 350.236C341.995 350.358 342.149 350.419 342.335 350.419C342.442 350.419 342.535 350.394 342.614 350.344C342.693 350.294 342.754 350.226 342.797 350.14C342.847 350.054 342.883 349.957 342.904 349.85C342.926 349.742 342.937 349.631 342.937 349.517C342.937 349.381 342.933 349.244 342.926 349.108C342.919 348.965 342.915 348.843 342.915 348.743C342.915 348.636 342.929 348.543 342.958 348.464C342.987 348.385 343.044 348.346 343.13 348.346C343.209 348.346 343.27 348.392 343.312 348.485C343.363 348.571 343.398 348.675 343.42 348.797C343.449 348.911 343.466 349.03 343.474 349.151C343.481 349.266 343.484 349.352 343.484 349.409C343.484 349.66 343.463 349.943 343.42 350.258C343.377 350.573 343.287 350.877 343.151 351.171C343.022 351.472 342.808 351.719 342.507 351.912C342.206 352.105 341.859 352.202 341.465 352.202C341.121 352.202 340.824 352.152 340.573 352.052C340.33 351.951 340.118 351.826 339.939 351.676C339.768 351.525 339.621 351.364 339.499 351.192C339.384 351.021 339.291 350.859 339.22 350.709C339.019 350.322 338.865 349.9 338.758 349.441C338.658 348.976 338.575 348.532 338.511 348.109C338.403 348.288 338.239 348.51 338.017 348.775C337.802 349.04 337.533 349.295 337.211 349.538C336.889 349.782 336.516 349.989 336.094 350.161C335.671 350.333 335.202 350.419 334.687 350.419C334.114 350.419 333.623 350.337 333.215 350.172C332.814 350.014 332.484 349.799 332.227 349.527C331.969 349.248 331.779 348.926 331.657 348.561C331.535 348.188 331.475 347.794 331.475 347.379C331.475 346.935 331.557 346.487 331.722 346.036C331.886 345.585 332.155 345.177 332.527 344.812C332.907 344.446 333.397 344.149 333.999 343.92C334.608 343.691 335.349 343.576 336.223 343.576C336.423 343.576 336.617 343.587 336.803 343.608C336.996 343.623 337.168 343.641 337.318 343.662C337.476 343.684 337.608 343.705 337.716 343.727C337.83 343.748 337.913 343.762 337.963 343.77C337.92 343.154 337.866 342.538 337.802 341.922C337.773 341.664 337.741 341.392 337.705 341.105C337.676 340.819 337.644 340.533 337.608 340.246C337.573 339.952 337.533 339.666 337.49 339.387C337.447 339.107 337.401 338.846 337.351 338.603C337.236 338.051 337.01 337.614 336.674 337.292C336.344 336.963 335.922 336.798 335.406 336.798C335.127 336.798 334.88 336.848 334.665 336.948C334.457 337.049 334.278 337.177 334.128 337.335C333.985 337.493 333.877 337.672 333.806 337.872C333.734 338.065 333.698 338.259 333.698 338.452C333.698 338.66 333.748 338.835 333.849 338.979C333.949 339.115 334.071 339.236 334.214 339.344C334.364 339.451 334.525 339.555 334.697 339.655C334.869 339.748 335.027 339.859 335.17 339.988C335.32 340.11 335.446 340.26 335.546 340.439C335.646 340.611 335.696 340.83 335.696 341.095C335.696 341.446 335.575 341.729 335.331 341.943C335.095 342.151 334.805 342.255 334.461 342.255ZM338.049 344.436C337.999 344.414 337.909 344.389 337.78 344.36C337.659 344.325 337.512 344.292 337.34 344.264C337.168 344.228 336.982 344.199 336.781 344.178C336.588 344.156 336.395 344.146 336.201 344.146C335.822 344.146 335.467 344.199 335.138 344.307C334.815 344.414 334.536 344.575 334.3 344.79C334.063 344.998 333.877 345.263 333.741 345.585C333.605 345.9 333.537 346.265 333.537 346.681C333.537 347.06 333.598 347.375 333.72 347.626C333.849 347.869 334.01 348.063 334.203 348.206C334.404 348.349 334.622 348.45 334.858 348.507C335.102 348.564 335.338 348.593 335.567 348.593C335.933 348.593 336.28 348.535 336.609 348.421C336.939 348.306 337.229 348.174 337.479 348.023C337.73 347.873 337.934 347.726 338.092 347.583C338.249 347.44 338.346 347.343 338.382 347.293C338.332 346.813 338.285 346.376 338.242 345.982C338.221 345.811 338.199 345.642 338.178 345.478C338.163 345.313 338.146 345.159 338.124 345.016C338.11 344.872 338.095 344.751 338.081 344.65C338.067 344.55 338.056 344.479 338.049 344.436ZM346.396 338.785C346.396 338.885 346.392 339.047 346.385 339.269C346.378 339.491 346.374 339.752 346.374 340.053C346.374 340.225 346.374 340.361 346.374 340.461C346.381 340.561 346.385 340.658 346.385 340.751C346.385 340.844 346.385 340.951 346.385 341.073C346.392 341.195 346.396 341.363 346.396 341.578C346.625 341.263 346.89 340.98 347.19 340.729C347.319 340.622 347.463 340.518 347.62 340.418C347.778 340.318 347.95 340.228 348.136 340.149C348.329 340.071 348.53 340.006 348.737 339.956C348.952 339.906 349.178 339.881 349.414 339.881C349.93 339.881 350.388 339.974 350.789 340.16C351.19 340.346 351.527 340.608 351.799 340.944C352.078 341.274 352.289 341.671 352.433 342.137C352.576 342.595 352.647 343.104 352.647 343.662C352.647 344.5 352.536 345.252 352.314 345.918C352.092 346.584 351.792 347.153 351.412 347.626C351.033 348.091 350.589 348.45 350.08 348.7C349.572 348.951 349.027 349.076 348.447 349.076C348.24 349.076 348.043 349.058 347.856 349.022C347.677 348.987 347.509 348.94 347.352 348.883C347.194 348.826 347.047 348.765 346.911 348.7C346.782 348.629 346.668 348.564 346.567 348.507C346.56 348.8 346.553 349.062 346.546 349.291C346.546 349.513 346.546 349.731 346.546 349.946C346.546 350.161 346.546 350.383 346.546 350.612C346.546 350.841 346.546 351.106 346.546 351.407C346.546 351.894 346.549 352.431 346.557 353.019C346.571 353.606 346.596 354.179 346.632 354.737C346.675 355.303 346.732 355.819 346.804 356.284C346.875 356.75 346.976 357.097 347.104 357.326C347.226 357.548 347.377 357.724 347.556 357.853C347.735 357.981 347.914 358.085 348.093 358.164C348.315 358.264 348.508 358.365 348.673 358.465C348.845 358.565 348.931 358.669 348.931 358.776C348.931 358.855 348.906 358.92 348.855 358.97C348.805 359.02 348.719 359.045 348.598 359.045C348.404 359.045 348.132 359.013 347.781 358.948C347.438 358.891 347.062 358.826 346.653 358.755C346.252 358.683 345.851 358.615 345.45 358.551C345.049 358.493 344.698 358.465 344.397 358.465C344.075 358.465 343.807 358.476 343.592 358.497C343.377 358.526 343.151 358.54 342.915 358.54C342.6 358.54 342.385 358.519 342.271 358.476C342.163 358.44 342.109 358.393 342.109 358.336C342.109 358.271 342.145 358.229 342.217 358.207C342.288 358.186 342.385 358.164 342.507 358.143C342.629 358.121 342.765 358.085 342.915 358.035C343.065 357.992 343.223 357.917 343.388 357.81C343.56 357.688 343.696 357.534 343.796 357.348C343.903 357.169 343.986 356.968 344.043 356.746C344.1 356.524 344.14 356.291 344.161 356.048C344.183 355.812 344.201 355.579 344.215 355.35C344.229 355.171 344.243 354.895 344.258 354.522C344.272 354.157 344.286 353.728 344.301 353.233C344.315 352.746 344.329 352.213 344.344 351.633C344.365 351.053 344.383 350.455 344.397 349.839C344.412 349.223 344.426 348.611 344.44 348.002C344.455 347.386 344.465 346.802 344.473 346.251C344.48 345.7 344.487 345.195 344.494 344.736C344.501 344.271 344.505 343.884 344.505 343.576C344.505 343.118 344.491 342.742 344.462 342.448C344.44 342.147 344.401 341.911 344.344 341.739C344.286 341.56 344.211 341.438 344.118 341.374C344.025 341.302 343.91 341.267 343.774 341.267C343.667 341.267 343.552 341.288 343.431 341.331C343.316 341.374 343.198 341.421 343.076 341.471C342.962 341.514 342.854 341.557 342.754 341.6C342.654 341.643 342.571 341.664 342.507 341.664C342.385 341.664 342.324 341.603 342.324 341.481C342.324 341.438 342.346 341.388 342.389 341.331C342.432 341.274 342.543 341.202 342.722 341.116C342.836 341.052 342.972 340.987 343.13 340.923C343.287 340.851 343.456 340.772 343.635 340.687C343.821 340.593 344.011 340.486 344.204 340.364C344.405 340.235 344.602 340.081 344.795 339.902C345.053 339.666 345.26 339.455 345.418 339.269C345.583 339.082 345.715 338.928 345.815 338.807C345.923 338.678 346.005 338.581 346.062 338.517C346.127 338.445 346.188 338.409 346.245 338.409C346.31 338.409 346.349 338.449 346.363 338.527C346.385 338.599 346.396 338.685 346.396 338.785ZM348.372 340.934C348.064 340.934 347.796 341.005 347.566 341.148C347.344 341.292 347.155 341.481 346.997 341.718C346.84 341.954 346.711 342.223 346.61 342.523C346.517 342.824 346.442 343.136 346.385 343.458C346.327 343.773 346.288 344.085 346.267 344.393C346.252 344.693 346.245 344.965 346.245 345.209C346.245 345.589 346.27 345.972 346.32 346.358C346.378 346.738 346.474 347.082 346.61 347.39C346.754 347.69 346.947 347.938 347.19 348.131C347.434 348.324 347.742 348.421 348.114 348.421C348.408 348.421 348.687 348.346 348.952 348.195C349.224 348.045 349.461 347.805 349.661 347.476C349.869 347.139 350.034 346.702 350.155 346.165C350.277 345.621 350.338 344.962 350.338 344.188C350.338 343.716 350.302 343.283 350.23 342.889C350.159 342.488 350.044 342.144 349.887 341.857C349.729 341.564 349.525 341.338 349.274 341.181C349.024 341.016 348.723 340.934 348.372 340.934Z" fill="white"/>
<path d="M266.516 19.6016C266.797 19.6016 267.044 19.6276 267.258 19.6797C267.471 19.7318 267.659 19.7917 267.82 19.8594C267.987 19.9219 268.13 19.9792 268.25 20.0312C268.375 20.0833 268.484 20.1094 268.578 20.1094C268.646 20.1094 268.703 20.0807 268.75 20.0234C268.797 19.9661 268.839 19.8958 268.875 19.8125C268.911 19.7292 268.943 19.638 268.969 19.5391C268.995 19.4401 269.021 19.349 269.047 19.2656C269.078 19.1458 269.112 19.0443 269.148 18.9609C269.19 18.8724 269.247 18.8281 269.32 18.8281C269.404 18.8281 269.445 18.9036 269.445 19.0547C269.445 19.138 269.435 19.2318 269.414 19.3359C269.398 19.4401 269.375 19.5651 269.344 19.7109C269.318 19.8516 269.286 20.0182 269.25 20.2109C269.219 20.3984 269.188 20.6172 269.156 20.8672C269.115 21.1745 269.086 21.4479 269.07 21.6875C269.06 21.9219 269.049 22.1198 269.039 22.2812C269.029 22.4375 269.013 22.5573 268.992 22.6406C268.977 22.724 268.945 22.7656 268.898 22.7656C268.862 22.7656 268.833 22.7474 268.812 22.7109C268.792 22.6693 268.773 22.6198 268.758 22.5625C268.742 22.5052 268.729 22.4479 268.719 22.3906C268.708 22.3333 268.701 22.2839 268.695 22.2422C268.669 22.1068 268.635 21.9583 268.594 21.7969C268.557 21.6302 268.505 21.4635 268.438 21.2969C268.37 21.125 268.286 20.9583 268.188 20.7969C268.089 20.6354 267.964 20.4922 267.812 20.3672C267.667 20.2422 267.492 20.1432 267.289 20.0703C267.086 19.9922 266.849 19.9531 266.578 19.9531C266.089 19.9531 265.708 20.099 265.438 20.3906C265.167 20.6823 265.031 21.112 265.031 21.6797C265.031 21.9661 265.099 22.2578 265.234 22.5547C265.375 22.8464 265.557 23.1484 265.781 23.4609C266.01 23.7734 266.268 24.0938 266.555 24.4219C266.841 24.75 267.135 25.0885 267.438 25.4375C267.74 25.7865 268.034 26.1458 268.32 26.5156C268.607 26.8854 268.862 27.2682 269.086 27.6641C269.315 28.0599 269.497 28.4714 269.633 28.8984C269.773 29.3203 269.844 29.7578 269.844 30.2109C269.844 30.8359 269.742 31.3802 269.539 31.8438C269.336 32.3021 269.062 32.6823 268.719 32.9844C268.375 33.2917 267.977 33.5182 267.523 33.6641C267.07 33.8151 266.596 33.8906 266.102 33.8906C265.716 33.8906 265.378 33.8438 265.086 33.75C264.799 33.6615 264.539 33.5625 264.305 33.4531C264.076 33.349 263.865 33.25 263.672 33.1562C263.484 33.0677 263.297 33.0234 263.109 33.0234C262.964 33.0234 262.828 33.0677 262.703 33.1562C262.583 33.2448 262.471 33.3411 262.367 33.4453C262.268 33.5547 262.18 33.6536 262.102 33.7422C262.029 33.8307 261.969 33.875 261.922 33.875C261.88 33.875 261.854 33.8594 261.844 33.8281C261.833 33.8021 261.828 33.7682 261.828 33.7266C261.828 33.6849 261.836 33.6146 261.852 33.5156C261.867 33.4219 261.883 33.3073 261.898 33.1719C261.919 33.0365 261.938 32.8828 261.953 32.7109C261.969 32.5391 261.977 32.3542 261.977 32.1562C261.977 31.8021 261.943 31.4401 261.875 31.0703C261.807 30.6953 261.732 30.3438 261.648 30.0156C261.565 29.6875 261.49 29.3984 261.422 29.1484C261.354 28.8984 261.32 28.7188 261.32 28.6094C261.32 28.5625 261.331 28.5182 261.352 28.4766C261.367 28.4349 261.404 28.4141 261.461 28.4141C261.539 28.4141 261.612 28.4714 261.68 28.5859C261.747 28.6953 261.818 28.8411 261.891 29.0234C261.938 29.1484 261.997 29.3021 262.07 29.4844C262.148 29.6667 262.234 29.8646 262.328 30.0781C262.422 30.2865 262.523 30.5052 262.633 30.7344C262.747 30.9635 262.87 31.1875 263 31.4062C263.224 31.7917 263.458 32.112 263.703 32.3672C263.948 32.6224 264.198 32.8255 264.453 32.9766C264.714 33.1328 264.977 33.2422 265.242 33.3047C265.508 33.3724 265.773 33.4062 266.039 33.4062C266.357 33.4062 266.63 33.3464 266.859 33.2266C267.094 33.1068 267.286 32.9505 267.438 32.7578C267.589 32.5651 267.698 32.349 267.766 32.1094C267.839 31.8698 267.875 31.6302 267.875 31.3906C267.875 30.9167 267.81 30.474 267.68 30.0625C267.555 29.6458 267.388 29.25 267.18 28.875C266.977 28.4948 266.742 28.1302 266.477 27.7812C266.211 27.4323 265.938 27.0911 265.656 26.7578C265.38 26.4245 265.109 26.0938 264.844 25.7656C264.578 25.4375 264.341 25.1042 264.133 24.7656C263.93 24.4219 263.763 24.0703 263.633 23.7109C263.508 23.3464 263.445 22.9635 263.445 22.5625C263.445 22.1719 263.495 21.8281 263.594 21.5312C263.693 21.2344 263.823 20.9766 263.984 20.7578C264.151 20.5391 264.339 20.3568 264.547 20.2109C264.76 20.0599 264.979 19.9401 265.203 19.8516C265.432 19.763 265.659 19.7005 265.883 19.6641C266.112 19.6224 266.323 19.6016 266.516 19.6016ZM272.219 19.4688C272.526 19.4688 272.771 19.5495 272.953 19.7109C273.135 19.8724 273.227 20.1016 273.227 20.3984C273.227 20.5964 273.195 20.763 273.133 20.8984C273.07 21.0286 272.99 21.1354 272.891 21.2188C272.792 21.2969 272.682 21.3542 272.562 21.3906C272.448 21.4219 272.333 21.4375 272.219 21.4375C272.12 21.4375 272.016 21.4219 271.906 21.3906C271.797 21.3594 271.695 21.3073 271.602 21.2344C271.508 21.1562 271.43 21.0573 271.367 20.9375C271.31 20.8125 271.281 20.6589 271.281 20.4766C271.281 20.2839 271.312 20.125 271.375 20C271.438 19.8698 271.516 19.7656 271.609 19.6875C271.703 19.6094 271.805 19.5547 271.914 19.5234C272.023 19.487 272.125 19.4688 272.219 19.4688ZM273.328 22.0312C273.38 22.0312 273.406 22.0911 273.406 22.2109C273.406 22.2891 273.396 22.4193 273.375 22.6016C273.359 22.7786 273.339 22.9688 273.312 23.1719C273.271 23.4948 273.229 23.8542 273.188 24.25C273.146 24.6406 273.104 25.0443 273.062 25.4609C273.026 25.8724 272.99 26.2812 272.953 26.6875C272.922 27.0938 272.893 27.4714 272.867 27.8203C272.841 28.1641 272.82 28.4688 272.805 28.7344C272.789 28.9948 272.781 29.1875 272.781 29.3125C272.781 29.474 272.792 29.6068 272.812 29.7109C272.833 29.8151 272.859 29.901 272.891 29.9688C272.922 30.0365 272.956 30.0911 272.992 30.1328C273.034 30.1745 273.076 30.2109 273.117 30.2422C273.164 30.2734 273.221 30.3021 273.289 30.3281C273.357 30.3542 273.43 30.3802 273.508 30.4062C273.586 30.4271 273.664 30.4453 273.742 30.4609C273.826 30.4766 273.901 30.487 273.969 30.4922C274.078 30.513 274.167 30.5286 274.234 30.5391C274.302 30.5495 274.336 30.5833 274.336 30.6406C274.336 30.7448 274.224 30.7969 274 30.7969C273.844 30.7969 273.688 30.7865 273.531 30.7656C273.375 30.7396 273.214 30.7109 273.047 30.6797C272.885 30.6484 272.716 30.6224 272.539 30.6016C272.362 30.5755 272.172 30.5625 271.969 30.5625C271.781 30.5625 271.612 30.5677 271.461 30.5781C271.31 30.5885 271.172 30.6016 271.047 30.6172C270.922 30.6328 270.805 30.6458 270.695 30.6562C270.586 30.6667 270.477 30.6719 270.367 30.6719C270.279 30.6719 270.198 30.6615 270.125 30.6406C270.052 30.6146 270.016 30.5651 270.016 30.4922C270.016 30.4193 270.055 30.3698 270.133 30.3438C270.216 30.3125 270.299 30.2891 270.383 30.2734C270.487 30.2526 270.589 30.2292 270.688 30.2031C270.786 30.1771 270.875 30.138 270.953 30.0859C271.036 30.0286 271.104 29.9557 271.156 29.8672C271.214 29.7734 271.25 29.6536 271.266 29.5078C271.286 29.2214 271.302 28.9297 271.312 28.6328C271.323 28.3359 271.331 28.0443 271.336 27.7578C271.341 27.4661 271.344 27.1849 271.344 26.9141C271.344 26.638 271.344 26.3802 271.344 26.1406C271.344 25.8542 271.344 25.5938 271.344 25.3594C271.344 25.1198 271.339 24.9167 271.328 24.75C271.318 24.4844 271.286 24.276 271.234 24.125C271.188 23.974 271.117 23.862 271.023 23.7891C270.935 23.7161 270.82 23.6693 270.68 23.6484C270.539 23.6224 270.37 23.6016 270.172 23.5859C270.115 23.5755 270.068 23.5573 270.031 23.5312C270 23.5052 269.984 23.4635 269.984 23.4062C269.984 23.3073 270.062 23.25 270.219 23.2344C270.297 23.2292 270.396 23.2214 270.516 23.2109C270.635 23.1953 270.773 23.1745 270.93 23.1484C271.091 23.1224 271.266 23.0859 271.453 23.0391C271.641 22.987 271.839 22.9167 272.047 22.8281C272.276 22.7344 272.464 22.6406 272.609 22.5469C272.76 22.4531 272.883 22.3698 272.977 22.2969C273.07 22.2188 273.143 22.1562 273.195 22.1094C273.247 22.0573 273.292 22.0312 273.328 22.0312ZM276.852 21.9375C276.893 21.9375 276.935 22.0052 276.977 22.1406C277.018 22.2708 277.06 22.4427 277.102 22.6562C277.143 22.8698 277.185 23.1172 277.227 23.3984C277.268 23.6745 277.31 23.9557 277.352 24.2422L277.633 26.2109C277.659 26.0391 277.703 25.8411 277.766 25.6172C277.833 25.3932 277.922 25.1615 278.031 24.9219C278.141 24.6823 278.273 24.4479 278.43 24.2188C278.586 23.9896 278.766 23.7839 278.969 23.6016C279.177 23.4193 279.409 23.2734 279.664 23.1641C279.924 23.0495 280.214 22.9922 280.531 22.9922C280.922 22.9922 281.26 23.0677 281.547 23.2188C281.833 23.3646 282.07 23.5703 282.258 23.8359C282.445 24.0964 282.583 24.4089 282.672 24.7734C282.76 25.138 282.805 25.5365 282.805 25.9688C282.805 26.3594 282.781 26.7526 282.734 27.1484C282.693 27.5391 282.646 27.9245 282.594 28.3047C282.547 28.6849 282.5 29.0521 282.453 29.4062C282.411 29.7604 282.391 30.0911 282.391 30.3984C282.391 30.5807 282.406 30.7396 282.438 30.875C282.469 31.0104 282.516 31.1354 282.578 31.25C282.651 31.3594 282.74 31.4557 282.844 31.5391C282.953 31.6172 283.055 31.6927 283.148 31.7656C283.247 31.8333 283.331 31.9036 283.398 31.9766C283.471 32.0443 283.508 32.1172 283.508 32.1953C283.508 32.2422 283.495 32.2812 283.469 32.3125C283.443 32.349 283.398 32.3672 283.336 32.3672C283.242 32.3672 283.138 32.3307 283.023 32.2578C282.914 32.1901 282.776 32.1042 282.609 32C282.448 31.8906 282.253 31.776 282.023 31.6562C281.794 31.5312 281.516 31.4167 281.188 31.3125C280.943 31.2292 280.695 31.1641 280.445 31.1172C280.201 31.0703 279.914 31.0391 279.586 31.0234C279.404 31.0078 279.312 30.9557 279.312 30.8672C279.312 30.7682 279.372 30.7188 279.492 30.7188C279.565 30.7188 279.667 30.7188 279.797 30.7188C279.927 30.7188 280.06 30.7135 280.195 30.7031C280.404 30.6875 280.576 30.625 280.711 30.5156C280.846 30.401 280.948 30.1927 281.016 29.8906C281.036 29.7708 281.057 29.6198 281.078 29.4375C281.099 29.25 281.117 29.0521 281.133 28.8438C281.148 28.6302 281.161 28.4141 281.172 28.1953C281.182 27.9766 281.188 27.7682 281.188 27.5703C281.188 27.3932 281.185 27.1901 281.18 26.9609C281.174 26.7266 281.156 26.4844 281.125 26.2344C281.099 25.9844 281.055 25.7396 280.992 25.5C280.935 25.2604 280.849 25.0469 280.734 24.8594C280.62 24.6719 280.474 24.5208 280.297 24.4062C280.12 24.2865 279.904 24.2266 279.648 24.2266C279.43 24.2266 279.229 24.2812 279.047 24.3906C278.87 24.5 278.711 24.6536 278.57 24.8516C278.43 25.0443 278.31 25.2734 278.211 25.5391C278.112 25.8047 278.036 26.0964 277.984 26.4141C277.927 26.737 277.888 27.0703 277.867 27.4141C277.852 27.7526 277.844 28.0911 277.844 28.4297C277.844 28.7161 277.854 28.9922 277.875 29.2578C277.896 29.5182 277.924 29.7604 277.961 29.9844C277.997 30.2031 278.042 30.3984 278.094 30.5703C278.146 30.7422 278.206 30.8776 278.273 30.9766C278.372 31.112 278.479 31.2135 278.594 31.2812C278.708 31.349 278.805 31.3958 278.883 31.4219C278.987 31.4531 279.06 31.4818 279.102 31.5078C279.148 31.5286 279.172 31.5599 279.172 31.6016C279.172 31.6328 279.146 31.6615 279.094 31.6875C279.047 31.7135 278.966 31.7266 278.852 31.7266C278.742 31.7266 278.622 31.7188 278.492 31.7031C278.362 31.6823 278.227 31.6615 278.086 31.6406C277.945 31.6198 277.799 31.6016 277.648 31.5859C277.497 31.5651 277.349 31.5547 277.203 31.5547C277.057 31.5547 276.909 31.5599 276.758 31.5703C276.607 31.5807 276.461 31.5911 276.32 31.6016C276.185 31.612 276.06 31.6224 275.945 31.6328C275.831 31.6432 275.74 31.6484 275.672 31.6484C275.469 31.6484 275.367 31.5833 275.367 31.4531C275.367 31.4062 275.383 31.3672 275.414 31.3359C275.451 31.2995 275.513 31.276 275.602 31.2656C275.674 31.2604 275.74 31.2552 275.797 31.25C275.854 31.2448 275.911 31.2422 275.969 31.2422C276.031 31.237 276.094 31.2318 276.156 31.2266C276.224 31.2214 276.302 31.2135 276.391 31.2031C276.557 31.1771 276.669 31.1172 276.727 31.0234C276.789 30.9245 276.82 30.7917 276.82 30.625C276.82 30.3385 276.794 29.9896 276.742 29.5781C276.695 29.1667 276.63 28.7135 276.547 28.2188C276.464 27.724 276.362 27.2005 276.242 26.6484C276.128 26.0911 276.005 25.5234 275.875 24.9453C275.812 24.6484 275.74 24.4271 275.656 24.2812C275.578 24.1354 275.464 24.0625 275.312 24.0625C275.234 24.0625 275.154 24.0781 275.07 24.1094C274.987 24.1354 274.904 24.1667 274.82 24.2031C274.742 24.2344 274.667 24.2656 274.594 24.2969C274.521 24.3229 274.453 24.3359 274.391 24.3359C274.292 24.3359 274.242 24.2943 274.242 24.2109C274.242 24.1432 274.268 24.0964 274.32 24.0703C274.378 24.0391 274.438 24.0104 274.5 23.9844C274.646 23.9271 274.802 23.8542 274.969 23.7656C275.141 23.6771 275.326 23.5573 275.523 23.4062C275.716 23.2552 275.888 23.0938 276.039 22.9219C276.19 22.75 276.32 22.5911 276.43 22.4453C276.539 22.2995 276.628 22.1797 276.695 22.0859C276.763 21.987 276.815 21.9375 276.852 21.9375ZM291.297 22.5156C291.562 22.5156 291.802 22.5573 292.016 22.6406C292.229 22.7188 292.411 22.8281 292.562 22.9688C292.714 23.1094 292.828 23.2734 292.906 23.4609C292.99 23.6484 293.031 23.849 293.031 24.0625C293.031 24.4844 292.93 24.8125 292.727 25.0469C292.529 25.276 292.26 25.3906 291.922 25.3906C291.781 25.3906 291.651 25.3698 291.531 25.3281C291.411 25.2865 291.307 25.224 291.219 25.1406C291.13 25.0573 291.06 24.9557 291.008 24.8359C290.956 24.7161 290.93 24.5807 290.93 24.4297C290.93 24.263 290.951 24.1146 290.992 23.9844C291.039 23.849 291.062 23.7161 291.062 23.5859C291.062 23.4089 291.01 23.2865 290.906 23.2188C290.802 23.151 290.682 23.1172 290.547 23.1172C290.37 23.1172 290.19 23.1771 290.008 23.2969C289.831 23.4167 289.685 23.5755 289.57 23.7734C289.523 23.862 289.482 23.9557 289.445 24.0547C289.414 24.1484 289.398 24.2318 289.398 24.3047C289.398 24.3464 289.422 24.3932 289.469 24.4453C289.516 24.4922 289.576 24.5469 289.648 24.6094C289.727 24.6719 289.812 24.7448 289.906 24.8281C290.005 24.9062 290.102 24.9974 290.195 25.1016C290.362 25.2839 290.513 25.513 290.648 25.7891C290.784 26.0651 290.852 26.3906 290.852 26.7656C290.852 27.1823 290.805 27.5469 290.711 27.8594C290.617 28.1667 290.487 28.4349 290.32 28.6641C290.159 28.888 289.969 29.0755 289.75 29.2266C289.531 29.3724 289.294 29.4896 289.039 29.5781C288.789 29.6667 288.526 29.7292 288.25 29.7656C287.979 29.8021 287.711 29.8203 287.445 29.8203H287.141C286.802 29.8776 286.526 29.9844 286.312 30.1406C286.104 30.2969 286 30.5 286 30.75C286 30.9115 286.052 31.0469 286.156 31.1562C286.26 31.2656 286.398 31.3594 286.57 31.4375C286.747 31.5104 286.951 31.5703 287.18 31.6172C287.409 31.6589 287.646 31.6979 287.891 31.7344C288.141 31.7656 288.388 31.7969 288.633 31.8281C288.883 31.8594 289.115 31.8958 289.328 31.9375C289.688 32.0104 290.034 32.1068 290.367 32.2266C290.706 32.3464 291.003 32.5052 291.258 32.7031C291.518 32.9062 291.727 33.1589 291.883 33.4609C292.039 33.763 292.117 34.1302 292.117 34.5625C292.117 34.901 292.06 35.2161 291.945 35.5078C291.831 35.8047 291.672 36.0755 291.469 36.3203C291.266 36.5703 291.026 36.7969 290.75 37C290.474 37.2031 290.177 37.3776 289.859 37.5234C289.443 37.7161 288.987 37.862 288.492 37.9609C287.997 38.0599 287.482 38.1094 286.945 38.1094C286.445 38.1094 285.977 38.0547 285.539 37.9453C285.102 37.8359 284.719 37.6667 284.391 37.4375C284.068 37.2135 283.812 36.9297 283.625 36.5859C283.438 36.2422 283.344 35.8385 283.344 35.375C283.344 34.9948 283.406 34.651 283.531 34.3438C283.656 34.0365 283.815 33.7604 284.008 33.5156C284.206 33.276 284.424 33.0651 284.664 32.8828C284.909 32.7005 285.146 32.5443 285.375 32.4141C285.609 32.2839 285.826 32.1771 286.023 32.0938C286.221 32.0104 286.375 31.9479 286.484 31.9062C286.302 31.8854 286.117 31.849 285.93 31.7969C285.747 31.7448 285.581 31.6745 285.43 31.5859C285.284 31.4974 285.164 31.3854 285.07 31.25C284.977 31.1094 284.93 30.9427 284.93 30.75C284.93 30.4948 285.039 30.2786 285.258 30.1016C285.482 29.9193 285.794 29.7786 286.195 29.6797C285.898 29.6016 285.622 29.4896 285.367 29.3438C285.112 29.1927 284.891 29.0078 284.703 28.7891C284.516 28.5703 284.367 28.3125 284.258 28.0156C284.154 27.7188 284.102 27.3828 284.102 27.0078C284.102 26.5443 284.182 26.1302 284.344 25.7656C284.51 25.401 284.734 25.0938 285.016 24.8438C285.297 24.5885 285.628 24.3958 286.008 24.2656C286.388 24.1302 286.797 24.0625 287.234 24.0625C287.365 24.0625 287.497 24.0703 287.633 24.0859C287.768 24.0964 287.896 24.112 288.016 24.1328C288.135 24.1484 288.245 24.1641 288.344 24.1797C288.448 24.1901 288.531 24.1953 288.594 24.1953C288.724 24.1953 288.831 24.1771 288.914 24.1406C289.003 24.1042 289.083 24.026 289.156 23.9062C289.26 23.7396 289.375 23.5729 289.5 23.4062C289.625 23.2396 289.771 23.0911 289.938 22.9609C290.104 22.8255 290.297 22.7188 290.516 22.6406C290.74 22.5573 291 22.5156 291.297 22.5156ZM287.781 24.5312C287.583 24.5312 287.385 24.5781 287.188 24.6719C286.995 24.7604 286.82 24.9115 286.664 25.125C286.513 25.3333 286.388 25.6068 286.289 25.9453C286.195 26.2839 286.148 26.6979 286.148 27.1875C286.148 27.5885 286.19 27.9323 286.273 28.2188C286.362 28.5 286.474 28.7344 286.609 28.9219C286.75 29.1042 286.906 29.2396 287.078 29.3281C287.25 29.4115 287.419 29.4531 287.586 29.4531C287.732 29.4531 287.898 29.4193 288.086 29.3516C288.273 29.2786 288.451 29.1432 288.617 28.9453C288.784 28.7474 288.924 28.474 289.039 28.125C289.159 27.776 289.219 27.3229 289.219 26.7656C289.219 26.026 289.089 25.4688 288.828 25.0938C288.573 24.7188 288.224 24.5312 287.781 24.5312ZM285.328 34.8828C285.328 35.263 285.383 35.6172 285.492 35.9453C285.607 36.2786 285.773 36.5677 285.992 36.8125C286.211 37.0625 286.479 37.2578 286.797 37.3984C287.115 37.5443 287.479 37.6172 287.891 37.6172C288.359 37.6172 288.763 37.5417 289.102 37.3906C289.44 37.2448 289.719 37.0495 289.938 36.8047C290.156 36.5651 290.318 36.2865 290.422 35.9688C290.526 35.6562 290.578 35.3307 290.578 34.9922C290.578 34.6641 290.536 34.3542 290.453 34.0625C290.37 33.776 290.242 33.5156 290.07 33.2812C289.898 33.0469 289.677 32.8411 289.406 32.6641C289.135 32.4922 288.812 32.3568 288.438 32.2578C288.193 32.1901 287.958 32.138 287.734 32.1016C287.51 32.0703 287.307 32.0469 287.125 32.0312C286.943 32.1406 286.745 32.2812 286.531 32.4531C286.323 32.6302 286.128 32.8359 285.945 33.0703C285.768 33.3099 285.62 33.5807 285.5 33.8828C285.385 34.1849 285.328 34.5182 285.328 34.8828ZM297.836 18.0469C298.169 18.0469 298.456 18.0938 298.695 18.1875C298.935 18.2812 299.133 18.4089 299.289 18.5703C299.445 18.7318 299.56 18.9167 299.633 19.125C299.711 19.3333 299.75 19.5495 299.75 19.7734C299.75 20.2161 299.659 20.638 299.477 21.0391C299.294 21.4401 299.06 21.8333 298.773 22.2188C298.487 22.6042 298.169 22.987 297.82 23.3672C297.477 23.7474 297.141 24.1406 296.812 24.5469C297.021 24.9844 297.24 25.4036 297.469 25.8047C297.698 26.2005 297.917 26.5599 298.125 26.8828C298.339 27.2057 298.531 27.487 298.703 27.7266C298.88 27.9661 299.016 28.1484 299.109 28.2734C299.188 28.3776 299.286 28.5 299.406 28.6406C299.526 28.7812 299.661 28.9349 299.812 29.1016C299.964 29.263 300.128 29.4323 300.305 29.6094C300.487 29.7812 300.672 29.9531 300.859 30.125C301.083 29.8698 301.279 29.599 301.445 29.3125C301.612 29.0208 301.75 28.7292 301.859 28.4375C301.969 28.1458 302.049 27.8594 302.102 27.5781C302.159 27.2917 302.188 27.026 302.188 26.7812C302.188 26.2708 302.112 25.9089 301.961 25.6953C301.81 25.4818 301.617 25.375 301.383 25.375C301.216 25.375 301.018 25.401 300.789 25.4531C300.56 25.5 300.326 25.5521 300.086 25.6094C299.852 25.6667 299.628 25.7214 299.414 25.7734C299.201 25.8203 299.026 25.8438 298.891 25.8438C298.807 25.8438 298.74 25.8307 298.688 25.8047C298.641 25.7786 298.617 25.737 298.617 25.6797C298.617 25.612 298.664 25.5625 298.758 25.5312C298.857 25.4948 299.003 25.4531 299.195 25.4062C299.388 25.3542 299.628 25.2812 299.914 25.1875C300.206 25.0938 300.547 24.9531 300.938 24.7656C301.26 24.6094 301.534 24.4453 301.758 24.2734C301.982 24.0964 302.169 23.9349 302.32 23.7891C302.471 23.638 302.594 23.513 302.688 23.4141C302.781 23.3151 302.859 23.2656 302.922 23.2656C302.979 23.2656 303.029 23.3021 303.07 23.375C303.117 23.4479 303.156 23.5469 303.188 23.6719C303.219 23.7917 303.242 23.9349 303.258 24.1016C303.279 24.263 303.289 24.4323 303.289 24.6094C303.289 25.151 303.247 25.6927 303.164 26.2344C303.081 26.776 302.956 27.3021 302.789 27.8125C302.622 28.3177 302.411 28.7995 302.156 29.2578C301.906 29.7109 301.612 30.1224 301.273 30.4922C301.451 30.6432 301.625 30.7839 301.797 30.9141C301.974 31.0391 302.146 31.1484 302.312 31.2422C302.479 31.3359 302.638 31.4089 302.789 31.4609C302.945 31.513 303.091 31.5391 303.227 31.5391C303.341 31.5391 303.448 31.5052 303.547 31.4375C303.651 31.3646 303.747 31.2734 303.836 31.1641C303.924 31.0547 304.005 30.9401 304.078 30.8203C304.156 30.6953 304.227 30.5781 304.289 30.4688C304.352 30.3594 304.409 30.2708 304.461 30.2031C304.513 30.1302 304.56 30.0938 304.602 30.0938C304.654 30.0938 304.68 30.138 304.68 30.2266C304.68 30.3047 304.643 30.4427 304.57 30.6406C304.503 30.8385 304.411 31.0625 304.297 31.3125C304.188 31.5573 304.06 31.8125 303.914 32.0781C303.768 32.349 303.62 32.5964 303.469 32.8203C303.323 33.0443 303.18 33.2266 303.039 33.3672C302.904 33.513 302.784 33.5859 302.68 33.5859C302.586 33.5859 302.453 33.5495 302.281 33.4766C302.109 33.4089 301.904 33.2969 301.664 33.1406C301.424 32.9844 301.154 32.7786 300.852 32.5234C300.555 32.2682 300.232 31.9557 299.883 31.5859C299.513 31.7839 299.112 31.9401 298.68 32.0547C298.253 32.1693 297.789 32.2266 297.289 32.2266C296.68 32.2266 296.12 32.1458 295.609 31.9844C295.104 31.8229 294.669 31.5833 294.305 31.2656C293.94 30.9479 293.656 30.5521 293.453 30.0781C293.25 29.6042 293.148 29.0547 293.148 28.4297C293.148 28.0078 293.203 27.6068 293.312 27.2266C293.422 26.8464 293.57 26.4818 293.758 26.1328C293.945 25.7839 294.164 25.4479 294.414 25.125C294.669 24.8021 294.94 24.4922 295.227 24.1953C294.94 23.2734 294.797 22.3438 294.797 21.4062C294.797 20.8698 294.872 20.3932 295.023 19.9766C295.18 19.5547 295.393 19.2031 295.664 18.9219C295.935 18.6354 296.255 18.4193 296.625 18.2734C297 18.1224 297.404 18.0469 297.836 18.0469ZM298.297 29.7266C297.276 28.388 296.471 27.0938 295.883 25.8438C295.674 26.2135 295.508 26.5964 295.383 26.9922C295.258 27.3828 295.195 27.7995 295.195 28.2422C295.195 28.7109 295.255 29.151 295.375 29.5625C295.5 29.9688 295.68 30.3229 295.914 30.625C296.154 30.9219 296.445 31.1562 296.789 31.3281C297.133 31.5 297.523 31.5859 297.961 31.5859C298.253 31.5859 298.529 31.5521 298.789 31.4844C299.049 31.4167 299.297 31.3281 299.531 31.2188C299.349 31 299.148 30.7708 298.93 30.5312C298.716 30.2865 298.505 30.0182 298.297 29.7266ZM295.789 20.7031C295.789 21.1146 295.828 21.526 295.906 21.9375C295.99 22.349 296.104 22.7656 296.25 23.1875C296.583 22.8698 296.901 22.5547 297.203 22.2422C297.505 21.9245 297.768 21.612 297.992 21.3047C298.216 20.9922 298.393 20.6823 298.523 20.375C298.659 20.0625 298.727 19.75 298.727 19.4375C298.727 19.1094 298.635 18.8411 298.453 18.6328C298.271 18.4245 298 18.3203 297.641 18.3203C297.411 18.3203 297.185 18.3646 296.961 18.4531C296.742 18.5365 296.544 18.6719 296.367 18.8594C296.195 19.0469 296.055 19.2917 295.945 19.5938C295.841 19.8958 295.789 20.2656 295.789 20.7031ZM310.062 19.6016C310.344 19.6016 310.591 19.6276 310.805 19.6797C311.018 19.7318 311.206 19.7917 311.367 19.8594C311.534 19.9219 311.677 19.9792 311.797 20.0312C311.922 20.0833 312.031 20.1094 312.125 20.1094C312.193 20.1094 312.25 20.0807 312.297 20.0234C312.344 19.9661 312.385 19.8958 312.422 19.8125C312.458 19.7292 312.49 19.638 312.516 19.5391C312.542 19.4401 312.568 19.349 312.594 19.2656C312.625 19.1458 312.659 19.0443 312.695 18.9609C312.737 18.8724 312.794 18.8281 312.867 18.8281C312.951 18.8281 312.992 18.9036 312.992 19.0547C312.992 19.138 312.982 19.2318 312.961 19.3359C312.945 19.4401 312.922 19.5651 312.891 19.7109C312.865 19.8516 312.833 20.0182 312.797 20.2109C312.766 20.3984 312.734 20.6172 312.703 20.8672C312.661 21.1745 312.633 21.4479 312.617 21.6875C312.607 21.9219 312.596 22.1198 312.586 22.2812C312.576 22.4375 312.56 22.5573 312.539 22.6406C312.523 22.724 312.492 22.7656 312.445 22.7656C312.409 22.7656 312.38 22.7474 312.359 22.7109C312.339 22.6693 312.32 22.6198 312.305 22.5625C312.289 22.5052 312.276 22.4479 312.266 22.3906C312.255 22.3333 312.247 22.2839 312.242 22.2422C312.216 22.1068 312.182 21.9583 312.141 21.7969C312.104 21.6302 312.052 21.4635 311.984 21.2969C311.917 21.125 311.833 20.9583 311.734 20.7969C311.635 20.6354 311.51 20.4922 311.359 20.3672C311.214 20.2422 311.039 20.1432 310.836 20.0703C310.633 19.9922 310.396 19.9531 310.125 19.9531C309.635 19.9531 309.255 20.099 308.984 20.3906C308.714 20.6823 308.578 21.112 308.578 21.6797C308.578 21.9661 308.646 22.2578 308.781 22.5547C308.922 22.8464 309.104 23.1484 309.328 23.4609C309.557 23.7734 309.815 24.0938 310.102 24.4219C310.388 24.75 310.682 25.0885 310.984 25.4375C311.286 25.7865 311.581 26.1458 311.867 26.5156C312.154 26.8854 312.409 27.2682 312.633 27.6641C312.862 28.0599 313.044 28.4714 313.18 28.8984C313.32 29.3203 313.391 29.7578 313.391 30.2109C313.391 30.8359 313.289 31.3802 313.086 31.8438C312.883 32.3021 312.609 32.6823 312.266 32.9844C311.922 33.2917 311.523 33.5182 311.07 33.6641C310.617 33.8151 310.143 33.8906 309.648 33.8906C309.263 33.8906 308.924 33.8438 308.633 33.75C308.346 33.6615 308.086 33.5625 307.852 33.4531C307.622 33.349 307.411 33.25 307.219 33.1562C307.031 33.0677 306.844 33.0234 306.656 33.0234C306.51 33.0234 306.375 33.0677 306.25 33.1562C306.13 33.2448 306.018 33.3411 305.914 33.4453C305.815 33.5547 305.727 33.6536 305.648 33.7422C305.576 33.8307 305.516 33.875 305.469 33.875C305.427 33.875 305.401 33.8594 305.391 33.8281C305.38 33.8021 305.375 33.7682 305.375 33.7266C305.375 33.6849 305.383 33.6146 305.398 33.5156C305.414 33.4219 305.43 33.3073 305.445 33.1719C305.466 33.0365 305.484 32.8828 305.5 32.7109C305.516 32.5391 305.523 32.3542 305.523 32.1562C305.523 31.8021 305.49 31.4401 305.422 31.0703C305.354 30.6953 305.279 30.3438 305.195 30.0156C305.112 29.6875 305.036 29.3984 304.969 29.1484C304.901 28.8984 304.867 28.7188 304.867 28.6094C304.867 28.5625 304.878 28.5182 304.898 28.4766C304.914 28.4349 304.951 28.4141 305.008 28.4141C305.086 28.4141 305.159 28.4714 305.227 28.5859C305.294 28.6953 305.365 28.8411 305.438 29.0234C305.484 29.1484 305.544 29.3021 305.617 29.4844C305.695 29.6667 305.781 29.8646 305.875 30.0781C305.969 30.2865 306.07 30.5052 306.18 30.7344C306.294 30.9635 306.417 31.1875 306.547 31.4062C306.771 31.7917 307.005 32.112 307.25 32.3672C307.495 32.6224 307.745 32.8255 308 32.9766C308.26 33.1328 308.523 33.2422 308.789 33.3047C309.055 33.3724 309.32 33.4062 309.586 33.4062C309.904 33.4062 310.177 33.3464 310.406 33.2266C310.641 33.1068 310.833 32.9505 310.984 32.7578C311.135 32.5651 311.245 32.349 311.312 32.1094C311.385 31.8698 311.422 31.6302 311.422 31.3906C311.422 30.9167 311.357 30.474 311.227 30.0625C311.102 29.6458 310.935 29.25 310.727 28.875C310.523 28.4948 310.289 28.1302 310.023 27.7812C309.758 27.4323 309.484 27.0911 309.203 26.7578C308.927 26.4245 308.656 26.0938 308.391 25.7656C308.125 25.4375 307.888 25.1042 307.68 24.7656C307.477 24.4219 307.31 24.0703 307.18 23.7109C307.055 23.3464 306.992 22.9635 306.992 22.5625C306.992 22.1719 307.042 21.8281 307.141 21.5312C307.24 21.2344 307.37 20.9766 307.531 20.7578C307.698 20.5391 307.885 20.3568 308.094 20.2109C308.307 20.0599 308.526 19.9401 308.75 19.8516C308.979 19.763 309.206 19.7005 309.43 19.6641C309.659 19.6224 309.87 19.6016 310.062 19.6016ZM315.977 21.9375C316.018 21.9375 316.06 22.0052 316.102 22.1406C316.143 22.2708 316.185 22.4427 316.227 22.6562C316.268 22.8698 316.31 23.1172 316.352 23.3984C316.393 23.6745 316.435 23.9557 316.477 24.2422L316.758 26.2109C316.784 26.0391 316.828 25.8411 316.891 25.6172C316.958 25.3932 317.047 25.1615 317.156 24.9219C317.266 24.6823 317.398 24.4479 317.555 24.2188C317.711 23.9896 317.891 23.7839 318.094 23.6016C318.302 23.4193 318.534 23.2734 318.789 23.1641C319.049 23.0495 319.339 22.9922 319.656 22.9922C320.047 22.9922 320.385 23.0677 320.672 23.2188C320.958 23.3646 321.195 23.5703 321.383 23.8359C321.57 24.0964 321.708 24.4089 321.797 24.7734C321.885 25.138 321.93 25.5365 321.93 25.9688C321.93 26.3594 321.906 26.7526 321.859 27.1484C321.818 27.5391 321.771 27.9245 321.719 28.3047C321.672 28.6849 321.625 29.0521 321.578 29.4062C321.536 29.7604 321.516 30.0911 321.516 30.3984C321.516 30.5807 321.531 30.7396 321.562 30.875C321.594 31.0104 321.641 31.1354 321.703 31.25C321.776 31.3594 321.865 31.4557 321.969 31.5391C322.078 31.6172 322.18 31.6927 322.273 31.7656C322.372 31.8333 322.456 31.9036 322.523 31.9766C322.596 32.0443 322.633 32.1172 322.633 32.1953C322.633 32.2422 322.62 32.2812 322.594 32.3125C322.568 32.349 322.523 32.3672 322.461 32.3672C322.367 32.3672 322.263 32.3307 322.148 32.2578C322.039 32.1901 321.901 32.1042 321.734 32C321.573 31.8906 321.378 31.776 321.148 31.6562C320.919 31.5312 320.641 31.4167 320.312 31.3125C320.068 31.2292 319.82 31.1641 319.57 31.1172C319.326 31.0703 319.039 31.0391 318.711 31.0234C318.529 31.0078 318.438 30.9557 318.438 30.8672C318.438 30.7682 318.497 30.7188 318.617 30.7188C318.69 30.7188 318.792 30.7188 318.922 30.7188C319.052 30.7188 319.185 30.7135 319.32 30.7031C319.529 30.6875 319.701 30.625 319.836 30.5156C319.971 30.401 320.073 30.1927 320.141 29.8906C320.161 29.7708 320.182 29.6198 320.203 29.4375C320.224 29.25 320.242 29.0521 320.258 28.8438C320.273 28.6302 320.286 28.4141 320.297 28.1953C320.307 27.9766 320.312 27.7682 320.312 27.5703C320.312 27.3932 320.31 27.1901 320.305 26.9609C320.299 26.7266 320.281 26.4844 320.25 26.2344C320.224 25.9844 320.18 25.7396 320.117 25.5C320.06 25.2604 319.974 25.0469 319.859 24.8594C319.745 24.6719 319.599 24.5208 319.422 24.4062C319.245 24.2865 319.029 24.2266 318.773 24.2266C318.555 24.2266 318.354 24.2812 318.172 24.3906C317.995 24.5 317.836 24.6536 317.695 24.8516C317.555 25.0443 317.435 25.2734 317.336 25.5391C317.237 25.8047 317.161 26.0964 317.109 26.4141C317.052 26.737 317.013 27.0703 316.992 27.4141C316.977 27.7526 316.969 28.0911 316.969 28.4297C316.969 28.7161 316.979 28.9922 317 29.2578C317.021 29.5182 317.049 29.7604 317.086 29.9844C317.122 30.2031 317.167 30.3984 317.219 30.5703C317.271 30.7422 317.331 30.8776 317.398 30.9766C317.497 31.112 317.604 31.2135 317.719 31.2812C317.833 31.349 317.93 31.3958 318.008 31.4219C318.112 31.4531 318.185 31.4818 318.227 31.5078C318.273 31.5286 318.297 31.5599 318.297 31.6016C318.297 31.6328 318.271 31.6615 318.219 31.6875C318.172 31.7135 318.091 31.7266 317.977 31.7266C317.867 31.7266 317.747 31.7188 317.617 31.7031C317.487 31.6823 317.352 31.6615 317.211 31.6406C317.07 31.6198 316.924 31.6016 316.773 31.5859C316.622 31.5651 316.474 31.5547 316.328 31.5547C316.182 31.5547 316.034 31.5599 315.883 31.5703C315.732 31.5807 315.586 31.5911 315.445 31.6016C315.31 31.612 315.185 31.6224 315.07 31.6328C314.956 31.6432 314.865 31.6484 314.797 31.6484C314.594 31.6484 314.492 31.5833 314.492 31.4531C314.492 31.4062 314.508 31.3672 314.539 31.3359C314.576 31.2995 314.638 31.276 314.727 31.2656C314.799 31.2604 314.865 31.2552 314.922 31.25C314.979 31.2448 315.036 31.2422 315.094 31.2422C315.156 31.237 315.219 31.2318 315.281 31.2266C315.349 31.2214 315.427 31.2135 315.516 31.2031C315.682 31.1771 315.794 31.1172 315.852 31.0234C315.914 30.9245 315.945 30.7917 315.945 30.625C315.945 30.3385 315.919 29.9896 315.867 29.5781C315.82 29.1667 315.755 28.7135 315.672 28.2188C315.589 27.724 315.487 27.2005 315.367 26.6484C315.253 26.0911 315.13 25.5234 315 24.9453C314.938 24.6484 314.865 24.4271 314.781 24.2812C314.703 24.1354 314.589 24.0625 314.438 24.0625C314.359 24.0625 314.279 24.0781 314.195 24.1094C314.112 24.1354 314.029 24.1667 313.945 24.2031C313.867 24.2344 313.792 24.2656 313.719 24.2969C313.646 24.3229 313.578 24.3359 313.516 24.3359C313.417 24.3359 313.367 24.2943 313.367 24.2109C313.367 24.1432 313.393 24.0964 313.445 24.0703C313.503 24.0391 313.562 24.0104 313.625 23.9844C313.771 23.9271 313.927 23.8542 314.094 23.7656C314.266 23.6771 314.451 23.5573 314.648 23.4062C314.841 23.2552 315.013 23.0938 315.164 22.9219C315.315 22.75 315.445 22.5911 315.555 22.4453C315.664 22.2995 315.753 22.1797 315.82 22.0859C315.888 21.987 315.94 21.9375 315.977 21.9375ZM325.062 26.3672C324.87 26.3672 324.688 26.3307 324.516 26.2578C324.349 26.1849 324.203 26.0755 324.078 25.9297C323.953 25.7839 323.854 25.6016 323.781 25.3828C323.708 25.1641 323.672 24.9062 323.672 24.6094C323.672 24.2865 323.716 23.9714 323.805 23.6641C323.898 23.3516 324.042 23.0755 324.234 22.8359C324.427 22.5911 324.672 22.3958 324.969 22.25C325.271 22.1042 325.633 22.0312 326.055 22.0312C326.404 22.0312 326.711 22.0781 326.977 22.1719C327.247 22.2604 327.484 22.3828 327.688 22.5391C327.891 22.6901 328.062 22.8672 328.203 23.0703C328.349 23.2734 328.471 23.487 328.57 23.7109C328.669 23.9297 328.75 24.1536 328.812 24.3828C328.88 24.6068 328.938 24.8203 328.984 25.0234C329.01 25.138 329.042 25.3021 329.078 25.5156C329.12 25.724 329.164 25.9661 329.211 26.2422C329.258 26.5182 329.307 26.8151 329.359 27.1328C329.411 27.4453 329.464 27.763 329.516 28.0859C329.568 28.4089 329.617 28.724 329.664 29.0312C329.716 29.3333 329.763 29.612 329.805 29.8672C329.846 30.1172 329.88 30.3333 329.906 30.5156C329.938 30.6927 329.961 30.8151 329.977 30.8828C330.008 31.0443 330.042 31.2083 330.078 31.375C330.12 31.5417 330.169 31.6953 330.227 31.8359C330.289 31.9714 330.365 32.0833 330.453 32.1719C330.542 32.2604 330.654 32.3047 330.789 32.3047C330.867 32.3047 330.935 32.2865 330.992 32.25C331.049 32.2135 331.094 32.1641 331.125 32.1016C331.161 32.0391 331.188 31.9688 331.203 31.8906C331.219 31.8125 331.227 31.7318 331.227 31.6484C331.227 31.5495 331.224 31.4505 331.219 31.3516C331.214 31.2474 331.211 31.1589 331.211 31.0859C331.211 31.0078 331.221 30.9401 331.242 30.8828C331.263 30.8255 331.305 30.7969 331.367 30.7969C331.424 30.7969 331.469 30.8307 331.5 30.8984C331.536 30.9609 331.562 31.0365 331.578 31.125C331.599 31.2083 331.612 31.2943 331.617 31.3828C331.622 31.4661 331.625 31.5286 331.625 31.5703C331.625 31.7526 331.609 31.9583 331.578 32.1875C331.547 32.4167 331.482 32.638 331.383 32.8516C331.289 33.0703 331.133 33.25 330.914 33.3906C330.695 33.5312 330.443 33.6016 330.156 33.6016C329.906 33.6016 329.69 33.5651 329.508 33.4922C329.331 33.4193 329.177 33.3281 329.047 33.2188C328.922 33.1094 328.815 32.9922 328.727 32.8672C328.643 32.7422 328.576 32.625 328.523 32.5156C328.378 32.2344 328.266 31.9271 328.188 31.5938C328.115 31.2552 328.055 30.9323 328.008 30.625C327.93 30.7552 327.81 30.9167 327.648 31.1094C327.492 31.3021 327.297 31.487 327.062 31.6641C326.828 31.8411 326.557 31.9922 326.25 32.1172C325.943 32.2422 325.602 32.3047 325.227 32.3047C324.81 32.3047 324.453 32.2448 324.156 32.125C323.865 32.0104 323.625 31.8542 323.438 31.6562C323.25 31.4531 323.112 31.2188 323.023 30.9531C322.935 30.6823 322.891 30.3958 322.891 30.0938C322.891 29.7708 322.951 29.4453 323.07 29.1172C323.19 28.7891 323.385 28.4922 323.656 28.2266C323.932 27.9609 324.289 27.7448 324.727 27.5781C325.169 27.4115 325.708 27.3281 326.344 27.3281C326.49 27.3281 326.63 27.3359 326.766 27.3516C326.906 27.362 327.031 27.375 327.141 27.3906C327.255 27.4062 327.352 27.4219 327.43 27.4375C327.513 27.4531 327.573 27.4635 327.609 27.4688C327.578 27.0208 327.539 26.5729 327.492 26.125C327.471 25.9375 327.448 25.7396 327.422 25.5312C327.401 25.3229 327.378 25.1146 327.352 24.9062C327.326 24.6927 327.297 24.4844 327.266 24.2812C327.234 24.0781 327.201 23.888 327.164 23.7109C327.081 23.3099 326.917 22.9922 326.672 22.7578C326.432 22.5182 326.125 22.3984 325.75 22.3984C325.547 22.3984 325.367 22.4349 325.211 22.5078C325.06 22.5807 324.93 22.6745 324.82 22.7891C324.716 22.9036 324.638 23.0339 324.586 23.1797C324.534 23.3203 324.508 23.4609 324.508 23.6016C324.508 23.7526 324.544 23.8802 324.617 23.9844C324.69 24.0833 324.779 24.1719 324.883 24.25C324.992 24.3281 325.109 24.4036 325.234 24.4766C325.359 24.5443 325.474 24.625 325.578 24.7188C325.688 24.8073 325.779 24.9167 325.852 25.0469C325.924 25.1719 325.961 25.3307 325.961 25.5234C325.961 25.7786 325.872 25.9844 325.695 26.1406C325.523 26.2917 325.312 26.3672 325.062 26.3672ZM327.672 27.9531C327.635 27.9375 327.57 27.9193 327.477 27.8984C327.388 27.8724 327.281 27.849 327.156 27.8281C327.031 27.8021 326.896 27.7812 326.75 27.7656C326.609 27.75 326.469 27.7422 326.328 27.7422C326.052 27.7422 325.794 27.7812 325.555 27.8594C325.32 27.9375 325.117 28.0547 324.945 28.2109C324.773 28.362 324.638 28.5547 324.539 28.7891C324.44 29.0182 324.391 29.2839 324.391 29.5859C324.391 29.862 324.435 30.0911 324.523 30.2734C324.617 30.4505 324.734 30.5911 324.875 30.6953C325.021 30.7995 325.18 30.8724 325.352 30.9141C325.529 30.9557 325.701 30.9766 325.867 30.9766C326.133 30.9766 326.385 30.9349 326.625 30.8516C326.865 30.7682 327.076 30.6719 327.258 30.5625C327.44 30.4531 327.589 30.3464 327.703 30.2422C327.818 30.138 327.888 30.0677 327.914 30.0312C327.878 29.6823 327.844 29.3646 327.812 29.0781C327.797 28.9531 327.781 28.8307 327.766 28.7109C327.755 28.5911 327.742 28.4792 327.727 28.375C327.716 28.2708 327.706 28.1823 327.695 28.1094C327.685 28.0365 327.677 27.9844 327.672 27.9531ZM333.742 23.8438C333.742 23.9167 333.74 24.0339 333.734 24.1953C333.729 24.3568 333.727 24.5469 333.727 24.7656C333.727 24.8906 333.727 24.9896 333.727 25.0625C333.732 25.1354 333.734 25.2057 333.734 25.2734C333.734 25.3411 333.734 25.4193 333.734 25.5078C333.74 25.5964 333.742 25.7188 333.742 25.875C333.909 25.6458 334.102 25.4401 334.32 25.2578C334.414 25.1797 334.518 25.1042 334.633 25.0312C334.747 24.9583 334.872 24.8932 335.008 24.8359C335.148 24.7786 335.294 24.7318 335.445 24.6953C335.602 24.6589 335.766 24.6406 335.938 24.6406C336.312 24.6406 336.646 24.7083 336.938 24.8438C337.229 24.9792 337.474 25.1693 337.672 25.4141C337.875 25.6536 338.029 25.9427 338.133 26.2812C338.237 26.6146 338.289 26.9844 338.289 27.3906C338.289 28 338.208 28.5469 338.047 29.0312C337.885 29.5156 337.667 29.9297 337.391 30.2734C337.115 30.612 336.792 30.8724 336.422 31.0547C336.052 31.237 335.656 31.3281 335.234 31.3281C335.083 31.3281 334.94 31.3151 334.805 31.2891C334.674 31.263 334.552 31.2292 334.438 31.1875C334.323 31.1458 334.216 31.1016 334.117 31.0547C334.023 31.0026 333.94 30.9557 333.867 30.9141C333.862 31.1276 333.857 31.3177 333.852 31.4844C333.852 31.6458 333.852 31.8047 333.852 31.9609C333.852 32.1172 333.852 32.2786 333.852 32.4453C333.852 32.612 333.852 32.8047 333.852 33.0234C333.852 33.3776 333.854 33.7682 333.859 34.1953C333.87 34.6224 333.888 35.0391 333.914 35.4453C333.945 35.8568 333.987 36.2318 334.039 36.5703C334.091 36.9089 334.164 37.1615 334.258 37.3281C334.346 37.4896 334.456 37.6172 334.586 37.7109C334.716 37.8047 334.846 37.8802 334.977 37.9375C335.138 38.0104 335.279 38.0833 335.398 38.1562C335.523 38.2292 335.586 38.3047 335.586 38.3828C335.586 38.4401 335.568 38.487 335.531 38.5234C335.495 38.5599 335.432 38.5781 335.344 38.5781C335.203 38.5781 335.005 38.5547 334.75 38.5078C334.5 38.4661 334.227 38.4193 333.93 38.3672C333.638 38.3151 333.346 38.2656 333.055 38.2188C332.763 38.1771 332.508 38.1562 332.289 38.1562C332.055 38.1562 331.859 38.1641 331.703 38.1797C331.547 38.2005 331.383 38.2109 331.211 38.2109C330.982 38.2109 330.826 38.1953 330.742 38.1641C330.664 38.138 330.625 38.1042 330.625 38.0625C330.625 38.0156 330.651 37.9844 330.703 37.9688C330.755 37.9531 330.826 37.9375 330.914 37.9219C331.003 37.9062 331.102 37.8802 331.211 37.8438C331.32 37.8125 331.435 37.7578 331.555 37.6797C331.68 37.5911 331.779 37.4792 331.852 37.3438C331.93 37.2135 331.99 37.0677 332.031 36.9062C332.073 36.7448 332.102 36.5755 332.117 36.3984C332.133 36.2266 332.146 36.0573 332.156 35.8906C332.167 35.7604 332.177 35.5599 332.188 35.2891C332.198 35.0234 332.208 34.7109 332.219 34.3516C332.229 33.9974 332.24 33.6094 332.25 33.1875C332.266 32.7656 332.279 32.3307 332.289 31.8828C332.299 31.4349 332.31 30.9896 332.32 30.5469C332.331 30.099 332.339 29.6745 332.344 29.2734C332.349 28.8724 332.354 28.5052 332.359 28.1719C332.365 27.8333 332.367 27.5521 332.367 27.3281C332.367 26.9948 332.357 26.7214 332.336 26.5078C332.32 26.2891 332.292 26.1172 332.25 25.9922C332.208 25.862 332.154 25.7734 332.086 25.7266C332.018 25.6745 331.935 25.6484 331.836 25.6484C331.758 25.6484 331.674 25.6641 331.586 25.6953C331.503 25.7266 331.417 25.7604 331.328 25.7969C331.245 25.8281 331.167 25.8594 331.094 25.8906C331.021 25.9219 330.961 25.9375 330.914 25.9375C330.826 25.9375 330.781 25.8932 330.781 25.8047C330.781 25.7734 330.797 25.737 330.828 25.6953C330.859 25.6536 330.94 25.6016 331.07 25.5391C331.154 25.4922 331.253 25.4453 331.367 25.3984C331.482 25.3464 331.604 25.2891 331.734 25.2266C331.87 25.1589 332.008 25.0807 332.148 24.9922C332.294 24.8984 332.438 24.7865 332.578 24.6562C332.766 24.4844 332.917 24.3307 333.031 24.1953C333.151 24.0599 333.247 23.9479 333.32 23.8594C333.398 23.7656 333.458 23.6953 333.5 23.6484C333.547 23.5964 333.591 23.5703 333.633 23.5703C333.68 23.5703 333.708 23.599 333.719 23.6562C333.734 23.7083 333.742 23.7708 333.742 23.8438ZM335.18 25.4062C334.956 25.4062 334.76 25.4583 334.594 25.5625C334.432 25.6667 334.294 25.8047 334.18 25.9766C334.065 26.1484 333.971 26.3438 333.898 26.5625C333.831 26.7812 333.776 27.0078 333.734 27.2422C333.693 27.4714 333.664 27.6979 333.648 27.9219C333.638 28.1406 333.633 28.3385 333.633 28.5156C333.633 28.7917 333.651 29.0703 333.688 29.3516C333.729 29.6276 333.799 29.8776 333.898 30.1016C334.003 30.3203 334.143 30.5 334.32 30.6406C334.497 30.7812 334.721 30.8516 334.992 30.8516C335.206 30.8516 335.409 30.7969 335.602 30.6875C335.799 30.5781 335.971 30.4036 336.117 30.1641C336.268 29.9193 336.388 29.6016 336.477 29.2109C336.565 28.8151 336.609 28.3359 336.609 27.7734C336.609 27.4297 336.583 27.1146 336.531 26.8281C336.479 26.5365 336.396 26.2865 336.281 26.0781C336.167 25.8646 336.018 25.7005 335.836 25.5859C335.654 25.4661 335.435 25.4062 335.18 25.4062Z" fill="white"/>
</svg>
