<svg width="600" height="750" viewBox="0 0 600 750" fill="none" xmlns="http://www.w3.org/2000/svg">
<rect width="600" height="750" fill="#1E1E1E"/>
<rect id="bg" width="600" height="750" fill="#D9D9D9"/>
<rect id="slot1" x="100" y="100" width="400" height="400" fill="#CCCCCC" rx="12"/>
<path d="M31 47H571V587H31V47Z" fill="#747373"/>
<path d="M226.16 642.104C226.793 642.104 227.35 642.162 227.83 642.279C228.311 642.396 228.732 642.531 229.096 642.684C229.471 642.824 229.793 642.953 230.062 643.07C230.344 643.188 230.59 643.246 230.801 643.246C230.953 643.246 231.082 643.182 231.188 643.053C231.293 642.924 231.387 642.766 231.469 642.578C231.551 642.391 231.621 642.186 231.68 641.963C231.738 641.74 231.797 641.535 231.855 641.348C231.926 641.078 232.002 640.85 232.084 640.662C232.178 640.463 232.307 640.363 232.471 640.363C232.658 640.363 232.752 640.533 232.752 640.873C232.752 641.061 232.729 641.271 232.682 641.506C232.646 641.74 232.594 642.021 232.523 642.35C232.465 642.666 232.395 643.041 232.312 643.475C232.242 643.896 232.172 644.389 232.102 644.951C232.008 645.643 231.943 646.258 231.908 646.797C231.885 647.324 231.861 647.77 231.838 648.133C231.814 648.484 231.779 648.754 231.732 648.941C231.697 649.129 231.627 649.223 231.521 649.223C231.439 649.223 231.375 649.182 231.328 649.1C231.281 649.006 231.24 648.895 231.205 648.766C231.17 648.637 231.141 648.508 231.117 648.379C231.094 648.25 231.076 648.139 231.064 648.045C231.006 647.74 230.93 647.406 230.836 647.043C230.754 646.668 230.637 646.293 230.484 645.918C230.332 645.531 230.145 645.156 229.922 644.793C229.699 644.43 229.418 644.107 229.078 643.826C228.75 643.545 228.357 643.322 227.9 643.158C227.443 642.982 226.91 642.895 226.301 642.895C225.199 642.895 224.344 643.223 223.734 643.879C223.125 644.535 222.82 645.502 222.82 646.779C222.82 647.424 222.973 648.08 223.277 648.748C223.594 649.404 224.004 650.084 224.508 650.787C225.023 651.49 225.604 652.211 226.248 652.949C226.893 653.688 227.555 654.449 228.234 655.234C228.914 656.02 229.576 656.828 230.221 657.66C230.865 658.492 231.439 659.354 231.943 660.244C232.459 661.135 232.869 662.061 233.174 663.021C233.49 663.971 233.648 664.955 233.648 665.975C233.648 667.381 233.42 668.605 232.963 669.648C232.506 670.68 231.891 671.535 231.117 672.215C230.344 672.906 229.447 673.416 228.428 673.744C227.408 674.084 226.342 674.254 225.229 674.254C224.361 674.254 223.6 674.148 222.943 673.938C222.299 673.738 221.713 673.516 221.186 673.27C220.67 673.035 220.195 672.812 219.762 672.602C219.34 672.402 218.918 672.303 218.496 672.303C218.168 672.303 217.863 672.402 217.582 672.602C217.312 672.801 217.061 673.018 216.826 673.252C216.604 673.498 216.404 673.721 216.229 673.92C216.064 674.119 215.93 674.219 215.824 674.219C215.73 674.219 215.672 674.184 215.648 674.113C215.625 674.055 215.613 673.979 215.613 673.885C215.613 673.791 215.631 673.633 215.666 673.41C215.701 673.199 215.736 672.941 215.771 672.637C215.818 672.332 215.859 671.986 215.895 671.6C215.93 671.213 215.947 670.797 215.947 670.352C215.947 669.555 215.871 668.74 215.719 667.908C215.566 667.064 215.396 666.273 215.209 665.535C215.021 664.797 214.852 664.146 214.699 663.584C214.547 663.021 214.471 662.617 214.471 662.371C214.471 662.266 214.494 662.166 214.541 662.072C214.576 661.979 214.658 661.932 214.787 661.932C214.963 661.932 215.127 662.061 215.279 662.318C215.432 662.564 215.59 662.893 215.754 663.303C215.859 663.584 215.994 663.93 216.158 664.34C216.334 664.75 216.527 665.195 216.738 665.676C216.949 666.145 217.178 666.637 217.424 667.152C217.682 667.668 217.957 668.172 218.25 668.664C218.754 669.531 219.281 670.252 219.832 670.826C220.383 671.4 220.945 671.857 221.52 672.197C222.105 672.549 222.697 672.795 223.295 672.936C223.893 673.088 224.49 673.164 225.088 673.164C225.803 673.164 226.418 673.029 226.934 672.76C227.461 672.49 227.895 672.139 228.234 671.705C228.574 671.271 228.82 670.785 228.973 670.246C229.137 669.707 229.219 669.168 229.219 668.629C229.219 667.562 229.072 666.566 228.779 665.641C228.498 664.703 228.123 663.812 227.654 662.969C227.197 662.113 226.67 661.293 226.072 660.508C225.475 659.723 224.859 658.955 224.227 658.205C223.605 657.455 222.996 656.711 222.398 655.973C221.801 655.234 221.268 654.484 220.799 653.723C220.342 652.949 219.967 652.158 219.674 651.35C219.393 650.529 219.252 649.668 219.252 648.766C219.252 647.887 219.363 647.113 219.586 646.445C219.809 645.777 220.102 645.197 220.465 644.705C220.84 644.213 221.262 643.803 221.73 643.475C222.211 643.135 222.703 642.865 223.207 642.666C223.723 642.467 224.232 642.326 224.736 642.244C225.252 642.15 225.727 642.104 226.16 642.104ZM238.992 641.805C239.684 641.805 240.234 641.986 240.645 642.35C241.055 642.713 241.26 643.229 241.26 643.896C241.26 644.342 241.189 644.717 241.049 645.021C240.908 645.314 240.727 645.555 240.504 645.742C240.281 645.918 240.035 646.047 239.766 646.129C239.508 646.199 239.25 646.234 238.992 646.234C238.77 646.234 238.535 646.199 238.289 646.129C238.043 646.059 237.814 645.941 237.604 645.777C237.393 645.602 237.217 645.379 237.076 645.109C236.947 644.828 236.883 644.482 236.883 644.072C236.883 643.639 236.953 643.281 237.094 643C237.234 642.707 237.41 642.473 237.621 642.297C237.832 642.121 238.061 641.998 238.307 641.928C238.553 641.846 238.781 641.805 238.992 641.805ZM241.488 647.57C241.605 647.57 241.664 647.705 241.664 647.975C241.664 648.15 241.641 648.443 241.594 648.854C241.559 649.252 241.512 649.68 241.453 650.137C241.359 650.863 241.266 651.672 241.172 652.562C241.078 653.441 240.984 654.35 240.891 655.287C240.809 656.213 240.727 657.133 240.645 658.047C240.574 658.961 240.51 659.811 240.451 660.596C240.393 661.369 240.346 662.055 240.311 662.652C240.275 663.238 240.258 663.672 240.258 663.953C240.258 664.316 240.281 664.615 240.328 664.85C240.375 665.084 240.434 665.277 240.504 665.43C240.574 665.582 240.65 665.705 240.732 665.799C240.826 665.893 240.92 665.975 241.014 666.045C241.119 666.115 241.248 666.18 241.4 666.238C241.553 666.297 241.717 666.355 241.893 666.414C242.068 666.461 242.244 666.502 242.42 666.537C242.607 666.572 242.777 666.596 242.93 666.607C243.176 666.654 243.375 666.689 243.527 666.713C243.68 666.736 243.756 666.812 243.756 666.941C243.756 667.176 243.504 667.293 243 667.293C242.648 667.293 242.297 667.27 241.945 667.223C241.594 667.164 241.23 667.1 240.855 667.029C240.492 666.959 240.111 666.9 239.713 666.854C239.314 666.795 238.887 666.766 238.43 666.766C238.008 666.766 237.627 666.777 237.287 666.801C236.947 666.824 236.637 666.854 236.355 666.889C236.074 666.924 235.811 666.953 235.564 666.977C235.318 667 235.072 667.012 234.826 667.012C234.627 667.012 234.445 666.988 234.281 666.941C234.117 666.883 234.035 666.771 234.035 666.607C234.035 666.443 234.123 666.332 234.299 666.273C234.486 666.203 234.674 666.15 234.861 666.115C235.096 666.068 235.324 666.016 235.547 665.957C235.77 665.898 235.969 665.811 236.145 665.693C236.332 665.564 236.484 665.4 236.602 665.201C236.73 664.99 236.812 664.721 236.848 664.393C236.895 663.748 236.93 663.092 236.953 662.424C236.977 661.756 236.994 661.1 237.006 660.455C237.018 659.799 237.023 659.166 237.023 658.557C237.023 657.936 237.023 657.355 237.023 656.816C237.023 656.172 237.023 655.586 237.023 655.059C237.023 654.52 237.012 654.062 236.988 653.688C236.965 653.09 236.895 652.621 236.777 652.281C236.672 651.941 236.514 651.689 236.303 651.525C236.104 651.361 235.846 651.256 235.529 651.209C235.213 651.15 234.832 651.104 234.387 651.068C234.258 651.045 234.152 651.004 234.07 650.945C234 650.887 233.965 650.793 233.965 650.664C233.965 650.441 234.141 650.312 234.492 650.277C234.668 650.266 234.891 650.248 235.16 650.225C235.43 650.189 235.74 650.143 236.092 650.084C236.455 650.025 236.848 649.943 237.27 649.838C237.691 649.721 238.137 649.562 238.605 649.363C239.121 649.152 239.543 648.941 239.871 648.73C240.211 648.52 240.486 648.332 240.697 648.168C240.908 647.992 241.072 647.852 241.189 647.746C241.307 647.629 241.406 647.57 241.488 647.57ZM249.416 647.359C249.51 647.359 249.604 647.512 249.697 647.816C249.791 648.109 249.885 648.496 249.979 648.977C250.072 649.457 250.166 650.014 250.26 650.646C250.354 651.268 250.447 651.9 250.541 652.545L251.174 656.975C251.232 656.588 251.332 656.143 251.473 655.639C251.625 655.135 251.824 654.613 252.07 654.074C252.316 653.535 252.615 653.008 252.967 652.492C253.318 651.977 253.723 651.514 254.18 651.104C254.648 650.693 255.17 650.365 255.744 650.119C256.33 649.861 256.98 649.732 257.695 649.732C258.574 649.732 259.336 649.902 259.98 650.242C260.625 650.57 261.158 651.033 261.58 651.631C262.002 652.217 262.312 652.92 262.512 653.74C262.711 654.561 262.811 655.457 262.811 656.43C262.811 657.309 262.758 658.193 262.652 659.084C262.559 659.963 262.453 660.83 262.336 661.686C262.23 662.541 262.125 663.367 262.02 664.164C261.926 664.961 261.879 665.705 261.879 666.396C261.879 666.807 261.914 667.164 261.984 667.469C262.055 667.773 262.16 668.055 262.301 668.312C262.465 668.559 262.664 668.775 262.898 668.963C263.145 669.139 263.373 669.309 263.584 669.473C263.807 669.625 263.994 669.783 264.146 669.947C264.311 670.1 264.393 670.264 264.393 670.439C264.393 670.545 264.363 670.633 264.305 670.703C264.246 670.785 264.146 670.826 264.006 670.826C263.795 670.826 263.561 670.744 263.303 670.58C263.057 670.428 262.746 670.234 262.371 670C262.008 669.754 261.568 669.496 261.053 669.227C260.537 668.945 259.91 668.688 259.172 668.453C258.621 668.266 258.064 668.119 257.502 668.014C256.951 667.908 256.307 667.838 255.568 667.803C255.158 667.768 254.953 667.65 254.953 667.451C254.953 667.229 255.088 667.117 255.357 667.117C255.521 667.117 255.75 667.117 256.043 667.117C256.336 667.117 256.635 667.105 256.939 667.082C257.408 667.047 257.795 666.906 258.1 666.66C258.404 666.402 258.633 665.934 258.785 665.254C258.832 664.984 258.879 664.645 258.926 664.234C258.973 663.812 259.014 663.367 259.049 662.898C259.084 662.418 259.113 661.932 259.137 661.439C259.16 660.947 259.172 660.479 259.172 660.033C259.172 659.635 259.166 659.178 259.154 658.662C259.143 658.135 259.102 657.59 259.031 657.027C258.973 656.465 258.873 655.914 258.732 655.375C258.604 654.836 258.41 654.355 258.152 653.934C257.895 653.512 257.566 653.172 257.168 652.914C256.77 652.645 256.283 652.51 255.709 652.51C255.217 652.51 254.766 652.633 254.355 652.879C253.957 653.125 253.6 653.471 253.283 653.916C252.967 654.35 252.697 654.865 252.475 655.463C252.252 656.061 252.082 656.717 251.965 657.432C251.836 658.158 251.748 658.908 251.701 659.682C251.666 660.443 251.648 661.205 251.648 661.967C251.648 662.611 251.672 663.232 251.719 663.83C251.766 664.416 251.83 664.961 251.912 665.465C251.994 665.957 252.094 666.396 252.211 666.783C252.328 667.17 252.463 667.475 252.615 667.697C252.838 668.002 253.078 668.23 253.336 668.383C253.594 668.535 253.811 668.641 253.986 668.699C254.221 668.77 254.385 668.834 254.479 668.893C254.584 668.939 254.637 669.01 254.637 669.104C254.637 669.174 254.578 669.238 254.461 669.297C254.355 669.355 254.174 669.385 253.916 669.385C253.67 669.385 253.4 669.367 253.107 669.332C252.814 669.285 252.51 669.238 252.193 669.191C251.877 669.145 251.549 669.104 251.209 669.068C250.869 669.021 250.535 668.998 250.207 668.998C249.879 668.998 249.545 669.01 249.205 669.033C248.865 669.057 248.537 669.08 248.221 669.104C247.916 669.127 247.635 669.15 247.377 669.174C247.119 669.197 246.914 669.209 246.762 669.209C246.305 669.209 246.076 669.062 246.076 668.77C246.076 668.664 246.111 668.576 246.182 668.506C246.264 668.424 246.404 668.371 246.604 668.348C246.768 668.336 246.914 668.324 247.043 668.312C247.172 668.301 247.301 668.295 247.43 668.295C247.57 668.283 247.711 668.271 247.852 668.26C248.004 668.248 248.18 668.23 248.379 668.207C248.754 668.148 249.006 668.014 249.135 667.803C249.275 667.58 249.346 667.281 249.346 666.906C249.346 666.262 249.287 665.477 249.17 664.551C249.064 663.625 248.918 662.605 248.73 661.492C248.543 660.379 248.314 659.201 248.045 657.959C247.787 656.705 247.512 655.428 247.219 654.127C247.078 653.459 246.914 652.961 246.727 652.633C246.551 652.305 246.293 652.141 245.953 652.141C245.777 652.141 245.596 652.176 245.408 652.246C245.221 652.305 245.033 652.375 244.846 652.457C244.67 652.527 244.5 652.598 244.336 652.668C244.172 652.727 244.02 652.756 243.879 652.756C243.656 652.756 243.545 652.662 243.545 652.475C243.545 652.322 243.604 652.217 243.721 652.158C243.85 652.088 243.984 652.023 244.125 651.965C244.453 651.836 244.805 651.672 245.18 651.473C245.566 651.273 245.982 651.004 246.428 650.664C246.861 650.324 247.248 649.961 247.588 649.574C247.928 649.188 248.221 648.83 248.467 648.502C248.713 648.174 248.912 647.904 249.064 647.693C249.217 647.471 249.334 647.359 249.416 647.359ZM281.918 648.66C282.516 648.66 283.055 648.754 283.535 648.941C284.016 649.117 284.426 649.363 284.766 649.68C285.105 649.996 285.363 650.365 285.539 650.787C285.727 651.209 285.82 651.66 285.82 652.141C285.82 653.09 285.592 653.828 285.135 654.355C284.689 654.871 284.086 655.129 283.324 655.129C283.008 655.129 282.715 655.082 282.445 654.988C282.176 654.895 281.941 654.754 281.742 654.566C281.543 654.379 281.385 654.15 281.268 653.881C281.15 653.611 281.092 653.307 281.092 652.967C281.092 652.592 281.139 652.258 281.232 651.965C281.338 651.66 281.391 651.361 281.391 651.068C281.391 650.67 281.273 650.395 281.039 650.242C280.805 650.09 280.535 650.014 280.23 650.014C279.832 650.014 279.428 650.148 279.018 650.418C278.619 650.688 278.291 651.045 278.033 651.49C277.928 651.689 277.834 651.9 277.752 652.123C277.682 652.334 277.646 652.521 277.646 652.686C277.646 652.779 277.699 652.885 277.805 653.002C277.91 653.107 278.045 653.23 278.209 653.371C278.385 653.512 278.578 653.676 278.789 653.863C279.012 654.039 279.229 654.244 279.439 654.479C279.814 654.889 280.154 655.404 280.459 656.025C280.764 656.646 280.916 657.379 280.916 658.223C280.916 659.16 280.811 659.98 280.6 660.684C280.389 661.375 280.096 661.979 279.721 662.494C279.357 662.998 278.93 663.42 278.438 663.76C277.945 664.088 277.412 664.352 276.838 664.551C276.275 664.75 275.684 664.891 275.062 664.973C274.453 665.055 273.85 665.096 273.252 665.096H272.566C271.805 665.225 271.184 665.465 270.703 665.816C270.234 666.168 270 666.625 270 667.188C270 667.551 270.117 667.855 270.352 668.102C270.586 668.348 270.896 668.559 271.283 668.734C271.682 668.898 272.139 669.033 272.654 669.139C273.17 669.232 273.703 669.32 274.254 669.402C274.816 669.473 275.373 669.543 275.924 669.613C276.486 669.684 277.008 669.766 277.488 669.859C278.297 670.023 279.076 670.24 279.826 670.51C280.588 670.779 281.256 671.137 281.83 671.582C282.416 672.039 282.885 672.607 283.236 673.287C283.588 673.967 283.764 674.793 283.764 675.766C283.764 676.527 283.635 677.236 283.377 677.893C283.119 678.561 282.762 679.17 282.305 679.721C281.848 680.283 281.309 680.793 280.688 681.25C280.066 681.707 279.398 682.1 278.684 682.428C277.746 682.861 276.721 683.189 275.607 683.412C274.494 683.635 273.334 683.746 272.127 683.746C271.002 683.746 269.947 683.623 268.963 683.377C267.979 683.131 267.117 682.75 266.379 682.234C265.652 681.73 265.078 681.092 264.656 680.318C264.234 679.545 264.023 678.637 264.023 677.594C264.023 676.738 264.164 675.965 264.445 675.273C264.727 674.582 265.084 673.961 265.518 673.41C265.963 672.871 266.455 672.396 266.994 671.986C267.545 671.576 268.078 671.225 268.594 670.932C269.121 670.639 269.607 670.398 270.053 670.211C270.498 670.023 270.844 669.883 271.09 669.789C270.68 669.742 270.264 669.66 269.842 669.543C269.432 669.426 269.057 669.268 268.717 669.068C268.389 668.869 268.119 668.617 267.908 668.312C267.697 667.996 267.592 667.621 267.592 667.188C267.592 666.613 267.838 666.127 268.33 665.729C268.834 665.318 269.537 665.002 270.439 664.779C269.771 664.604 269.15 664.352 268.576 664.023C268.002 663.684 267.504 663.268 267.082 662.775C266.66 662.283 266.326 661.703 266.08 661.035C265.846 660.367 265.729 659.611 265.729 658.768C265.729 657.725 265.91 656.793 266.273 655.973C266.648 655.152 267.152 654.461 267.785 653.898C268.418 653.324 269.162 652.891 270.018 652.598C270.873 652.293 271.793 652.141 272.777 652.141C273.07 652.141 273.369 652.158 273.674 652.193C273.979 652.217 274.266 652.252 274.535 652.299C274.805 652.334 275.051 652.369 275.273 652.404C275.508 652.428 275.695 652.439 275.836 652.439C276.129 652.439 276.369 652.398 276.557 652.316C276.756 652.234 276.938 652.059 277.102 651.789C277.336 651.414 277.594 651.039 277.875 650.664C278.156 650.289 278.484 649.955 278.859 649.662C279.234 649.357 279.668 649.117 280.16 648.941C280.664 648.754 281.25 648.66 281.918 648.66ZM274.008 653.195C273.562 653.195 273.117 653.301 272.672 653.512C272.238 653.711 271.846 654.051 271.494 654.531C271.154 655 270.873 655.615 270.65 656.377C270.439 657.139 270.334 658.07 270.334 659.172C270.334 660.074 270.428 660.848 270.615 661.492C270.814 662.125 271.066 662.652 271.371 663.074C271.688 663.484 272.039 663.789 272.426 663.988C272.812 664.176 273.193 664.27 273.568 664.27C273.896 664.27 274.271 664.193 274.693 664.041C275.115 663.877 275.514 663.572 275.889 663.127C276.264 662.682 276.58 662.066 276.838 661.281C277.107 660.496 277.242 659.477 277.242 658.223C277.242 656.559 276.949 655.305 276.363 654.461C275.789 653.617 275.004 653.195 274.008 653.195ZM268.488 676.486C268.488 677.342 268.611 678.139 268.857 678.877C269.115 679.627 269.49 680.277 269.982 680.828C270.475 681.391 271.078 681.83 271.793 682.146C272.508 682.475 273.328 682.639 274.254 682.639C275.309 682.639 276.217 682.469 276.979 682.129C277.74 681.801 278.367 681.361 278.859 680.811C279.352 680.271 279.715 679.645 279.949 678.93C280.184 678.227 280.301 677.494 280.301 676.732C280.301 675.994 280.207 675.297 280.02 674.641C279.832 673.996 279.545 673.41 279.158 672.883C278.771 672.355 278.273 671.893 277.664 671.494C277.055 671.107 276.328 670.803 275.484 670.58C274.934 670.428 274.406 670.311 273.902 670.229C273.398 670.158 272.941 670.105 272.531 670.07C272.121 670.316 271.676 670.633 271.195 671.02C270.727 671.418 270.287 671.881 269.877 672.408C269.479 672.947 269.145 673.557 268.875 674.236C268.617 674.916 268.488 675.666 268.488 676.486ZM296.631 638.605C297.381 638.605 298.025 638.711 298.564 638.922C299.104 639.133 299.549 639.42 299.9 639.783C300.252 640.146 300.51 640.562 300.674 641.031C300.85 641.5 300.938 641.986 300.938 642.49C300.938 643.486 300.732 644.436 300.322 645.338C299.912 646.24 299.385 647.125 298.74 647.992C298.096 648.859 297.381 649.721 296.596 650.576C295.822 651.432 295.066 652.316 294.328 653.23C294.797 654.215 295.289 655.158 295.805 656.061C296.32 656.951 296.812 657.76 297.281 658.486C297.762 659.213 298.195 659.846 298.582 660.385C298.98 660.924 299.285 661.334 299.496 661.615C299.672 661.85 299.895 662.125 300.164 662.441C300.434 662.758 300.738 663.104 301.078 663.479C301.418 663.842 301.787 664.223 302.186 664.621C302.596 665.008 303.012 665.395 303.434 665.781C303.938 665.207 304.377 664.598 304.752 663.953C305.127 663.297 305.438 662.641 305.684 661.984C305.93 661.328 306.111 660.684 306.229 660.051C306.357 659.406 306.422 658.809 306.422 658.258C306.422 657.109 306.252 656.295 305.912 655.814C305.572 655.334 305.139 655.094 304.611 655.094C304.236 655.094 303.791 655.152 303.275 655.27C302.76 655.375 302.232 655.492 301.693 655.621C301.166 655.75 300.662 655.873 300.182 655.99C299.701 656.096 299.309 656.148 299.004 656.148C298.816 656.148 298.664 656.119 298.547 656.061C298.441 656.002 298.389 655.908 298.389 655.779C298.389 655.627 298.494 655.516 298.705 655.445C298.928 655.363 299.256 655.27 299.689 655.164C300.123 655.047 300.662 654.883 301.307 654.672C301.963 654.461 302.73 654.145 303.609 653.723C304.336 653.371 304.951 653.002 305.455 652.615C305.959 652.217 306.381 651.854 306.721 651.525C307.061 651.186 307.336 650.904 307.547 650.682C307.758 650.459 307.934 650.348 308.074 650.348C308.203 650.348 308.314 650.43 308.408 650.594C308.514 650.758 308.602 650.98 308.672 651.262C308.742 651.531 308.795 651.854 308.83 652.229C308.877 652.592 308.9 652.973 308.9 653.371C308.9 654.59 308.807 655.809 308.619 657.027C308.432 658.246 308.15 659.43 307.775 660.578C307.4 661.715 306.926 662.799 306.352 663.83C305.789 664.85 305.127 665.775 304.365 666.607C304.764 666.947 305.156 667.264 305.543 667.557C305.941 667.838 306.328 668.084 306.703 668.295C307.078 668.506 307.436 668.67 307.775 668.787C308.127 668.904 308.455 668.963 308.76 668.963C309.018 668.963 309.258 668.887 309.48 668.734C309.715 668.57 309.932 668.365 310.131 668.119C310.33 667.873 310.512 667.615 310.676 667.346C310.852 667.064 311.01 666.801 311.15 666.555C311.291 666.309 311.42 666.109 311.537 665.957C311.654 665.793 311.76 665.711 311.854 665.711C311.971 665.711 312.029 665.811 312.029 666.01C312.029 666.186 311.947 666.496 311.783 666.941C311.631 667.387 311.426 667.891 311.168 668.453C310.922 669.004 310.635 669.578 310.307 670.176C309.979 670.785 309.645 671.342 309.305 671.846C308.977 672.35 308.654 672.76 308.338 673.076C308.033 673.404 307.764 673.568 307.529 673.568C307.318 673.568 307.02 673.486 306.633 673.322C306.246 673.17 305.783 672.918 305.244 672.566C304.705 672.215 304.096 671.752 303.416 671.178C302.748 670.604 302.021 669.9 301.236 669.068C300.404 669.514 299.502 669.865 298.529 670.123C297.568 670.381 296.525 670.51 295.4 670.51C294.029 670.51 292.77 670.328 291.621 669.965C290.484 669.602 289.506 669.062 288.686 668.348C287.865 667.633 287.227 666.742 286.77 665.676C286.312 664.609 286.084 663.373 286.084 661.967C286.084 661.018 286.207 660.115 286.453 659.26C286.699 658.404 287.033 657.584 287.455 656.799C287.877 656.014 288.369 655.258 288.932 654.531C289.506 653.805 290.115 653.107 290.76 652.439C290.115 650.365 289.793 648.273 289.793 646.164C289.793 644.957 289.963 643.885 290.303 642.947C290.654 641.998 291.135 641.207 291.744 640.574C292.354 639.93 293.074 639.443 293.906 639.115C294.75 638.775 295.658 638.605 296.631 638.605ZM297.668 664.885C295.371 661.873 293.561 658.961 292.236 656.148C291.768 656.98 291.393 657.842 291.111 658.732C290.83 659.611 290.689 660.549 290.689 661.545C290.689 662.6 290.824 663.59 291.094 664.516C291.375 665.43 291.779 666.227 292.307 666.906C292.846 667.574 293.502 668.102 294.275 668.488C295.049 668.875 295.928 669.068 296.912 669.068C297.568 669.068 298.189 668.992 298.775 668.84C299.361 668.688 299.918 668.488 300.445 668.242C300.035 667.75 299.584 667.234 299.092 666.695C298.611 666.145 298.137 665.541 297.668 664.885ZM292.025 644.582C292.025 645.508 292.113 646.434 292.289 647.359C292.477 648.285 292.734 649.223 293.062 650.172C293.812 649.457 294.527 648.748 295.207 648.045C295.887 647.33 296.479 646.627 296.982 645.936C297.486 645.232 297.885 644.535 298.178 643.844C298.482 643.141 298.635 642.438 298.635 641.734C298.635 640.996 298.43 640.393 298.02 639.924C297.609 639.455 297 639.221 296.191 639.221C295.676 639.221 295.166 639.32 294.662 639.52C294.17 639.707 293.725 640.012 293.326 640.434C292.939 640.855 292.623 641.406 292.377 642.086C292.143 642.766 292.025 643.598 292.025 644.582ZM324.141 642.104C324.773 642.104 325.33 642.162 325.811 642.279C326.291 642.396 326.713 642.531 327.076 642.684C327.451 642.824 327.773 642.953 328.043 643.07C328.324 643.188 328.57 643.246 328.781 643.246C328.934 643.246 329.062 643.182 329.168 643.053C329.273 642.924 329.367 642.766 329.449 642.578C329.531 642.391 329.602 642.186 329.66 641.963C329.719 641.74 329.777 641.535 329.836 641.348C329.906 641.078 329.982 640.85 330.064 640.662C330.158 640.463 330.287 640.363 330.451 640.363C330.639 640.363 330.732 640.533 330.732 640.873C330.732 641.061 330.709 641.271 330.662 641.506C330.627 641.74 330.574 642.021 330.504 642.35C330.445 642.666 330.375 643.041 330.293 643.475C330.223 643.896 330.152 644.389 330.082 644.951C329.988 645.643 329.924 646.258 329.889 646.797C329.865 647.324 329.842 647.77 329.818 648.133C329.795 648.484 329.76 648.754 329.713 648.941C329.678 649.129 329.607 649.223 329.502 649.223C329.42 649.223 329.355 649.182 329.309 649.1C329.262 649.006 329.221 648.895 329.186 648.766C329.15 648.637 329.121 648.508 329.098 648.379C329.074 648.25 329.057 648.139 329.045 648.045C328.986 647.74 328.91 647.406 328.816 647.043C328.734 646.668 328.617 646.293 328.465 645.918C328.312 645.531 328.125 645.156 327.902 644.793C327.68 644.43 327.398 644.107 327.059 643.826C326.73 643.545 326.338 643.322 325.881 643.158C325.424 642.982 324.891 642.895 324.281 642.895C323.18 642.895 322.324 643.223 321.715 643.879C321.105 644.535 320.801 645.502 320.801 646.779C320.801 647.424 320.953 648.08 321.258 648.748C321.574 649.404 321.984 650.084 322.488 650.787C323.004 651.49 323.584 652.211 324.229 652.949C324.873 653.688 325.535 654.449 326.215 655.234C326.895 656.02 327.557 656.828 328.201 657.66C328.846 658.492 329.42 659.354 329.924 660.244C330.439 661.135 330.85 662.061 331.154 663.021C331.471 663.971 331.629 664.955 331.629 665.975C331.629 667.381 331.4 668.605 330.943 669.648C330.486 670.68 329.871 671.535 329.098 672.215C328.324 672.906 327.428 673.416 326.408 673.744C325.389 674.084 324.322 674.254 323.209 674.254C322.342 674.254 321.58 674.148 320.924 673.938C320.279 673.738 319.693 673.516 319.166 673.27C318.65 673.035 318.176 672.812 317.742 672.602C317.32 672.402 316.898 672.303 316.477 672.303C316.148 672.303 315.844 672.402 315.562 672.602C315.293 672.801 315.041 673.018 314.807 673.252C314.584 673.498 314.385 673.721 314.209 673.92C314.045 674.119 313.91 674.219 313.805 674.219C313.711 674.219 313.652 674.184 313.629 674.113C313.605 674.055 313.594 673.979 313.594 673.885C313.594 673.791 313.611 673.633 313.646 673.41C313.682 673.199 313.717 672.941 313.752 672.637C313.799 672.332 313.84 671.986 313.875 671.6C313.91 671.213 313.928 670.797 313.928 670.352C313.928 669.555 313.852 668.74 313.699 667.908C313.547 667.064 313.377 666.273 313.189 665.535C313.002 664.797 312.832 664.146 312.68 663.584C312.527 663.021 312.451 662.617 312.451 662.371C312.451 662.266 312.475 662.166 312.521 662.072C312.557 661.979 312.639 661.932 312.768 661.932C312.943 661.932 313.107 662.061 313.26 662.318C313.412 662.564 313.57 662.893 313.734 663.303C313.84 663.584 313.975 663.93 314.139 664.34C314.314 664.75 314.508 665.195 314.719 665.676C314.93 666.145 315.158 666.637 315.404 667.152C315.662 667.668 315.938 668.172 316.23 668.664C316.734 669.531 317.262 670.252 317.812 670.826C318.363 671.4 318.926 671.857 319.5 672.197C320.086 672.549 320.678 672.795 321.275 672.936C321.873 673.088 322.471 673.164 323.068 673.164C323.783 673.164 324.398 673.029 324.914 672.76C325.441 672.49 325.875 672.139 326.215 671.705C326.555 671.271 326.801 670.785 326.953 670.246C327.117 669.707 327.199 669.168 327.199 668.629C327.199 667.562 327.053 666.566 326.76 665.641C326.479 664.703 326.104 663.812 325.635 662.969C325.178 662.113 324.65 661.293 324.053 660.508C323.455 659.723 322.84 658.955 322.207 658.205C321.586 657.455 320.977 656.711 320.379 655.973C319.781 655.234 319.248 654.484 318.779 653.723C318.322 652.949 317.947 652.158 317.654 651.35C317.373 650.529 317.232 649.668 317.232 648.766C317.232 647.887 317.344 647.113 317.566 646.445C317.789 645.777 318.082 645.197 318.445 644.705C318.82 644.213 319.242 643.803 319.711 643.475C320.191 643.135 320.684 642.865 321.188 642.666C321.703 642.467 322.213 642.326 322.717 642.244C323.232 642.15 323.707 642.104 324.141 642.104ZM337.447 647.359C337.541 647.359 337.635 647.512 337.729 647.816C337.822 648.109 337.916 648.496 338.01 648.977C338.104 649.457 338.197 650.014 338.291 650.646C338.385 651.268 338.479 651.9 338.572 652.545L339.205 656.975C339.264 656.588 339.363 656.143 339.504 655.639C339.656 655.135 339.855 654.613 340.102 654.074C340.348 653.535 340.646 653.008 340.998 652.492C341.35 651.977 341.754 651.514 342.211 651.104C342.68 650.693 343.201 650.365 343.775 650.119C344.361 649.861 345.012 649.732 345.727 649.732C346.605 649.732 347.367 649.902 348.012 650.242C348.656 650.57 349.189 651.033 349.611 651.631C350.033 652.217 350.344 652.92 350.543 653.74C350.742 654.561 350.842 655.457 350.842 656.43C350.842 657.309 350.789 658.193 350.684 659.084C350.59 659.963 350.484 660.83 350.367 661.686C350.262 662.541 350.156 663.367 350.051 664.164C349.957 664.961 349.91 665.705 349.91 666.396C349.91 666.807 349.945 667.164 350.016 667.469C350.086 667.773 350.191 668.055 350.332 668.312C350.496 668.559 350.695 668.775 350.93 668.963C351.176 669.139 351.404 669.309 351.615 669.473C351.838 669.625 352.025 669.783 352.178 669.947C352.342 670.1 352.424 670.264 352.424 670.439C352.424 670.545 352.395 670.633 352.336 670.703C352.277 670.785 352.178 670.826 352.037 670.826C351.826 670.826 351.592 670.744 351.334 670.58C351.088 670.428 350.777 670.234 350.402 670C350.039 669.754 349.6 669.496 349.084 669.227C348.568 668.945 347.941 668.688 347.203 668.453C346.652 668.266 346.096 668.119 345.533 668.014C344.982 667.908 344.338 667.838 343.6 667.803C343.189 667.768 342.984 667.65 342.984 667.451C342.984 667.229 343.119 667.117 343.389 667.117C343.553 667.117 343.781 667.117 344.074 667.117C344.367 667.117 344.666 667.105 344.971 667.082C345.439 667.047 345.826 666.906 346.131 666.66C346.436 666.402 346.664 665.934 346.816 665.254C346.863 664.984 346.91 664.645 346.957 664.234C347.004 663.812 347.045 663.367 347.08 662.898C347.115 662.418 347.145 661.932 347.168 661.439C347.191 660.947 347.203 660.479 347.203 660.033C347.203 659.635 347.197 659.178 347.186 658.662C347.174 658.135 347.133 657.59 347.062 657.027C347.004 656.465 346.904 655.914 346.764 655.375C346.635 654.836 346.441 654.355 346.184 653.934C345.926 653.512 345.598 653.172 345.199 652.914C344.801 652.645 344.314 652.51 343.74 652.51C343.248 652.51 342.797 652.633 342.387 652.879C341.988 653.125 341.631 653.471 341.314 653.916C340.998 654.35 340.729 654.865 340.506 655.463C340.283 656.061 340.113 656.717 339.996 657.432C339.867 658.158 339.779 658.908 339.732 659.682C339.697 660.443 339.68 661.205 339.68 661.967C339.68 662.611 339.703 663.232 339.75 663.83C339.797 664.416 339.861 664.961 339.943 665.465C340.025 665.957 340.125 666.396 340.242 666.783C340.359 667.17 340.494 667.475 340.646 667.697C340.869 668.002 341.109 668.23 341.367 668.383C341.625 668.535 341.842 668.641 342.018 668.699C342.252 668.77 342.416 668.834 342.51 668.893C342.615 668.939 342.668 669.01 342.668 669.104C342.668 669.174 342.609 669.238 342.492 669.297C342.387 669.355 342.205 669.385 341.947 669.385C341.701 669.385 341.432 669.367 341.139 669.332C340.846 669.285 340.541 669.238 340.225 669.191C339.908 669.145 339.58 669.104 339.24 669.068C338.9 669.021 338.566 668.998 338.238 668.998C337.91 668.998 337.576 669.01 337.236 669.033C336.896 669.057 336.568 669.08 336.252 669.104C335.947 669.127 335.666 669.15 335.408 669.174C335.15 669.197 334.945 669.209 334.793 669.209C334.336 669.209 334.107 669.062 334.107 668.77C334.107 668.664 334.143 668.576 334.213 668.506C334.295 668.424 334.436 668.371 334.635 668.348C334.799 668.336 334.945 668.324 335.074 668.312C335.203 668.301 335.332 668.295 335.461 668.295C335.602 668.283 335.742 668.271 335.883 668.26C336.035 668.248 336.211 668.23 336.41 668.207C336.785 668.148 337.037 668.014 337.166 667.803C337.307 667.58 337.377 667.281 337.377 666.906C337.377 666.262 337.318 665.477 337.201 664.551C337.096 663.625 336.949 662.605 336.762 661.492C336.574 660.379 336.346 659.201 336.076 657.959C335.818 656.705 335.543 655.428 335.25 654.127C335.109 653.459 334.945 652.961 334.758 652.633C334.582 652.305 334.324 652.141 333.984 652.141C333.809 652.141 333.627 652.176 333.439 652.246C333.252 652.305 333.064 652.375 332.877 652.457C332.701 652.527 332.531 652.598 332.367 652.668C332.203 652.727 332.051 652.756 331.91 652.756C331.688 652.756 331.576 652.662 331.576 652.475C331.576 652.322 331.635 652.217 331.752 652.158C331.881 652.088 332.016 652.023 332.156 651.965C332.484 651.836 332.836 651.672 333.211 651.473C333.598 651.273 334.014 651.004 334.459 650.664C334.893 650.324 335.279 649.961 335.619 649.574C335.959 649.188 336.252 648.83 336.498 648.502C336.744 648.174 336.943 647.904 337.096 647.693C337.248 647.471 337.365 647.359 337.447 647.359ZM357.891 657.326C357.457 657.326 357.047 657.244 356.66 657.08C356.285 656.916 355.957 656.67 355.676 656.342C355.395 656.014 355.172 655.604 355.008 655.111C354.844 654.619 354.762 654.039 354.762 653.371C354.762 652.645 354.861 651.936 355.061 651.244C355.271 650.541 355.594 649.92 356.027 649.381C356.461 648.83 357.012 648.391 357.68 648.062C358.359 647.734 359.174 647.57 360.123 647.57C360.908 647.57 361.6 647.676 362.197 647.887C362.807 648.086 363.34 648.361 363.797 648.713C364.254 649.053 364.641 649.451 364.957 649.908C365.285 650.365 365.561 650.846 365.783 651.35C366.006 651.842 366.188 652.346 366.328 652.861C366.48 653.365 366.609 653.846 366.715 654.303C366.773 654.561 366.844 654.93 366.926 655.41C367.02 655.879 367.119 656.424 367.225 657.045C367.33 657.666 367.441 658.334 367.559 659.049C367.676 659.752 367.793 660.467 367.91 661.193C368.027 661.92 368.139 662.629 368.244 663.32C368.361 664 368.467 664.627 368.561 665.201C368.654 665.764 368.73 666.25 368.789 666.66C368.859 667.059 368.912 667.334 368.947 667.486C369.018 667.85 369.094 668.219 369.176 668.594C369.27 668.969 369.381 669.314 369.51 669.631C369.65 669.936 369.82 670.188 370.02 670.387C370.219 670.586 370.471 670.686 370.775 670.686C370.951 670.686 371.104 670.645 371.232 670.562C371.361 670.48 371.461 670.369 371.531 670.229C371.613 670.088 371.672 669.93 371.707 669.754C371.742 669.578 371.76 669.396 371.76 669.209C371.76 668.986 371.754 668.764 371.742 668.541C371.73 668.307 371.725 668.107 371.725 667.943C371.725 667.768 371.748 667.615 371.795 667.486C371.842 667.357 371.936 667.293 372.076 667.293C372.205 667.293 372.305 667.369 372.375 667.521C372.457 667.662 372.516 667.832 372.551 668.031C372.598 668.219 372.627 668.412 372.639 668.611C372.65 668.799 372.656 668.939 372.656 669.033C372.656 669.443 372.621 669.906 372.551 670.422C372.48 670.938 372.334 671.436 372.111 671.916C371.9 672.408 371.549 672.812 371.057 673.129C370.564 673.445 369.996 673.604 369.352 673.604C368.789 673.604 368.303 673.521 367.893 673.357C367.494 673.193 367.148 672.988 366.855 672.742C366.574 672.496 366.334 672.232 366.135 671.951C365.947 671.67 365.795 671.406 365.678 671.16C365.35 670.527 365.098 669.836 364.922 669.086C364.758 668.324 364.623 667.598 364.518 666.906C364.342 667.199 364.072 667.562 363.709 667.996C363.357 668.43 362.918 668.846 362.391 669.244C361.863 669.643 361.254 669.982 360.562 670.264C359.871 670.545 359.104 670.686 358.26 670.686C357.322 670.686 356.52 670.551 355.852 670.281C355.195 670.023 354.656 669.672 354.234 669.227C353.812 668.77 353.502 668.242 353.303 667.645C353.104 667.035 353.004 666.391 353.004 665.711C353.004 664.984 353.139 664.252 353.408 663.514C353.678 662.775 354.117 662.107 354.727 661.51C355.348 660.912 356.15 660.426 357.135 660.051C358.131 659.676 359.344 659.488 360.773 659.488C361.102 659.488 361.418 659.506 361.723 659.541C362.039 659.564 362.32 659.594 362.566 659.629C362.824 659.664 363.041 659.699 363.217 659.734C363.404 659.77 363.539 659.793 363.621 659.805C363.551 658.797 363.463 657.789 363.357 656.781C363.311 656.359 363.258 655.914 363.199 655.445C363.152 654.977 363.1 654.508 363.041 654.039C362.982 653.559 362.918 653.09 362.848 652.633C362.777 652.176 362.701 651.748 362.619 651.35C362.432 650.447 362.062 649.732 361.512 649.205C360.973 648.666 360.281 648.396 359.438 648.396C358.98 648.396 358.576 648.479 358.225 648.643C357.885 648.807 357.592 649.018 357.346 649.275C357.111 649.533 356.936 649.826 356.818 650.154C356.701 650.471 356.643 650.787 356.643 651.104C356.643 651.443 356.725 651.73 356.889 651.965C357.053 652.188 357.252 652.387 357.486 652.562C357.732 652.738 357.996 652.908 358.277 653.072C358.559 653.225 358.816 653.406 359.051 653.617C359.297 653.816 359.502 654.062 359.666 654.355C359.83 654.637 359.912 654.994 359.912 655.428C359.912 656.002 359.713 656.465 359.314 656.816C358.928 657.156 358.453 657.326 357.891 657.326ZM363.762 660.895C363.68 660.859 363.533 660.818 363.322 660.771C363.123 660.713 362.883 660.66 362.602 660.613C362.32 660.555 362.016 660.508 361.688 660.473C361.371 660.438 361.055 660.42 360.738 660.42C360.117 660.42 359.537 660.508 358.998 660.684C358.471 660.859 358.014 661.123 357.627 661.475C357.24 661.814 356.936 662.248 356.713 662.775C356.49 663.291 356.379 663.889 356.379 664.568C356.379 665.189 356.479 665.705 356.678 666.115C356.889 666.514 357.152 666.83 357.469 667.064C357.797 667.299 358.154 667.463 358.541 667.557C358.939 667.65 359.326 667.697 359.701 667.697C360.299 667.697 360.867 667.604 361.406 667.416C361.945 667.229 362.42 667.012 362.83 666.766C363.24 666.52 363.574 666.279 363.832 666.045C364.09 665.811 364.248 665.652 364.307 665.57C364.225 664.785 364.148 664.07 364.078 663.426C364.043 663.145 364.008 662.869 363.973 662.6C363.949 662.33 363.92 662.078 363.885 661.844C363.861 661.609 363.838 661.41 363.814 661.246C363.791 661.082 363.773 660.965 363.762 660.895ZM377.42 651.648C377.42 651.812 377.414 652.076 377.402 652.439C377.391 652.803 377.385 653.23 377.385 653.723C377.385 654.004 377.385 654.227 377.385 654.391C377.396 654.555 377.402 654.713 377.402 654.865C377.402 655.018 377.402 655.193 377.402 655.393C377.414 655.592 377.42 655.867 377.42 656.219C377.795 655.703 378.229 655.24 378.721 654.83C378.932 654.654 379.166 654.484 379.424 654.32C379.682 654.156 379.963 654.01 380.268 653.881C380.584 653.752 380.912 653.646 381.252 653.564C381.604 653.482 381.973 653.441 382.359 653.441C383.203 653.441 383.953 653.594 384.609 653.898C385.266 654.203 385.816 654.631 386.262 655.182C386.719 655.721 387.064 656.371 387.299 657.133C387.533 657.883 387.65 658.715 387.65 659.629C387.65 661 387.469 662.23 387.105 663.32C386.742 664.41 386.25 665.342 385.629 666.115C385.008 666.877 384.281 667.463 383.449 667.873C382.617 668.283 381.727 668.488 380.777 668.488C380.438 668.488 380.115 668.459 379.811 668.4C379.518 668.342 379.242 668.266 378.984 668.172C378.727 668.078 378.486 667.979 378.264 667.873C378.053 667.756 377.865 667.65 377.701 667.557C377.689 668.037 377.678 668.465 377.666 668.84C377.666 669.203 377.666 669.561 377.666 669.912C377.666 670.264 377.666 670.627 377.666 671.002C377.666 671.377 377.666 671.811 377.666 672.303C377.666 673.1 377.672 673.979 377.684 674.939C377.707 675.9 377.748 676.838 377.807 677.752C377.877 678.678 377.971 679.521 378.088 680.283C378.205 681.045 378.369 681.613 378.58 681.988C378.779 682.352 379.025 682.639 379.318 682.85C379.611 683.061 379.904 683.23 380.197 683.359C380.561 683.523 380.877 683.688 381.146 683.852C381.428 684.016 381.568 684.186 381.568 684.361C381.568 684.49 381.527 684.596 381.445 684.678C381.363 684.76 381.223 684.801 381.023 684.801C380.707 684.801 380.262 684.748 379.688 684.643C379.125 684.549 378.51 684.443 377.842 684.326C377.186 684.209 376.529 684.098 375.873 683.992C375.217 683.898 374.643 683.852 374.15 683.852C373.623 683.852 373.184 683.869 372.832 683.904C372.48 683.951 372.111 683.975 371.725 683.975C371.209 683.975 370.857 683.939 370.67 683.869C370.494 683.811 370.406 683.734 370.406 683.641C370.406 683.535 370.465 683.465 370.582 683.43C370.699 683.395 370.857 683.359 371.057 683.324C371.256 683.289 371.479 683.23 371.725 683.148C371.971 683.078 372.229 682.955 372.498 682.779C372.779 682.58 373.002 682.328 373.166 682.023C373.342 681.73 373.477 681.402 373.57 681.039C373.664 680.676 373.729 680.295 373.764 679.896C373.799 679.51 373.828 679.129 373.852 678.754C373.875 678.461 373.898 678.01 373.922 677.4C373.945 676.803 373.969 676.1 373.992 675.291C374.016 674.494 374.039 673.621 374.062 672.672C374.098 671.723 374.127 670.744 374.15 669.736C374.174 668.729 374.197 667.727 374.221 666.73C374.244 665.723 374.262 664.768 374.273 663.865C374.285 662.963 374.297 662.137 374.309 661.387C374.32 660.625 374.326 659.992 374.326 659.488C374.326 658.738 374.303 658.123 374.256 657.643C374.221 657.15 374.156 656.764 374.062 656.482C373.969 656.189 373.846 655.99 373.693 655.885C373.541 655.768 373.354 655.709 373.131 655.709C372.955 655.709 372.768 655.744 372.568 655.814C372.381 655.885 372.188 655.961 371.988 656.043C371.801 656.113 371.625 656.184 371.461 656.254C371.297 656.324 371.162 656.359 371.057 656.359C370.857 656.359 370.758 656.26 370.758 656.061C370.758 655.99 370.793 655.908 370.863 655.814C370.934 655.721 371.115 655.604 371.408 655.463C371.596 655.357 371.818 655.252 372.076 655.146C372.334 655.029 372.609 654.9 372.902 654.76C373.207 654.607 373.518 654.432 373.834 654.232C374.162 654.021 374.484 653.77 374.801 653.477C375.223 653.09 375.562 652.744 375.82 652.439C376.09 652.135 376.307 651.883 376.471 651.684C376.646 651.473 376.781 651.314 376.875 651.209C376.98 651.092 377.08 651.033 377.174 651.033C377.279 651.033 377.344 651.098 377.367 651.227C377.402 651.344 377.42 651.484 377.42 651.648ZM380.654 655.164C380.15 655.164 379.711 655.281 379.336 655.516C378.973 655.75 378.662 656.061 378.404 656.447C378.146 656.834 377.936 657.273 377.771 657.766C377.619 658.258 377.496 658.768 377.402 659.295C377.309 659.811 377.244 660.32 377.209 660.824C377.186 661.316 377.174 661.762 377.174 662.16C377.174 662.781 377.215 663.408 377.297 664.041C377.391 664.662 377.549 665.225 377.771 665.729C378.006 666.221 378.322 666.625 378.721 666.941C379.119 667.258 379.623 667.416 380.232 667.416C380.713 667.416 381.17 667.293 381.604 667.047C382.049 666.801 382.436 666.408 382.764 665.869C383.104 665.318 383.373 664.604 383.572 663.725C383.771 662.834 383.871 661.756 383.871 660.49C383.871 659.717 383.812 659.008 383.695 658.363C383.578 657.707 383.391 657.145 383.133 656.676C382.875 656.195 382.541 655.826 382.131 655.568C381.721 655.299 381.229 655.164 380.654 655.164Z" fill="white"/>
</svg>
