<svg width="200" height="634" viewBox="0 0 200 634" fill="none" xmlns="http://www.w3.org/2000/svg">
<rect width="200" height="634" fill="#1E1E1E"/>
<path id="bg" d="M200 0H0V634H200V0Z" fill="#D9D9D9"/>
<path d="M66.5156 561.602C66.7969 561.602 67.0443 561.628 67.2578 561.68C67.4714 561.732 67.6589 561.792 67.8203 561.859C67.987 561.922 68.1302 561.979 68.25 562.031C68.375 562.083 68.4844 562.109 68.5781 562.109C68.6458 562.109 68.7031 562.081 68.75 562.023C68.7969 561.966 68.8385 561.896 68.875 561.812C68.9115 561.729 68.9427 561.638 68.9688 561.539C68.9948 561.44 69.0208 561.349 69.0469 561.266C69.0781 561.146 69.112 561.044 69.1484 560.961C69.1901 560.872 69.2474 560.828 69.3203 560.828C69.4037 560.828 69.4453 560.904 69.4453 561.055C69.4453 561.138 69.4349 561.232 69.4141 561.336C69.3984 561.44 69.375 561.565 69.3438 561.711C69.3177 561.852 69.2865 562.018 69.25 562.211C69.2188 562.398 69.1875 562.617 69.1563 562.867C69.1146 563.174 69.0859 563.448 69.0703 563.688C69.0599 563.922 69.0495 564.12 69.0391 564.281C69.0287 564.438 69.013 564.557 68.9922 564.641C68.9766 564.724 68.9453 564.766 68.8984 564.766C68.862 564.766 68.8333 564.747 68.8125 564.711C68.7917 564.669 68.7734 564.62 68.7578 564.562C68.7422 564.505 68.7292 564.448 68.7188 564.391C68.7083 564.333 68.7005 564.284 68.6953 564.242C68.6693 564.107 68.6354 563.958 68.5938 563.797C68.5573 563.63 68.5052 563.464 68.4375 563.297C68.3698 563.125 68.2865 562.958 68.1875 562.797C68.0885 562.635 67.9635 562.492 67.8125 562.367C67.6667 562.242 67.4922 562.143 67.2891 562.07C67.0859 561.992 66.849 561.953 66.5781 561.953C66.0885 561.953 65.7083 562.099 65.4375 562.391C65.1667 562.682 65.0313 563.112 65.0313 563.68C65.0313 563.966 65.099 564.258 65.2344 564.555C65.375 564.846 65.5573 565.148 65.7813 565.461C66.0104 565.773 66.2682 566.094 66.5547 566.422C66.8412 566.75 67.1354 567.089 67.4375 567.438C67.7396 567.786 68.0339 568.146 68.3203 568.516C68.6068 568.885 68.862 569.268 69.0859 569.664C69.3151 570.06 69.4974 570.471 69.6328 570.898C69.7734 571.32 69.8438 571.758 69.8438 572.211C69.8438 572.836 69.7422 573.38 69.5391 573.844C69.3359 574.302 69.0625 574.682 68.7188 574.984C68.375 575.292 67.9766 575.518 67.5234 575.664C67.0703 575.815 66.5964 575.891 66.1016 575.891C65.7162 575.891 65.3776 575.844 65.0859 575.75C64.7995 575.661 64.5391 575.563 64.3047 575.453C64.0755 575.349 63.8646 575.25 63.6719 575.156C63.4844 575.068 63.2969 575.023 63.1094 575.023C62.9635 575.023 62.8281 575.068 62.7031 575.156C62.5833 575.245 62.4714 575.341 62.3672 575.445C62.2682 575.555 62.1797 575.654 62.1016 575.742C62.0287 575.831 61.9688 575.875 61.9219 575.875C61.8802 575.875 61.8542 575.859 61.8438 575.828C61.8333 575.802 61.8281 575.768 61.8281 575.727C61.8281 575.685 61.8359 575.615 61.8516 575.516C61.8672 575.422 61.8828 575.307 61.8984 575.172C61.9193 575.036 61.9375 574.883 61.9531 574.711C61.9688 574.539 61.9766 574.354 61.9766 574.156C61.9766 573.802 61.9427 573.44 61.875 573.07C61.8073 572.695 61.7318 572.344 61.6484 572.016C61.5651 571.688 61.4896 571.398 61.4219 571.148C61.3542 570.898 61.3203 570.719 61.3203 570.609C61.3203 570.562 61.3307 570.518 61.3516 570.477C61.3672 570.435 61.4036 570.414 61.4609 570.414C61.5391 570.414 61.612 570.471 61.6797 570.586C61.7474 570.695 61.8177 570.841 61.8906 571.023C61.9375 571.148 61.9974 571.302 62.0703 571.484C62.1484 571.667 62.2344 571.865 62.3281 572.078C62.4219 572.287 62.5234 572.505 62.6328 572.734C62.7474 572.963 62.8698 573.188 63 573.406C63.224 573.792 63.4583 574.112 63.7031 574.367C63.9479 574.622 64.1979 574.825 64.4531 574.977C64.7135 575.133 64.9766 575.242 65.2422 575.305C65.5078 575.372 65.7734 575.406 66.0391 575.406C66.3568 575.406 66.6302 575.346 66.8594 575.227C67.0938 575.107 67.2865 574.951 67.4375 574.758C67.5885 574.565 67.6979 574.349 67.7656 574.109C67.8385 573.87 67.875 573.63 67.875 573.391C67.875 572.917 67.8099 572.474 67.6797 572.062C67.5547 571.646 67.388 571.25 67.1797 570.875C66.9766 570.495 66.7422 570.13 66.4766 569.781C66.2109 569.432 65.9375 569.091 65.6563 568.758C65.3802 568.424 65.1094 568.094 64.8438 567.766C64.5781 567.438 64.3412 567.104 64.1328 566.766C63.9297 566.422 63.763 566.07 63.6328 565.711C63.5078 565.346 63.4453 564.964 63.4453 564.562C63.4453 564.172 63.4948 563.828 63.5938 563.531C63.6927 563.234 63.8229 562.977 63.9844 562.758C64.151 562.539 64.3385 562.357 64.5469 562.211C64.7604 562.06 64.9792 561.94 65.2031 561.852C65.4323 561.763 65.6589 561.701 65.8828 561.664C66.112 561.622 66.3229 561.602 66.5156 561.602ZM72.2188 561.469C72.526 561.469 72.7708 561.549 72.9531 561.711C73.1354 561.872 73.2266 562.102 73.2266 562.398C73.2266 562.596 73.1953 562.763 73.1328 562.898C73.0703 563.029 72.9896 563.135 72.8906 563.219C72.7917 563.297 72.6823 563.354 72.5625 563.391C72.4479 563.422 72.3333 563.438 72.2188 563.438C72.1198 563.438 72.0156 563.422 71.9062 563.391C71.7969 563.359 71.6953 563.307 71.6016 563.234C71.5078 563.156 71.4297 563.057 71.3672 562.938C71.3099 562.812 71.2812 562.659 71.2812 562.477C71.2812 562.284 71.3125 562.125 71.375 562C71.4375 561.87 71.5156 561.766 71.6094 561.688C71.7031 561.609 71.8047 561.555 71.9141 561.523C72.0234 561.487 72.125 561.469 72.2188 561.469ZM73.3281 564.031C73.3802 564.031 73.4062 564.091 73.4062 564.211C73.4062 564.289 73.3958 564.419 73.375 564.602C73.3594 564.779 73.3385 564.969 73.3125 565.172C73.2708 565.495 73.2292 565.854 73.1875 566.25C73.1458 566.641 73.1042 567.044 73.0625 567.461C73.026 567.872 72.9896 568.281 72.9531 568.688C72.9219 569.094 72.8932 569.471 72.8672 569.82C72.8411 570.164 72.8203 570.469 72.8047 570.734C72.7891 570.995 72.7812 571.188 72.7812 571.312C72.7812 571.474 72.7917 571.607 72.8125 571.711C72.8333 571.815 72.8594 571.901 72.8906 571.969C72.9219 572.036 72.9557 572.091 72.9922 572.133C73.0339 572.175 73.0755 572.211 73.1172 572.242C73.1641 572.273 73.2214 572.302 73.2891 572.328C73.3568 572.354 73.4297 572.38 73.5078 572.406C73.5859 572.427 73.6641 572.445 73.7422 572.461C73.8255 572.477 73.901 572.487 73.9688 572.492C74.0781 572.513 74.1667 572.529 74.2344 572.539C74.3021 572.549 74.3359 572.583 74.3359 572.641C74.3359 572.745 74.224 572.797 74 572.797C73.8438 572.797 73.6875 572.787 73.5312 572.766C73.375 572.74 73.2135 572.711 73.0469 572.68C72.8854 572.648 72.7161 572.622 72.5391 572.602C72.362 572.575 72.1719 572.562 71.9688 572.562C71.7812 572.562 71.612 572.568 71.4609 572.578C71.3099 572.589 71.1719 572.602 71.0469 572.617C70.9219 572.633 70.8047 572.646 70.6953 572.656C70.5859 572.667 70.4766 572.672 70.3672 572.672C70.2787 572.672 70.1979 572.662 70.125 572.641C70.0521 572.615 70.0156 572.565 70.0156 572.492C70.0156 572.419 70.0547 572.37 70.1328 572.344C70.2162 572.312 70.2995 572.289 70.3828 572.273C70.487 572.253 70.5885 572.229 70.6875 572.203C70.7865 572.177 70.875 572.138 70.9531 572.086C71.0365 572.029 71.1042 571.956 71.1562 571.867C71.2135 571.773 71.25 571.654 71.2656 571.508C71.2865 571.221 71.3021 570.93 71.3125 570.633C71.3229 570.336 71.3307 570.044 71.3359 569.758C71.3411 569.466 71.3438 569.185 71.3438 568.914C71.3438 568.638 71.3438 568.38 71.3438 568.141C71.3438 567.854 71.3438 567.594 71.3438 567.359C71.3438 567.12 71.3385 566.917 71.3281 566.75C71.3177 566.484 71.2865 566.276 71.2344 566.125C71.1875 565.974 71.1172 565.862 71.0234 565.789C70.9349 565.716 70.8203 565.669 70.6797 565.648C70.5391 565.622 70.3698 565.602 70.1719 565.586C70.1146 565.576 70.0677 565.557 70.0313 565.531C70 565.505 69.9844 565.464 69.9844 565.406C69.9844 565.307 70.0625 565.25 70.2188 565.234C70.2969 565.229 70.3958 565.221 70.5156 565.211C70.6354 565.195 70.7734 565.174 70.9297 565.148C71.0911 565.122 71.2656 565.086 71.4531 565.039C71.6406 564.987 71.8385 564.917 72.0469 564.828C72.276 564.734 72.4635 564.641 72.6094 564.547C72.7604 564.453 72.8828 564.37 72.9766 564.297C73.0703 564.219 73.1432 564.156 73.1953 564.109C73.2474 564.057 73.2917 564.031 73.3281 564.031ZM76.8516 563.938C76.8932 563.938 76.9349 564.005 76.9766 564.141C77.0182 564.271 77.0599 564.443 77.1016 564.656C77.1432 564.87 77.1849 565.117 77.2266 565.398C77.2682 565.674 77.3099 565.956 77.3516 566.242L77.6328 568.211C77.6589 568.039 77.7031 567.841 77.7656 567.617C77.8333 567.393 77.9219 567.161 78.0312 566.922C78.1406 566.682 78.2734 566.448 78.4297 566.219C78.5859 565.99 78.7656 565.784 78.9688 565.602C79.1771 565.419 79.4089 565.273 79.6641 565.164C79.9245 565.049 80.2135 564.992 80.5312 564.992C80.9219 564.992 81.2604 565.068 81.5469 565.219C81.8333 565.365 82.0703 565.57 82.2578 565.836C82.4453 566.096 82.5833 566.409 82.6719 566.773C82.7604 567.138 82.8047 567.536 82.8047 567.969C82.8047 568.359 82.7812 568.753 82.7344 569.148C82.6927 569.539 82.6458 569.924 82.5938 570.305C82.5469 570.685 82.5 571.052 82.4531 571.406C82.4115 571.76 82.3906 572.091 82.3906 572.398C82.3906 572.581 82.4062 572.74 82.4375 572.875C82.4688 573.01 82.5156 573.135 82.5781 573.25C82.651 573.359 82.7396 573.456 82.8438 573.539C82.9531 573.617 83.0547 573.693 83.1484 573.766C83.2474 573.833 83.3307 573.904 83.3984 573.977C83.4714 574.044 83.5078 574.117 83.5078 574.195C83.5078 574.242 83.4948 574.281 83.4688 574.312C83.4427 574.349 83.3984 574.367 83.3359 574.367C83.2422 574.367 83.138 574.331 83.0234 574.258C82.9141 574.19 82.776 574.104 82.6094 574C82.4479 573.891 82.2526 573.776 82.0234 573.656C81.7943 573.531 81.5156 573.417 81.1875 573.312C80.9427 573.229 80.6953 573.164 80.4453 573.117C80.2005 573.07 79.9141 573.039 79.5859 573.023C79.4036 573.008 79.3125 572.956 79.3125 572.867C79.3125 572.768 79.3724 572.719 79.4922 572.719C79.5651 572.719 79.6667 572.719 79.7969 572.719C79.9271 572.719 80.0599 572.714 80.1953 572.703C80.4036 572.688 80.5755 572.625 80.7109 572.516C80.8464 572.401 80.9479 572.193 81.0156 571.891C81.0365 571.771 81.0573 571.62 81.0781 571.438C81.099 571.25 81.1172 571.052 81.1328 570.844C81.1484 570.63 81.1615 570.414 81.1719 570.195C81.1823 569.977 81.1875 569.768 81.1875 569.57C81.1875 569.393 81.1849 569.19 81.1797 568.961C81.1745 568.727 81.1562 568.484 81.125 568.234C81.099 567.984 81.0547 567.74 80.9922 567.5C80.9349 567.26 80.849 567.047 80.7344 566.859C80.6198 566.672 80.474 566.521 80.2969 566.406C80.1198 566.286 79.9036 566.227 79.6484 566.227C79.4297 566.227 79.2292 566.281 79.0469 566.391C78.8698 566.5 78.7109 566.654 78.5703 566.852C78.4297 567.044 78.3099 567.273 78.2109 567.539C78.112 567.805 78.0365 568.096 77.9844 568.414C77.9271 568.737 77.888 569.07 77.8672 569.414C77.8516 569.753 77.8438 570.091 77.8438 570.43C77.8438 570.716 77.8542 570.992 77.875 571.258C77.8958 571.518 77.9245 571.76 77.9609 571.984C77.9974 572.203 78.0417 572.398 78.0938 572.57C78.1458 572.742 78.2057 572.878 78.2734 572.977C78.3724 573.112 78.4792 573.214 78.5938 573.281C78.7083 573.349 78.8047 573.396 78.8828 573.422C78.987 573.453 79.0599 573.482 79.1016 573.508C79.1484 573.529 79.1719 573.56 79.1719 573.602C79.1719 573.633 79.1458 573.661 79.0938 573.688C79.0469 573.714 78.9661 573.727 78.8516 573.727C78.7422 573.727 78.6224 573.719 78.4922 573.703C78.362 573.682 78.2266 573.662 78.0859 573.641C77.9453 573.62 77.7995 573.602 77.6484 573.586C77.4974 573.565 77.349 573.555 77.2031 573.555C77.0573 573.555 76.9089 573.56 76.7578 573.57C76.6068 573.581 76.4609 573.591 76.3203 573.602C76.1849 573.612 76.0599 573.622 75.9453 573.633C75.8307 573.643 75.7396 573.648 75.6719 573.648C75.4688 573.648 75.3672 573.583 75.3672 573.453C75.3672 573.406 75.3828 573.367 75.4141 573.336C75.4505 573.3 75.513 573.276 75.6016 573.266C75.6745 573.26 75.7396 573.255 75.7969 573.25C75.8542 573.245 75.9115 573.242 75.9688 573.242C76.0312 573.237 76.0938 573.232 76.1562 573.227C76.224 573.221 76.3021 573.214 76.3906 573.203C76.5573 573.177 76.6693 573.117 76.7266 573.023C76.7891 572.925 76.8203 572.792 76.8203 572.625C76.8203 572.338 76.7943 571.99 76.7422 571.578C76.6953 571.167 76.6302 570.713 76.5469 570.219C76.4635 569.724 76.362 569.201 76.2422 568.648C76.1276 568.091 76.0052 567.523 75.875 566.945C75.8125 566.648 75.7396 566.427 75.6562 566.281C75.5781 566.135 75.4635 566.062 75.3125 566.062C75.2344 566.062 75.1536 566.078 75.0703 566.109C74.987 566.135 74.9036 566.167 74.8203 566.203C74.7422 566.234 74.6667 566.266 74.5938 566.297C74.5208 566.323 74.4531 566.336 74.3906 566.336C74.2917 566.336 74.2422 566.294 74.2422 566.211C74.2422 566.143 74.2682 566.096 74.3203 566.07C74.3776 566.039 74.4375 566.01 74.5 565.984C74.6458 565.927 74.8021 565.854 74.9688 565.766C75.1406 565.677 75.3255 565.557 75.5234 565.406C75.7161 565.255 75.888 565.094 76.0391 564.922C76.1901 564.75 76.3203 564.591 76.4297 564.445C76.5391 564.299 76.6276 564.18 76.6953 564.086C76.763 563.987 76.8151 563.938 76.8516 563.938ZM91.2969 564.516C91.5625 564.516 91.8021 564.557 92.0156 564.641C92.2292 564.719 92.4115 564.828 92.5625 564.969C92.7135 565.109 92.8281 565.273 92.9062 565.461C92.9896 565.648 93.0312 565.849 93.0312 566.062C93.0312 566.484 92.9297 566.812 92.7266 567.047C92.5286 567.276 92.2604 567.391 91.9219 567.391C91.7812 567.391 91.651 567.37 91.5312 567.328C91.4115 567.286 91.3073 567.224 91.2188 567.141C91.1302 567.057 91.0599 566.956 91.0078 566.836C90.9557 566.716 90.9297 566.581 90.9297 566.43C90.9297 566.263 90.9505 566.115 90.9922 565.984C91.0391 565.849 91.0625 565.716 91.0625 565.586C91.0625 565.409 91.0104 565.286 90.9062 565.219C90.8021 565.151 90.6823 565.117 90.5469 565.117C90.3698 565.117 90.1901 565.177 90.0078 565.297C89.8307 565.417 89.6849 565.576 89.5703 565.773C89.5234 565.862 89.4818 565.956 89.4453 566.055C89.4141 566.148 89.3984 566.232 89.3984 566.305C89.3984 566.346 89.4219 566.393 89.4688 566.445C89.5156 566.492 89.5755 566.547 89.6484 566.609C89.7266 566.672 89.8125 566.745 89.9062 566.828C90.0052 566.906 90.1016 566.997 90.1953 567.102C90.362 567.284 90.513 567.513 90.6484 567.789C90.7839 568.065 90.8516 568.391 90.8516 568.766C90.8516 569.182 90.8047 569.547 90.7109 569.859C90.6172 570.167 90.487 570.435 90.3203 570.664C90.1589 570.888 89.9688 571.075 89.75 571.227C89.5312 571.372 89.2943 571.49 89.0391 571.578C88.7891 571.667 88.526 571.729 88.25 571.766C87.9792 571.802 87.7109 571.82 87.4453 571.82H87.1406C86.8021 571.878 86.526 571.984 86.3125 572.141C86.1042 572.297 86 572.5 86 572.75C86 572.912 86.0521 573.047 86.1562 573.156C86.2604 573.266 86.3984 573.359 86.5703 573.438C86.7474 573.51 86.9505 573.57 87.1797 573.617C87.4089 573.659 87.6458 573.698 87.8906 573.734C88.1406 573.766 88.388 573.797 88.6328 573.828C88.8828 573.859 89.1146 573.896 89.3281 573.938C89.6875 574.01 90.0339 574.107 90.3672 574.227C90.7057 574.346 91.0026 574.505 91.2578 574.703C91.5182 574.906 91.7266 575.159 91.8828 575.461C92.0391 575.763 92.1172 576.13 92.1172 576.562C92.1172 576.901 92.0599 577.216 91.9453 577.508C91.8307 577.805 91.6719 578.075 91.4688 578.32C91.2656 578.57 91.026 578.797 90.75 579C90.474 579.203 90.1771 579.378 89.8594 579.523C89.4427 579.716 88.987 579.862 88.4922 579.961C87.9974 580.06 87.4818 580.109 86.9453 580.109C86.4453 580.109 85.9766 580.055 85.5391 579.945C85.1016 579.836 84.7188 579.667 84.3906 579.438C84.0677 579.213 83.8125 578.93 83.625 578.586C83.4375 578.242 83.3438 577.838 83.3438 577.375C83.3438 576.995 83.4062 576.651 83.5312 576.344C83.6562 576.036 83.8151 575.76 84.0078 575.516C84.2057 575.276 84.4245 575.065 84.6641 574.883C84.9089 574.701 85.1458 574.544 85.375 574.414C85.6094 574.284 85.8255 574.177 86.0234 574.094C86.2214 574.01 86.375 573.948 86.4844 573.906C86.3021 573.885 86.1172 573.849 85.9297 573.797C85.7474 573.745 85.5807 573.675 85.4297 573.586C85.2839 573.497 85.1641 573.385 85.0703 573.25C84.9766 573.109 84.9297 572.943 84.9297 572.75C84.9297 572.495 85.0391 572.279 85.2578 572.102C85.4818 571.919 85.7943 571.779 86.1953 571.68C85.8984 571.602 85.6224 571.49 85.3672 571.344C85.112 571.193 84.8906 571.008 84.7031 570.789C84.5156 570.57 84.3672 570.313 84.2578 570.016C84.1536 569.719 84.1016 569.383 84.1016 569.008C84.1016 568.544 84.1823 568.13 84.3438 567.766C84.5104 567.401 84.7344 567.094 85.0156 566.844C85.2969 566.589 85.6276 566.396 86.0078 566.266C86.388 566.13 86.7969 566.062 87.2344 566.062C87.3646 566.062 87.4974 566.07 87.6328 566.086C87.7682 566.096 87.8958 566.112 88.0156 566.133C88.1354 566.148 88.2448 566.164 88.3438 566.18C88.4479 566.19 88.5312 566.195 88.5938 566.195C88.724 566.195 88.8307 566.177 88.9141 566.141C89.0026 566.104 89.0833 566.026 89.1562 565.906C89.2604 565.74 89.375 565.573 89.5 565.406C89.625 565.24 89.7708 565.091 89.9375 564.961C90.1042 564.826 90.2969 564.719 90.5156 564.641C90.7396 564.557 91 564.516 91.2969 564.516ZM87.7812 566.531C87.5833 566.531 87.3854 566.578 87.1875 566.672C86.9948 566.76 86.8203 566.911 86.6641 567.125C86.513 567.333 86.388 567.607 86.2891 567.945C86.1953 568.284 86.1484 568.698 86.1484 569.188C86.1484 569.589 86.1901 569.932 86.2734 570.219C86.362 570.5 86.474 570.734 86.6094 570.922C86.75 571.104 86.9062 571.24 87.0781 571.328C87.25 571.412 87.4193 571.453 87.5859 571.453C87.7318 571.453 87.8984 571.419 88.0859 571.352C88.2734 571.279 88.4505 571.143 88.6172 570.945C88.7839 570.747 88.9245 570.474 89.0391 570.125C89.1589 569.776 89.2188 569.323 89.2188 568.766C89.2188 568.026 89.0885 567.469 88.8281 567.094C88.5729 566.719 88.224 566.531 87.7812 566.531ZM85.3281 576.883C85.3281 577.263 85.3828 577.617 85.4922 577.945C85.6068 578.279 85.7734 578.568 85.9922 578.812C86.2109 579.062 86.4792 579.258 86.7969 579.398C87.1146 579.544 87.4792 579.617 87.8906 579.617C88.3594 579.617 88.763 579.542 89.1016 579.391C89.4401 579.245 89.7188 579.05 89.9375 578.805C90.1562 578.565 90.3177 578.286 90.4219 577.969C90.526 577.656 90.5781 577.331 90.5781 576.992C90.5781 576.664 90.5365 576.354 90.4531 576.062C90.3698 575.776 90.2422 575.516 90.0703 575.281C89.8984 575.047 89.6771 574.841 89.4062 574.664C89.1354 574.492 88.8125 574.357 88.4375 574.258C88.1927 574.19 87.9583 574.138 87.7344 574.102C87.5104 574.07 87.3073 574.047 87.125 574.031C86.9427 574.141 86.7448 574.281 86.5312 574.453C86.3229 574.63 86.1276 574.836 85.9453 575.07C85.7682 575.31 85.6198 575.581 85.5 575.883C85.3854 576.185 85.3281 576.518 85.3281 576.883ZM97.8359 560.047C98.1693 560.047 98.4557 560.094 98.6953 560.188C98.9349 560.281 99.1328 560.409 99.2891 560.57C99.4453 560.732 99.5599 560.917 99.6328 561.125C99.7109 561.333 99.75 561.549 99.75 561.773C99.75 562.216 99.6589 562.638 99.4766 563.039C99.2943 563.44 99.0599 563.833 98.7734 564.219C98.487 564.604 98.1693 564.987 97.8203 565.367C97.4766 565.747 97.1406 566.141 96.8125 566.547C97.0208 566.984 97.2396 567.404 97.4688 567.805C97.6979 568.201 97.9167 568.56 98.125 568.883C98.3385 569.206 98.5312 569.487 98.7031 569.727C98.8802 569.966 99.0156 570.148 99.1094 570.273C99.1875 570.378 99.2865 570.5 99.4062 570.641C99.526 570.781 99.6615 570.935 99.8125 571.102C99.9635 571.263 100.128 571.432 100.305 571.609C100.487 571.781 100.672 571.953 100.859 572.125C101.083 571.87 101.279 571.599 101.445 571.312C101.612 571.021 101.75 570.729 101.859 570.438C101.969 570.146 102.05 569.859 102.102 569.578C102.159 569.292 102.188 569.026 102.188 568.781C102.188 568.271 102.112 567.909 101.961 567.695C101.81 567.482 101.617 567.375 101.383 567.375C101.216 567.375 101.018 567.401 100.789 567.453C100.56 567.5 100.325 567.552 100.086 567.609C99.8516 567.667 99.6276 567.721 99.4141 567.773C99.2005 567.82 99.026 567.844 98.8906 567.844C98.8073 567.844 98.7396 567.831 98.6875 567.805C98.6406 567.779 98.6172 567.737 98.6172 567.68C98.6172 567.612 98.6641 567.562 98.7578 567.531C98.8568 567.495 99.0026 567.453 99.1953 567.406C99.388 567.354 99.6276 567.281 99.9141 567.188C100.206 567.094 100.547 566.953 100.938 566.766C101.26 566.609 101.534 566.445 101.758 566.273C101.982 566.096 102.169 565.935 102.32 565.789C102.471 565.638 102.594 565.513 102.688 565.414C102.781 565.315 102.859 565.266 102.922 565.266C102.979 565.266 103.029 565.302 103.07 565.375C103.117 565.448 103.156 565.547 103.188 565.672C103.219 565.792 103.242 565.935 103.258 566.102C103.279 566.263 103.289 566.432 103.289 566.609C103.289 567.151 103.247 567.693 103.164 568.234C103.081 568.776 102.956 569.302 102.789 569.812C102.622 570.318 102.412 570.8 102.156 571.258C101.906 571.711 101.612 572.122 101.273 572.492C101.45 572.643 101.625 572.784 101.797 572.914C101.974 573.039 102.146 573.148 102.312 573.242C102.479 573.336 102.638 573.409 102.789 573.461C102.945 573.513 103.091 573.539 103.227 573.539C103.341 573.539 103.448 573.505 103.547 573.438C103.651 573.365 103.747 573.273 103.836 573.164C103.924 573.055 104.005 572.94 104.078 572.82C104.156 572.695 104.227 572.578 104.289 572.469C104.352 572.359 104.409 572.271 104.461 572.203C104.513 572.13 104.56 572.094 104.602 572.094C104.654 572.094 104.68 572.138 104.68 572.227C104.68 572.305 104.643 572.443 104.57 572.641C104.503 572.839 104.412 573.062 104.297 573.312C104.188 573.557 104.06 573.813 103.914 574.078C103.768 574.349 103.62 574.596 103.469 574.82C103.323 575.044 103.18 575.227 103.039 575.367C102.904 575.513 102.784 575.586 102.68 575.586C102.586 575.586 102.453 575.549 102.281 575.477C102.109 575.409 101.904 575.297 101.664 575.141C101.425 574.984 101.154 574.779 100.852 574.523C100.555 574.268 100.232 573.956 99.8828 573.586C99.513 573.784 99.112 573.94 98.6797 574.055C98.2526 574.169 97.7891 574.227 97.2891 574.227C96.6797 574.227 96.1198 574.146 95.6094 573.984C95.1042 573.823 94.6693 573.583 94.3047 573.266C93.9401 572.948 93.6562 572.552 93.4531 572.078C93.25 571.604 93.1484 571.055 93.1484 570.43C93.1484 570.008 93.2031 569.607 93.3125 569.227C93.4219 568.846 93.5703 568.482 93.7578 568.133C93.9453 567.784 94.1641 567.448 94.4141 567.125C94.6693 566.802 94.9401 566.492 95.2266 566.195C94.9401 565.273 94.7969 564.344 94.7969 563.406C94.7969 562.87 94.8724 562.393 95.0234 561.977C95.1797 561.555 95.3932 561.203 95.6641 560.922C95.9349 560.635 96.2552 560.419 96.625 560.273C97 560.122 97.4036 560.047 97.8359 560.047ZM98.2969 571.727C97.276 570.388 96.4714 569.094 95.8828 567.844C95.6745 568.214 95.5078 568.596 95.3828 568.992C95.2578 569.383 95.1953 569.799 95.1953 570.242C95.1953 570.711 95.2552 571.151 95.375 571.562C95.5 571.969 95.6797 572.323 95.9141 572.625C96.1536 572.922 96.4453 573.156 96.7891 573.328C97.1328 573.5 97.5234 573.586 97.9609 573.586C98.2526 573.586 98.5286 573.552 98.7891 573.484C99.0495 573.417 99.2969 573.328 99.5312 573.219C99.349 573 99.1484 572.771 98.9297 572.531C98.7161 572.287 98.5052 572.018 98.2969 571.727ZM95.7891 562.703C95.7891 563.115 95.8281 563.526 95.9062 563.938C95.9896 564.349 96.1042 564.766 96.25 565.188C96.5833 564.87 96.901 564.555 97.2031 564.242C97.5052 563.924 97.7682 563.612 97.9922 563.305C98.2161 562.992 98.3932 562.682 98.5234 562.375C98.6589 562.062 98.7266 561.75 98.7266 561.438C98.7266 561.109 98.6354 560.841 98.4531 560.633C98.2708 560.424 98 560.32 97.6406 560.32C97.4115 560.32 97.1849 560.365 96.9609 560.453C96.7422 560.536 96.5443 560.672 96.3672 560.859C96.1953 561.047 96.0547 561.292 95.9453 561.594C95.8411 561.896 95.7891 562.266 95.7891 562.703ZM110.062 561.602C110.344 561.602 110.591 561.628 110.805 561.68C111.018 561.732 111.206 561.792 111.367 561.859C111.534 561.922 111.677 561.979 111.797 562.031C111.922 562.083 112.031 562.109 112.125 562.109C112.193 562.109 112.25 562.081 112.297 562.023C112.344 561.966 112.385 561.896 112.422 561.812C112.458 561.729 112.49 561.638 112.516 561.539C112.542 561.44 112.568 561.349 112.594 561.266C112.625 561.146 112.659 561.044 112.695 560.961C112.737 560.872 112.794 560.828 112.867 560.828C112.95 560.828 112.992 560.904 112.992 561.055C112.992 561.138 112.982 561.232 112.961 561.336C112.945 561.44 112.922 561.565 112.891 561.711C112.865 561.852 112.833 562.018 112.797 562.211C112.766 562.398 112.734 562.617 112.703 562.867C112.661 563.174 112.633 563.448 112.617 563.688C112.607 563.922 112.596 564.12 112.586 564.281C112.575 564.438 112.56 564.557 112.539 564.641C112.523 564.724 112.492 564.766 112.445 564.766C112.409 564.766 112.38 564.747 112.359 564.711C112.339 564.669 112.32 564.62 112.305 564.562C112.289 564.505 112.276 564.448 112.266 564.391C112.255 564.333 112.247 564.284 112.242 564.242C112.216 564.107 112.182 563.958 112.141 563.797C112.104 563.63 112.052 563.464 111.984 563.297C111.917 563.125 111.833 562.958 111.734 562.797C111.635 562.635 111.51 562.492 111.359 562.367C111.214 562.242 111.039 562.143 110.836 562.07C110.633 561.992 110.396 561.953 110.125 561.953C109.635 561.953 109.255 562.099 108.984 562.391C108.714 562.682 108.578 563.112 108.578 563.68C108.578 563.966 108.646 564.258 108.781 564.555C108.922 564.846 109.104 565.148 109.328 565.461C109.557 565.773 109.815 566.094 110.102 566.422C110.388 566.75 110.682 567.089 110.984 567.438C111.287 567.786 111.581 568.146 111.867 568.516C112.154 568.885 112.409 569.268 112.633 569.664C112.862 570.06 113.044 570.471 113.18 570.898C113.32 571.32 113.391 571.758 113.391 572.211C113.391 572.836 113.289 573.38 113.086 573.844C112.883 574.302 112.609 574.682 112.266 574.984C111.922 575.292 111.523 575.518 111.07 575.664C110.617 575.815 110.143 575.891 109.648 575.891C109.263 575.891 108.925 575.844 108.633 575.75C108.346 575.661 108.086 575.563 107.852 575.453C107.622 575.349 107.411 575.25 107.219 575.156C107.031 575.068 106.844 575.023 106.656 575.023C106.51 575.023 106.375 575.068 106.25 575.156C106.13 575.245 106.018 575.341 105.914 575.445C105.815 575.555 105.727 575.654 105.648 575.742C105.575 575.831 105.516 575.875 105.469 575.875C105.427 575.875 105.401 575.859 105.391 575.828C105.38 575.802 105.375 575.768 105.375 575.727C105.375 575.685 105.383 575.615 105.398 575.516C105.414 575.422 105.43 575.307 105.445 575.172C105.466 575.036 105.484 574.883 105.5 574.711C105.516 574.539 105.523 574.354 105.523 574.156C105.523 573.802 105.49 573.44 105.422 573.07C105.354 572.695 105.279 572.344 105.195 572.016C105.112 571.688 105.036 571.398 104.969 571.148C104.901 570.898 104.867 570.719 104.867 570.609C104.867 570.562 104.878 570.518 104.898 570.477C104.914 570.435 104.951 570.414 105.008 570.414C105.086 570.414 105.159 570.471 105.227 570.586C105.294 570.695 105.365 570.841 105.438 571.023C105.484 571.148 105.544 571.302 105.617 571.484C105.695 571.667 105.781 571.865 105.875 572.078C105.969 572.287 106.07 572.505 106.18 572.734C106.294 572.963 106.417 573.188 106.547 573.406C106.771 573.792 107.005 574.112 107.25 574.367C107.495 574.622 107.745 574.825 108 574.977C108.26 575.133 108.523 575.242 108.789 575.305C109.055 575.372 109.32 575.406 109.586 575.406C109.904 575.406 110.177 575.346 110.406 575.227C110.641 575.107 110.833 574.951 110.984 574.758C111.135 574.565 111.245 574.349 111.312 574.109C111.385 573.87 111.422 573.63 111.422 573.391C111.422 572.917 111.357 572.474 111.227 572.062C111.102 571.646 110.935 571.25 110.727 570.875C110.523 570.495 110.289 570.13 110.023 569.781C109.758 569.432 109.484 569.091 109.203 568.758C108.927 568.424 108.656 568.094 108.391 567.766C108.125 567.438 107.888 567.104 107.68 566.766C107.477 566.422 107.31 566.07 107.18 565.711C107.055 565.346 106.992 564.964 106.992 564.562C106.992 564.172 107.042 563.828 107.141 563.531C107.24 563.234 107.37 562.977 107.531 562.758C107.698 562.539 107.885 562.357 108.094 562.211C108.307 562.06 108.526 561.94 108.75 561.852C108.979 561.763 109.206 561.701 109.43 561.664C109.659 561.622 109.87 561.602 110.062 561.602ZM115.977 563.938C116.018 563.938 116.06 564.005 116.102 564.141C116.143 564.271 116.185 564.443 116.227 564.656C116.268 564.87 116.31 565.117 116.352 565.398C116.393 565.674 116.435 565.956 116.477 566.242L116.758 568.211C116.784 568.039 116.828 567.841 116.891 567.617C116.958 567.393 117.047 567.161 117.156 566.922C117.266 566.682 117.398 566.448 117.555 566.219C117.711 565.99 117.891 565.784 118.094 565.602C118.302 565.419 118.534 565.273 118.789 565.164C119.05 565.049 119.339 564.992 119.656 564.992C120.047 564.992 120.385 565.068 120.672 565.219C120.958 565.365 121.195 565.57 121.383 565.836C121.57 566.096 121.708 566.409 121.797 566.773C121.885 567.138 121.93 567.536 121.93 567.969C121.93 568.359 121.906 568.753 121.859 569.148C121.818 569.539 121.771 569.924 121.719 570.305C121.672 570.685 121.625 571.052 121.578 571.406C121.536 571.76 121.516 572.091 121.516 572.398C121.516 572.581 121.531 572.74 121.562 572.875C121.594 573.01 121.641 573.135 121.703 573.25C121.776 573.359 121.865 573.456 121.969 573.539C122.078 573.617 122.18 573.693 122.273 573.766C122.372 573.833 122.456 573.904 122.523 573.977C122.596 574.044 122.633 574.117 122.633 574.195C122.633 574.242 122.62 574.281 122.594 574.312C122.568 574.349 122.523 574.367 122.461 574.367C122.367 574.367 122.263 574.331 122.148 574.258C122.039 574.19 121.901 574.104 121.734 574C121.573 573.891 121.378 573.776 121.148 573.656C120.919 573.531 120.641 573.417 120.312 573.312C120.068 573.229 119.82 573.164 119.57 573.117C119.326 573.07 119.039 573.039 118.711 573.023C118.529 573.008 118.438 572.956 118.438 572.867C118.438 572.768 118.497 572.719 118.617 572.719C118.69 572.719 118.792 572.719 118.922 572.719C119.052 572.719 119.185 572.714 119.32 572.703C119.529 572.688 119.7 572.625 119.836 572.516C119.971 572.401 120.073 572.193 120.141 571.891C120.161 571.771 120.182 571.62 120.203 571.438C120.224 571.25 120.242 571.052 120.258 570.844C120.273 570.63 120.287 570.414 120.297 570.195C120.307 569.977 120.312 569.768 120.312 569.57C120.312 569.393 120.31 569.19 120.305 568.961C120.299 568.727 120.281 568.484 120.25 568.234C120.224 567.984 120.18 567.74 120.117 567.5C120.06 567.26 119.974 567.047 119.859 566.859C119.745 566.672 119.599 566.521 119.422 566.406C119.245 566.286 119.029 566.227 118.773 566.227C118.555 566.227 118.354 566.281 118.172 566.391C117.995 566.5 117.836 566.654 117.695 566.852C117.555 567.044 117.435 567.273 117.336 567.539C117.237 567.805 117.162 568.096 117.109 568.414C117.052 568.737 117.013 569.07 116.992 569.414C116.977 569.753 116.969 570.091 116.969 570.43C116.969 570.716 116.979 570.992 117 571.258C117.021 571.518 117.049 571.76 117.086 571.984C117.122 572.203 117.167 572.398 117.219 572.57C117.271 572.742 117.331 572.878 117.398 572.977C117.497 573.112 117.604 573.214 117.719 573.281C117.833 573.349 117.93 573.396 118.008 573.422C118.112 573.453 118.185 573.482 118.227 573.508C118.273 573.529 118.297 573.56 118.297 573.602C118.297 573.633 118.271 573.661 118.219 573.688C118.172 573.714 118.091 573.727 117.977 573.727C117.867 573.727 117.747 573.719 117.617 573.703C117.487 573.682 117.352 573.662 117.211 573.641C117.07 573.62 116.924 573.602 116.773 573.586C116.622 573.565 116.474 573.555 116.328 573.555C116.182 573.555 116.034 573.56 115.883 573.57C115.732 573.581 115.586 573.591 115.445 573.602C115.31 573.612 115.185 573.622 115.07 573.633C114.956 573.643 114.865 573.648 114.797 573.648C114.594 573.648 114.492 573.583 114.492 573.453C114.492 573.406 114.508 573.367 114.539 573.336C114.576 573.3 114.638 573.276 114.727 573.266C114.8 573.26 114.865 573.255 114.922 573.25C114.979 573.245 115.036 573.242 115.094 573.242C115.156 573.237 115.219 573.232 115.281 573.227C115.349 573.221 115.427 573.214 115.516 573.203C115.682 573.177 115.794 573.117 115.852 573.023C115.914 572.925 115.945 572.792 115.945 572.625C115.945 572.338 115.919 571.99 115.867 571.578C115.82 571.167 115.755 570.713 115.672 570.219C115.589 569.724 115.487 569.201 115.367 568.648C115.253 568.091 115.13 567.523 115 566.945C114.938 566.648 114.865 566.427 114.781 566.281C114.703 566.135 114.588 566.062 114.438 566.062C114.359 566.062 114.279 566.078 114.195 566.109C114.112 566.135 114.029 566.167 113.945 566.203C113.867 566.234 113.792 566.266 113.719 566.297C113.646 566.323 113.578 566.336 113.516 566.336C113.417 566.336 113.367 566.294 113.367 566.211C113.367 566.143 113.393 566.096 113.445 566.07C113.503 566.039 113.562 566.01 113.625 565.984C113.771 565.927 113.927 565.854 114.094 565.766C114.266 565.677 114.45 565.557 114.648 565.406C114.841 565.255 115.013 565.094 115.164 564.922C115.315 564.75 115.445 564.591 115.555 564.445C115.664 564.299 115.753 564.18 115.82 564.086C115.888 563.987 115.94 563.938 115.977 563.938ZM125.062 568.367C124.87 568.367 124.687 568.331 124.516 568.258C124.349 568.185 124.203 568.076 124.078 567.93C123.953 567.784 123.854 567.602 123.781 567.383C123.708 567.164 123.672 566.906 123.672 566.609C123.672 566.286 123.716 565.971 123.805 565.664C123.898 565.352 124.042 565.076 124.234 564.836C124.427 564.591 124.672 564.396 124.969 564.25C125.271 564.104 125.633 564.031 126.055 564.031C126.404 564.031 126.711 564.078 126.977 564.172C127.247 564.26 127.484 564.383 127.688 564.539C127.891 564.69 128.063 564.867 128.203 565.07C128.349 565.273 128.471 565.487 128.57 565.711C128.669 565.93 128.75 566.154 128.812 566.383C128.88 566.607 128.937 566.82 128.984 567.023C129.01 567.138 129.042 567.302 129.078 567.516C129.12 567.724 129.164 567.966 129.211 568.242C129.258 568.518 129.307 568.815 129.359 569.133C129.411 569.445 129.464 569.763 129.516 570.086C129.568 570.409 129.617 570.724 129.664 571.031C129.716 571.333 129.763 571.612 129.805 571.867C129.846 572.117 129.88 572.333 129.906 572.516C129.937 572.693 129.961 572.815 129.977 572.883C130.008 573.044 130.042 573.208 130.078 573.375C130.12 573.542 130.169 573.695 130.227 573.836C130.289 573.971 130.365 574.083 130.453 574.172C130.542 574.26 130.654 574.305 130.789 574.305C130.867 574.305 130.935 574.286 130.992 574.25C131.05 574.214 131.094 574.164 131.125 574.102C131.161 574.039 131.188 573.969 131.203 573.891C131.219 573.813 131.227 573.732 131.227 573.648C131.227 573.55 131.224 573.45 131.219 573.352C131.214 573.247 131.211 573.159 131.211 573.086C131.211 573.008 131.221 572.94 131.242 572.883C131.263 572.826 131.305 572.797 131.367 572.797C131.425 572.797 131.469 572.831 131.5 572.898C131.536 572.961 131.563 573.036 131.578 573.125C131.599 573.208 131.612 573.294 131.617 573.383C131.622 573.466 131.625 573.529 131.625 573.57C131.625 573.753 131.609 573.958 131.578 574.188C131.547 574.417 131.482 574.638 131.383 574.852C131.289 575.07 131.133 575.25 130.914 575.391C130.695 575.531 130.443 575.602 130.156 575.602C129.906 575.602 129.69 575.565 129.508 575.492C129.331 575.419 129.177 575.328 129.047 575.219C128.922 575.109 128.815 574.992 128.727 574.867C128.643 574.742 128.575 574.625 128.523 574.516C128.378 574.234 128.266 573.927 128.188 573.594C128.115 573.255 128.055 572.932 128.008 572.625C127.93 572.755 127.81 572.917 127.648 573.109C127.492 573.302 127.297 573.487 127.062 573.664C126.828 573.841 126.557 573.992 126.25 574.117C125.943 574.242 125.602 574.305 125.227 574.305C124.81 574.305 124.453 574.245 124.156 574.125C123.865 574.01 123.625 573.854 123.438 573.656C123.25 573.453 123.112 573.219 123.023 572.953C122.935 572.682 122.891 572.396 122.891 572.094C122.891 571.771 122.951 571.445 123.07 571.117C123.19 570.789 123.385 570.492 123.656 570.227C123.932 569.961 124.289 569.745 124.727 569.578C125.169 569.411 125.708 569.328 126.344 569.328C126.49 569.328 126.63 569.336 126.766 569.352C126.906 569.362 127.031 569.375 127.141 569.391C127.255 569.406 127.352 569.422 127.43 569.438C127.513 569.453 127.573 569.464 127.609 569.469C127.578 569.021 127.539 568.573 127.492 568.125C127.471 567.938 127.448 567.74 127.422 567.531C127.401 567.323 127.378 567.115 127.352 566.906C127.326 566.693 127.297 566.484 127.266 566.281C127.234 566.078 127.201 565.888 127.164 565.711C127.081 565.31 126.917 564.992 126.672 564.758C126.432 564.518 126.125 564.398 125.75 564.398C125.547 564.398 125.367 564.435 125.211 564.508C125.06 564.581 124.93 564.674 124.82 564.789C124.716 564.904 124.638 565.034 124.586 565.18C124.534 565.32 124.508 565.461 124.508 565.602C124.508 565.753 124.544 565.88 124.617 565.984C124.69 566.083 124.779 566.172 124.883 566.25C124.992 566.328 125.109 566.404 125.234 566.477C125.359 566.544 125.474 566.625 125.578 566.719C125.688 566.807 125.779 566.917 125.852 567.047C125.925 567.172 125.961 567.331 125.961 567.523C125.961 567.779 125.872 567.984 125.695 568.141C125.523 568.292 125.312 568.367 125.062 568.367ZM127.672 569.953C127.635 569.938 127.57 569.919 127.477 569.898C127.388 569.872 127.281 569.849 127.156 569.828C127.031 569.802 126.896 569.781 126.75 569.766C126.609 569.75 126.469 569.742 126.328 569.742C126.052 569.742 125.794 569.781 125.555 569.859C125.32 569.937 125.117 570.055 124.945 570.211C124.773 570.362 124.638 570.555 124.539 570.789C124.44 571.018 124.391 571.284 124.391 571.586C124.391 571.862 124.435 572.091 124.523 572.273C124.617 572.451 124.734 572.591 124.875 572.695C125.021 572.8 125.18 572.872 125.352 572.914C125.529 572.956 125.701 572.977 125.867 572.977C126.133 572.977 126.385 572.935 126.625 572.852C126.865 572.768 127.075 572.672 127.258 572.562C127.44 572.453 127.589 572.346 127.703 572.242C127.818 572.138 127.888 572.068 127.914 572.031C127.878 571.682 127.844 571.365 127.812 571.078C127.797 570.953 127.781 570.831 127.766 570.711C127.755 570.591 127.742 570.479 127.727 570.375C127.716 570.271 127.706 570.182 127.695 570.109C127.685 570.036 127.677 569.984 127.672 569.953ZM133.742 565.844C133.742 565.917 133.74 566.034 133.734 566.195C133.729 566.357 133.727 566.547 133.727 566.766C133.727 566.891 133.727 566.99 133.727 567.062C133.732 567.135 133.734 567.206 133.734 567.273C133.734 567.341 133.734 567.419 133.734 567.508C133.74 567.596 133.742 567.719 133.742 567.875C133.909 567.646 134.102 567.44 134.32 567.258C134.414 567.18 134.518 567.104 134.633 567.031C134.747 566.958 134.872 566.893 135.008 566.836C135.148 566.779 135.294 566.732 135.445 566.695C135.602 566.659 135.766 566.641 135.938 566.641C136.312 566.641 136.646 566.708 136.938 566.844C137.229 566.979 137.474 567.169 137.672 567.414C137.875 567.654 138.029 567.943 138.133 568.281C138.237 568.615 138.289 568.984 138.289 569.391C138.289 570 138.208 570.547 138.047 571.031C137.885 571.516 137.667 571.93 137.391 572.273C137.115 572.612 136.792 572.872 136.422 573.055C136.052 573.237 135.656 573.328 135.234 573.328C135.083 573.328 134.94 573.315 134.805 573.289C134.675 573.263 134.552 573.229 134.438 573.188C134.323 573.146 134.216 573.102 134.117 573.055C134.023 573.003 133.94 572.956 133.867 572.914C133.862 573.128 133.857 573.318 133.852 573.484C133.852 573.646 133.852 573.805 133.852 573.961C133.852 574.117 133.852 574.279 133.852 574.445C133.852 574.612 133.852 574.805 133.852 575.023C133.852 575.378 133.854 575.768 133.859 576.195C133.87 576.622 133.888 577.039 133.914 577.445C133.945 577.857 133.987 578.232 134.039 578.57C134.091 578.909 134.164 579.162 134.258 579.328C134.346 579.49 134.456 579.617 134.586 579.711C134.716 579.805 134.846 579.88 134.977 579.938C135.138 580.01 135.279 580.083 135.398 580.156C135.523 580.229 135.586 580.305 135.586 580.383C135.586 580.44 135.568 580.487 135.531 580.523C135.495 580.56 135.432 580.578 135.344 580.578C135.203 580.578 135.005 580.555 134.75 580.508C134.5 580.466 134.227 580.419 133.93 580.367C133.638 580.315 133.346 580.266 133.055 580.219C132.763 580.177 132.508 580.156 132.289 580.156C132.055 580.156 131.859 580.164 131.703 580.18C131.547 580.201 131.383 580.211 131.211 580.211C130.982 580.211 130.826 580.195 130.742 580.164C130.664 580.138 130.625 580.104 130.625 580.062C130.625 580.016 130.651 579.984 130.703 579.969C130.755 579.953 130.826 579.937 130.914 579.922C131.003 579.906 131.102 579.88 131.211 579.844C131.32 579.812 131.435 579.758 131.555 579.68C131.68 579.591 131.779 579.479 131.852 579.344C131.93 579.213 131.99 579.068 132.031 578.906C132.073 578.745 132.102 578.575 132.117 578.398C132.133 578.227 132.146 578.057 132.156 577.891C132.167 577.76 132.177 577.56 132.188 577.289C132.198 577.023 132.208 576.711 132.219 576.352C132.229 575.997 132.24 575.609 132.25 575.188C132.266 574.766 132.279 574.331 132.289 573.883C132.3 573.435 132.31 572.99 132.32 572.547C132.331 572.099 132.339 571.675 132.344 571.273C132.349 570.872 132.354 570.505 132.359 570.172C132.365 569.833 132.367 569.552 132.367 569.328C132.367 568.995 132.357 568.721 132.336 568.508C132.32 568.289 132.292 568.117 132.25 567.992C132.208 567.862 132.154 567.773 132.086 567.727C132.018 567.674 131.935 567.648 131.836 567.648C131.758 567.648 131.674 567.664 131.586 567.695C131.503 567.727 131.417 567.76 131.328 567.797C131.245 567.828 131.167 567.859 131.094 567.891C131.021 567.922 130.961 567.938 130.914 567.938C130.826 567.938 130.781 567.893 130.781 567.805C130.781 567.773 130.797 567.737 130.828 567.695C130.859 567.654 130.94 567.602 131.07 567.539C131.154 567.492 131.253 567.445 131.367 567.398C131.482 567.346 131.604 567.289 131.734 567.227C131.87 567.159 132.008 567.081 132.148 566.992C132.294 566.898 132.438 566.786 132.578 566.656C132.766 566.484 132.917 566.331 133.031 566.195C133.151 566.06 133.247 565.948 133.32 565.859C133.398 565.766 133.458 565.695 133.5 565.648C133.547 565.596 133.591 565.57 133.633 565.57C133.68 565.57 133.708 565.599 133.719 565.656C133.734 565.708 133.742 565.771 133.742 565.844ZM135.18 567.406C134.956 567.406 134.76 567.458 134.594 567.562C134.432 567.667 134.294 567.805 134.18 567.977C134.065 568.148 133.971 568.344 133.898 568.562C133.831 568.781 133.776 569.008 133.734 569.242C133.693 569.471 133.664 569.698 133.648 569.922C133.638 570.141 133.633 570.339 133.633 570.516C133.633 570.792 133.651 571.07 133.688 571.352C133.729 571.628 133.799 571.878 133.898 572.102C134.003 572.32 134.143 572.5 134.32 572.641C134.497 572.781 134.721 572.852 134.992 572.852C135.206 572.852 135.409 572.797 135.602 572.688C135.8 572.578 135.971 572.404 136.117 572.164C136.268 571.919 136.388 571.602 136.477 571.211C136.565 570.815 136.609 570.336 136.609 569.773C136.609 569.43 136.583 569.115 136.531 568.828C136.479 568.536 136.396 568.286 136.281 568.078C136.167 567.865 136.018 567.701 135.836 567.586C135.654 567.466 135.435 567.406 135.18 567.406Z" fill="white"/>
<path data-slot="2" d="M188 269H12V380H188V269Z" fill="#747373"/>
<path data-slot="1" d="M188 147H12V258H188V147Z" fill="#747373"/>
<path data-slot="0" d="M188 24H12V135H188V24Z" fill="#747373"/>
<path data-slot="3" d="M188 392H12V503H188V392Z" fill="#747373"/>
</svg>
