<svg width="200" height="634" viewBox="0 0 200 634" fill="none" xmlns="http://www.w3.org/2000/svg">
<rect width="200" height="634" fill="#1E1E1E"/>
<g clip-path="url(#clip0_0_1)">
<path id="bg" d="M200 0H0V634H200V0Z" fill="#D9D9D9"/>
<g clip-path="url(#clip1_0_1)">
<path d="M66.5156 563.602C66.7969 563.602 67.0443 563.628 67.2578 563.68C67.4714 563.732 67.6589 563.792 67.8203 563.859C67.987 563.922 68.1302 563.979 68.25 564.031C68.375 564.083 68.4844 564.109 68.5781 564.109C68.6458 564.109 68.7031 564.081 68.75 564.023C68.7969 563.966 68.8385 563.896 68.875 563.812C68.9115 563.729 68.9427 563.638 68.9688 563.539C68.9948 563.44 69.0208 563.349 69.0469 563.266C69.0781 563.146 69.112 563.044 69.1484 562.961C69.1901 562.872 69.2474 562.828 69.3203 562.828C69.4037 562.828 69.4453 562.904 69.4453 563.055C69.4453 563.138 69.4349 563.232 69.4141 563.336C69.3984 563.44 69.375 563.565 69.3438 563.711C69.3177 563.852 69.2865 564.018 69.25 564.211C69.2188 564.398 69.1875 564.617 69.1563 564.867C69.1146 565.174 69.0859 565.448 69.0703 565.688C69.0599 565.922 69.0495 566.12 69.0391 566.281C69.0287 566.438 69.013 566.557 68.9922 566.641C68.9766 566.724 68.9453 566.766 68.8984 566.766C68.862 566.766 68.8333 566.747 68.8125 566.711C68.7917 566.669 68.7734 566.62 68.7578 566.562C68.7422 566.505 68.7292 566.448 68.7188 566.391C68.7083 566.333 68.7005 566.284 68.6953 566.242C68.6693 566.107 68.6354 565.958 68.5938 565.797C68.5573 565.63 68.5052 565.464 68.4375 565.297C68.3698 565.125 68.2865 564.958 68.1875 564.797C68.0885 564.635 67.9635 564.492 67.8125 564.367C67.6667 564.242 67.4922 564.143 67.2891 564.07C67.0859 563.992 66.849 563.953 66.5781 563.953C66.0885 563.953 65.7083 564.099 65.4375 564.391C65.1667 564.682 65.0313 565.112 65.0313 565.68C65.0313 565.966 65.099 566.258 65.2344 566.555C65.375 566.846 65.5573 567.148 65.7813 567.461C66.0104 567.773 66.2682 568.094 66.5547 568.422C66.8412 568.75 67.1354 569.089 67.4375 569.438C67.7396 569.786 68.0339 570.146 68.3203 570.516C68.6068 570.885 68.862 571.268 69.0859 571.664C69.3151 572.06 69.4974 572.471 69.6328 572.898C69.7734 573.32 69.8438 573.758 69.8438 574.211C69.8438 574.836 69.7422 575.38 69.5391 575.844C69.3359 576.302 69.0625 576.682 68.7188 576.984C68.375 577.292 67.9766 577.518 67.5234 577.664C67.0703 577.815 66.5964 577.891 66.1016 577.891C65.7162 577.891 65.3776 577.844 65.0859 577.75C64.7995 577.661 64.5391 577.562 64.3047 577.453C64.0755 577.349 63.8646 577.25 63.6719 577.156C63.4844 577.068 63.2969 577.023 63.1094 577.023C62.9635 577.023 62.8281 577.068 62.7031 577.156C62.5833 577.245 62.4714 577.341 62.3672 577.445C62.2682 577.555 62.1797 577.654 62.1016 577.742C62.0287 577.831 61.9688 577.875 61.9219 577.875C61.8802 577.875 61.8542 577.859 61.8438 577.828C61.8333 577.802 61.8281 577.768 61.8281 577.727C61.8281 577.685 61.8359 577.615 61.8516 577.516C61.8672 577.422 61.8828 577.307 61.8984 577.172C61.9193 577.036 61.9375 576.883 61.9531 576.711C61.9688 576.539 61.9766 576.354 61.9766 576.156C61.9766 575.802 61.9427 575.44 61.875 575.07C61.8073 574.695 61.7318 574.344 61.6484 574.016C61.5651 573.688 61.4896 573.398 61.4219 573.148C61.3542 572.898 61.3203 572.719 61.3203 572.609C61.3203 572.562 61.3307 572.518 61.3516 572.477C61.3672 572.435 61.4036 572.414 61.4609 572.414C61.5391 572.414 61.612 572.471 61.6797 572.586C61.7474 572.695 61.8177 572.841 61.8906 573.023C61.9375 573.148 61.9974 573.302 62.0703 573.484C62.1484 573.667 62.2344 573.865 62.3281 574.078C62.4219 574.286 62.5234 574.505 62.6328 574.734C62.7474 574.964 62.8698 575.188 63 575.406C63.224 575.792 63.4583 576.112 63.7031 576.367C63.9479 576.622 64.1979 576.825 64.4531 576.977C64.7135 577.133 64.9766 577.242 65.2422 577.305C65.5078 577.372 65.7734 577.406 66.0391 577.406C66.3568 577.406 66.6302 577.346 66.8594 577.227C67.0938 577.107 67.2865 576.951 67.4375 576.758C67.5885 576.565 67.6979 576.349 67.7656 576.109C67.8385 575.87 67.875 575.63 67.875 575.391C67.875 574.917 67.8099 574.474 67.6797 574.062C67.5547 573.646 67.388 573.25 67.1797 572.875C66.9766 572.495 66.7422 572.13 66.4766 571.781C66.2109 571.432 65.9375 571.091 65.6563 570.758C65.3802 570.424 65.1094 570.094 64.8438 569.766C64.5781 569.438 64.3412 569.104 64.1328 568.766C63.9297 568.422 63.763 568.07 63.6328 567.711C63.5078 567.346 63.4453 566.964 63.4453 566.562C63.4453 566.172 63.4948 565.828 63.5938 565.531C63.6927 565.234 63.8229 564.977 63.9844 564.758C64.151 564.539 64.3385 564.357 64.5469 564.211C64.7604 564.06 64.9792 563.94 65.2031 563.852C65.4323 563.763 65.6589 563.701 65.8828 563.664C66.112 563.622 66.3229 563.602 66.5156 563.602ZM72.2188 563.469C72.526 563.469 72.7708 563.549 72.9531 563.711C73.1354 563.872 73.2266 564.102 73.2266 564.398C73.2266 564.596 73.1953 564.763 73.1328 564.898C73.0703 565.029 72.9896 565.135 72.8906 565.219C72.7917 565.297 72.6823 565.354 72.5625 565.391C72.4479 565.422 72.3333 565.438 72.2188 565.438C72.1198 565.438 72.0156 565.422 71.9062 565.391C71.7969 565.359 71.6953 565.307 71.6016 565.234C71.5078 565.156 71.4297 565.057 71.3672 564.938C71.3099 564.812 71.2812 564.659 71.2812 564.477C71.2812 564.284 71.3125 564.125 71.375 564C71.4375 563.87 71.5156 563.766 71.6094 563.688C71.7031 563.609 71.8047 563.555 71.9141 563.523C72.0234 563.487 72.125 563.469 72.2188 563.469ZM73.3281 566.031C73.3802 566.031 73.4062 566.091 73.4062 566.211C73.4062 566.289 73.3958 566.419 73.375 566.602C73.3594 566.779 73.3385 566.969 73.3125 567.172C73.2708 567.495 73.2292 567.854 73.1875 568.25C73.1458 568.641 73.1042 569.044 73.0625 569.461C73.026 569.872 72.9896 570.281 72.9531 570.688C72.9219 571.094 72.8932 571.471 72.8672 571.82C72.8411 572.164 72.8203 572.469 72.8047 572.734C72.7891 572.995 72.7812 573.188 72.7812 573.312C72.7812 573.474 72.7917 573.607 72.8125 573.711C72.8333 573.815 72.8594 573.901 72.8906 573.969C72.9219 574.036 72.9557 574.091 72.9922 574.133C73.0339 574.175 73.0755 574.211 73.1172 574.242C73.1641 574.273 73.2214 574.302 73.2891 574.328C73.3568 574.354 73.4297 574.38 73.5078 574.406C73.5859 574.427 73.6641 574.445 73.7422 574.461C73.8255 574.477 73.901 574.487 73.9688 574.492C74.0781 574.513 74.1667 574.529 74.2344 574.539C74.3021 574.549 74.3359 574.583 74.3359 574.641C74.3359 574.745 74.224 574.797 74 574.797C73.8438 574.797 73.6875 574.786 73.5312 574.766C73.375 574.74 73.2135 574.711 73.0469 574.68C72.8854 574.648 72.7161 574.622 72.5391 574.602C72.362 574.575 72.1719 574.562 71.9688 574.562C71.7812 574.562 71.612 574.568 71.4609 574.578C71.3099 574.589 71.1719 574.602 71.0469 574.617C70.9219 574.633 70.8047 574.646 70.6953 574.656C70.5859 574.667 70.4766 574.672 70.3672 574.672C70.2787 574.672 70.1979 574.661 70.125 574.641C70.0521 574.615 70.0156 574.565 70.0156 574.492C70.0156 574.419 70.0547 574.37 70.1328 574.344C70.2162 574.312 70.2995 574.289 70.3828 574.273C70.487 574.253 70.5885 574.229 70.6875 574.203C70.7865 574.177 70.875 574.138 70.9531 574.086C71.0365 574.029 71.1042 573.956 71.1562 573.867C71.2135 573.773 71.25 573.654 71.2656 573.508C71.2865 573.221 71.3021 572.93 71.3125 572.633C71.3229 572.336 71.3307 572.044 71.3359 571.758C71.3411 571.466 71.3438 571.185 71.3438 570.914C71.3438 570.638 71.3438 570.38 71.3438 570.141C71.3438 569.854 71.3438 569.594 71.3438 569.359C71.3438 569.12 71.3385 568.917 71.3281 568.75C71.3177 568.484 71.2865 568.276 71.2344 568.125C71.1875 567.974 71.1172 567.862 71.0234 567.789C70.9349 567.716 70.8203 567.669 70.6797 567.648C70.5391 567.622 70.3698 567.602 70.1719 567.586C70.1146 567.576 70.0677 567.557 70.0313 567.531C70 567.505 69.9844 567.464 69.9844 567.406C69.9844 567.307 70.0625 567.25 70.2188 567.234C70.2969 567.229 70.3958 567.221 70.5156 567.211C70.6354 567.195 70.7734 567.174 70.9297 567.148C71.0911 567.122 71.2656 567.086 71.4531 567.039C71.6406 566.987 71.8385 566.917 72.0469 566.828C72.276 566.734 72.4635 566.641 72.6094 566.547C72.7604 566.453 72.8828 566.37 72.9766 566.297C73.0703 566.219 73.1432 566.156 73.1953 566.109C73.2474 566.057 73.2917 566.031 73.3281 566.031ZM76.8516 565.938C76.8932 565.938 76.9349 566.005 76.9766 566.141C77.0182 566.271 77.0599 566.443 77.1016 566.656C77.1432 566.87 77.1849 567.117 77.2266 567.398C77.2682 567.674 77.3099 567.956 77.3516 568.242L77.6328 570.211C77.6589 570.039 77.7031 569.841 77.7656 569.617C77.8333 569.393 77.9219 569.161 78.0312 568.922C78.1406 568.682 78.2734 568.448 78.4297 568.219C78.5859 567.99 78.7656 567.784 78.9688 567.602C79.1771 567.419 79.4089 567.273 79.6641 567.164C79.9245 567.049 80.2135 566.992 80.5312 566.992C80.9219 566.992 81.2604 567.068 81.5469 567.219C81.8333 567.365 82.0703 567.57 82.2578 567.836C82.4453 568.096 82.5833 568.409 82.6719 568.773C82.7604 569.138 82.8047 569.536 82.8047 569.969C82.8047 570.359 82.7812 570.753 82.7344 571.148C82.6927 571.539 82.6458 571.924 82.5938 572.305C82.5469 572.685 82.5 573.052 82.4531 573.406C82.4115 573.76 82.3906 574.091 82.3906 574.398C82.3906 574.581 82.4062 574.74 82.4375 574.875C82.4688 575.01 82.5156 575.135 82.5781 575.25C82.651 575.359 82.7396 575.456 82.8438 575.539C82.9531 575.617 83.0547 575.693 83.1484 575.766C83.2474 575.833 83.3307 575.904 83.3984 575.977C83.4714 576.044 83.5078 576.117 83.5078 576.195C83.5078 576.242 83.4948 576.281 83.4688 576.312C83.4427 576.349 83.3984 576.367 83.3359 576.367C83.2422 576.367 83.138 576.331 83.0234 576.258C82.9141 576.19 82.776 576.104 82.6094 576C82.4479 575.891 82.2526 575.776 82.0234 575.656C81.7943 575.531 81.5156 575.417 81.1875 575.312C80.9427 575.229 80.6953 575.164 80.4453 575.117C80.2005 575.07 79.9141 575.039 79.5859 575.023C79.4036 575.008 79.3125 574.956 79.3125 574.867C79.3125 574.768 79.3724 574.719 79.4922 574.719C79.5651 574.719 79.6667 574.719 79.7969 574.719C79.9271 574.719 80.0599 574.714 80.1953 574.703C80.4036 574.688 80.5755 574.625 80.7109 574.516C80.8464 574.401 80.9479 574.193 81.0156 573.891C81.0365 573.771 81.0573 573.62 81.0781 573.438C81.099 573.25 81.1172 573.052 81.1328 572.844C81.1484 572.63 81.1615 572.414 81.1719 572.195C81.1823 571.977 81.1875 571.768 81.1875 571.57C81.1875 571.393 81.1849 571.19 81.1797 570.961C81.1745 570.727 81.1562 570.484 81.125 570.234C81.099 569.984 81.0547 569.74 80.9922 569.5C80.9349 569.26 80.849 569.047 80.7344 568.859C80.6198 568.672 80.474 568.521 80.2969 568.406C80.1198 568.286 79.9036 568.227 79.6484 568.227C79.4297 568.227 79.2292 568.281 79.0469 568.391C78.8698 568.5 78.7109 568.654 78.5703 568.852C78.4297 569.044 78.3099 569.273 78.2109 569.539C78.112 569.805 78.0365 570.096 77.9844 570.414C77.9271 570.737 77.888 571.07 77.8672 571.414C77.8516 571.753 77.8438 572.091 77.8438 572.43C77.8438 572.716 77.8542 572.992 77.875 573.258C77.8958 573.518 77.9245 573.76 77.9609 573.984C77.9974 574.203 78.0417 574.398 78.0938 574.57C78.1458 574.742 78.2057 574.878 78.2734 574.977C78.3724 575.112 78.4792 575.214 78.5938 575.281C78.7083 575.349 78.8047 575.396 78.8828 575.422C78.987 575.453 79.0599 575.482 79.1016 575.508C79.1484 575.529 79.1719 575.56 79.1719 575.602C79.1719 575.633 79.1458 575.661 79.0938 575.688C79.0469 575.714 78.9661 575.727 78.8516 575.727C78.7422 575.727 78.6224 575.719 78.4922 575.703C78.362 575.682 78.2266 575.661 78.0859 575.641C77.9453 575.62 77.7995 575.602 77.6484 575.586C77.4974 575.565 77.349 575.555 77.2031 575.555C77.0573 575.555 76.9089 575.56 76.7578 575.57C76.6068 575.581 76.4609 575.591 76.3203 575.602C76.1849 575.612 76.0599 575.622 75.9453 575.633C75.8307 575.643 75.7396 575.648 75.6719 575.648C75.4688 575.648 75.3672 575.583 75.3672 575.453C75.3672 575.406 75.3828 575.367 75.4141 575.336C75.4505 575.3 75.513 575.276 75.6016 575.266C75.6745 575.26 75.7396 575.255 75.7969 575.25C75.8542 575.245 75.9115 575.242 75.9688 575.242C76.0312 575.237 76.0938 575.232 76.1562 575.227C76.224 575.221 76.3021 575.214 76.3906 575.203C76.5573 575.177 76.6693 575.117 76.7266 575.023C76.7891 574.925 76.8203 574.792 76.8203 574.625C76.8203 574.339 76.7943 573.99 76.7422 573.578C76.6953 573.167 76.6302 572.714 76.5469 572.219C76.4635 571.724 76.362 571.201 76.2422 570.648C76.1276 570.091 76.0052 569.523 75.875 568.945C75.8125 568.648 75.7396 568.427 75.6562 568.281C75.5781 568.135 75.4635 568.062 75.3125 568.062C75.2344 568.062 75.1536 568.078 75.0703 568.109C74.987 568.135 74.9036 568.167 74.8203 568.203C74.7422 568.234 74.6667 568.266 74.5938 568.297C74.5208 568.323 74.4531 568.336 74.3906 568.336C74.2917 568.336 74.2422 568.294 74.2422 568.211C74.2422 568.143 74.2682 568.096 74.3203 568.07C74.3776 568.039 74.4375 568.01 74.5 567.984C74.6458 567.927 74.8021 567.854 74.9688 567.766C75.1406 567.677 75.3255 567.557 75.5234 567.406C75.7161 567.255 75.888 567.094 76.0391 566.922C76.1901 566.75 76.3203 566.591 76.4297 566.445C76.5391 566.299 76.6276 566.18 76.6953 566.086C76.763 565.987 76.8151 565.938 76.8516 565.938ZM91.2969 566.516C91.5625 566.516 91.8021 566.557 92.0156 566.641C92.2292 566.719 92.4115 566.828 92.5625 566.969C92.7135 567.109 92.8281 567.273 92.9062 567.461C92.9896 567.648 93.0312 567.849 93.0312 568.062C93.0312 568.484 92.9297 568.812 92.7266 569.047C92.5286 569.276 92.2604 569.391 91.9219 569.391C91.7812 569.391 91.651 569.37 91.5312 569.328C91.4115 569.286 91.3073 569.224 91.2188 569.141C91.1302 569.057 91.0599 568.956 91.0078 568.836C90.9557 568.716 90.9297 568.581 90.9297 568.43C90.9297 568.263 90.9505 568.115 90.9922 567.984C91.0391 567.849 91.0625 567.716 91.0625 567.586C91.0625 567.409 91.0104 567.286 90.9062 567.219C90.8021 567.151 90.6823 567.117 90.5469 567.117C90.3698 567.117 90.1901 567.177 90.0078 567.297C89.8307 567.417 89.6849 567.576 89.5703 567.773C89.5234 567.862 89.4818 567.956 89.4453 568.055C89.4141 568.148 89.3984 568.232 89.3984 568.305C89.3984 568.346 89.4219 568.393 89.4688 568.445C89.5156 568.492 89.5755 568.547 89.6484 568.609C89.7266 568.672 89.8125 568.745 89.9062 568.828C90.0052 568.906 90.1016 568.997 90.1953 569.102C90.362 569.284 90.513 569.513 90.6484 569.789C90.7839 570.065 90.8516 570.391 90.8516 570.766C90.8516 571.182 90.8047 571.547 90.7109 571.859C90.6172 572.167 90.487 572.435 90.3203 572.664C90.1589 572.888 89.9688 573.075 89.75 573.227C89.5312 573.372 89.2943 573.49 89.0391 573.578C88.7891 573.667 88.526 573.729 88.25 573.766C87.9792 573.802 87.7109 573.82 87.4453 573.82H87.1406C86.8021 573.878 86.526 573.984 86.3125 574.141C86.1042 574.297 86 574.5 86 574.75C86 574.911 86.0521 575.047 86.1562 575.156C86.2604 575.266 86.3984 575.359 86.5703 575.438C86.7474 575.51 86.9505 575.57 87.1797 575.617C87.4089 575.659 87.6458 575.698 87.8906 575.734C88.1406 575.766 88.388 575.797 88.6328 575.828C88.8828 575.859 89.1146 575.896 89.3281 575.938C89.6875 576.01 90.0339 576.107 90.3672 576.227C90.7057 576.346 91.0026 576.505 91.2578 576.703C91.5182 576.906 91.7266 577.159 91.8828 577.461C92.0391 577.763 92.1172 578.13 92.1172 578.562C92.1172 578.901 92.0599 579.216 91.9453 579.508C91.8307 579.805 91.6719 580.075 91.4688 580.32C91.2656 580.57 91.026 580.797 90.75 581C90.474 581.203 90.1771 581.378 89.8594 581.523C89.4427 581.716 88.987 581.862 88.4922 581.961C87.9974 582.06 87.4818 582.109 86.9453 582.109C86.4453 582.109 85.9766 582.055 85.5391 581.945C85.1016 581.836 84.7188 581.667 84.3906 581.438C84.0677 581.213 83.8125 580.93 83.625 580.586C83.4375 580.242 83.3438 579.838 83.3438 579.375C83.3438 578.995 83.4062 578.651 83.5312 578.344C83.6562 578.036 83.8151 577.76 84.0078 577.516C84.2057 577.276 84.4245 577.065 84.6641 576.883C84.9089 576.701 85.1458 576.544 85.375 576.414C85.6094 576.284 85.8255 576.177 86.0234 576.094C86.2214 576.01 86.375 575.948 86.4844 575.906C86.3021 575.885 86.1172 575.849 85.9297 575.797C85.7474 575.745 85.5807 575.675 85.4297 575.586C85.2839 575.497 85.1641 575.385 85.0703 575.25C84.9766 575.109 84.9297 574.943 84.9297 574.75C84.9297 574.495 85.0391 574.279 85.2578 574.102C85.4818 573.919 85.7943 573.779 86.1953 573.68C85.8984 573.602 85.6224 573.49 85.3672 573.344C85.112 573.193 84.8906 573.008 84.7031 572.789C84.5156 572.57 84.3672 572.312 84.2578 572.016C84.1536 571.719 84.1016 571.383 84.1016 571.008C84.1016 570.544 84.1823 570.13 84.3438 569.766C84.5104 569.401 84.7344 569.094 85.0156 568.844C85.2969 568.589 85.6276 568.396 86.0078 568.266C86.388 568.13 86.7969 568.062 87.2344 568.062C87.3646 568.062 87.4974 568.07 87.6328 568.086C87.7682 568.096 87.8958 568.112 88.0156 568.133C88.1354 568.148 88.2448 568.164 88.3438 568.18C88.4479 568.19 88.5312 568.195 88.5938 568.195C88.724 568.195 88.8307 568.177 88.9141 568.141C89.0026 568.104 89.0833 568.026 89.1562 567.906C89.2604 567.74 89.375 567.573 89.5 567.406C89.625 567.24 89.7708 567.091 89.9375 566.961C90.1042 566.826 90.2969 566.719 90.5156 566.641C90.7396 566.557 91 566.516 91.2969 566.516ZM87.7812 568.531C87.5833 568.531 87.3854 568.578 87.1875 568.672C86.9948 568.76 86.8203 568.911 86.6641 569.125C86.513 569.333 86.388 569.607 86.2891 569.945C86.1953 570.284 86.1484 570.698 86.1484 571.188C86.1484 571.589 86.1901 571.932 86.2734 572.219C86.362 572.5 86.474 572.734 86.6094 572.922C86.75 573.104 86.9062 573.24 87.0781 573.328C87.25 573.411 87.4193 573.453 87.5859 573.453C87.7318 573.453 87.8984 573.419 88.0859 573.352C88.2734 573.279 88.4505 573.143 88.6172 572.945C88.7839 572.747 88.9245 572.474 89.0391 572.125C89.1589 571.776 89.2188 571.323 89.2188 570.766C89.2188 570.026 89.0885 569.469 88.8281 569.094C88.5729 568.719 88.224 568.531 87.7812 568.531ZM85.3281 578.883C85.3281 579.263 85.3828 579.617 85.4922 579.945C85.6068 580.279 85.7734 580.568 85.9922 580.812C86.2109 581.062 86.4792 581.258 86.7969 581.398C87.1146 581.544 87.4792 581.617 87.8906 581.617C88.3594 581.617 88.763 581.542 89.1016 581.391C89.4401 581.245 89.7188 581.05 89.9375 580.805C90.1562 580.565 90.3177 580.286 90.4219 579.969C90.526 579.656 90.5781 579.331 90.5781 578.992C90.5781 578.664 90.5365 578.354 90.4531 578.062C90.3698 577.776 90.2422 577.516 90.0703 577.281C89.8984 577.047 89.6771 576.841 89.4062 576.664C89.1354 576.492 88.8125 576.357 88.4375 576.258C88.1927 576.19 87.9583 576.138 87.7344 576.102C87.5104 576.07 87.3073 576.047 87.125 576.031C86.9427 576.141 86.7448 576.281 86.5312 576.453C86.3229 576.63 86.1276 576.836 85.9453 577.07C85.7682 577.31 85.6198 577.581 85.5 577.883C85.3854 578.185 85.3281 578.518 85.3281 578.883ZM97.8359 562.047C98.1693 562.047 98.4557 562.094 98.6953 562.188C98.9349 562.281 99.1328 562.409 99.2891 562.57C99.4453 562.732 99.5599 562.917 99.6328 563.125C99.7109 563.333 99.75 563.549 99.75 563.773C99.75 564.216 99.6589 564.638 99.4766 565.039C99.2943 565.44 99.0599 565.833 98.7734 566.219C98.487 566.604 98.1693 566.987 97.8203 567.367C97.4766 567.747 97.1406 568.141 96.8125 568.547C97.0208 568.984 97.2396 569.404 97.4688 569.805C97.6979 570.201 97.9167 570.56 98.125 570.883C98.3385 571.206 98.5312 571.487 98.7031 571.727C98.8802 571.966 99.0156 572.148 99.1094 572.273C99.1875 572.378 99.2865 572.5 99.4062 572.641C99.526 572.781 99.6615 572.935 99.8125 573.102C99.9635 573.263 100.128 573.432 100.305 573.609C100.487 573.781 100.672 573.953 100.859 574.125C101.083 573.87 101.279 573.599 101.445 573.312C101.612 573.021 101.75 572.729 101.859 572.438C101.969 572.146 102.049 571.859 102.102 571.578C102.159 571.292 102.188 571.026 102.188 570.781C102.188 570.271 102.112 569.909 101.961 569.695C101.81 569.482 101.617 569.375 101.383 569.375C101.216 569.375 101.018 569.401 100.789 569.453C100.56 569.5 100.326 569.552 100.086 569.609C99.8516 569.667 99.6276 569.721 99.4141 569.773C99.2005 569.82 99.026 569.844 98.8906 569.844C98.8073 569.844 98.7396 569.831 98.6875 569.805C98.6406 569.779 98.6172 569.737 98.6172 569.68C98.6172 569.612 98.6641 569.562 98.7578 569.531C98.8568 569.495 99.0026 569.453 99.1953 569.406C99.388 569.354 99.6276 569.281 99.9141 569.188C100.206 569.094 100.547 568.953 100.938 568.766C101.26 568.609 101.534 568.445 101.758 568.273C101.982 568.096 102.169 567.935 102.32 567.789C102.471 567.638 102.594 567.513 102.688 567.414C102.781 567.315 102.859 567.266 102.922 567.266C102.979 567.266 103.029 567.302 103.07 567.375C103.117 567.448 103.156 567.547 103.188 567.672C103.219 567.792 103.242 567.935 103.258 568.102C103.279 568.263 103.289 568.432 103.289 568.609C103.289 569.151 103.247 569.693 103.164 570.234C103.081 570.776 102.956 571.302 102.789 571.812C102.622 572.318 102.411 572.8 102.156 573.258C101.906 573.711 101.612 574.122 101.273 574.492C101.451 574.643 101.625 574.784 101.797 574.914C101.974 575.039 102.146 575.148 102.312 575.242C102.479 575.336 102.638 575.409 102.789 575.461C102.945 575.513 103.091 575.539 103.227 575.539C103.341 575.539 103.448 575.505 103.547 575.438C103.651 575.365 103.747 575.273 103.836 575.164C103.924 575.055 104.005 574.94 104.078 574.82C104.156 574.695 104.227 574.578 104.289 574.469C104.352 574.359 104.409 574.271 104.461 574.203C104.513 574.13 104.56 574.094 104.602 574.094C104.654 574.094 104.68 574.138 104.68 574.227C104.68 574.305 104.643 574.443 104.57 574.641C104.503 574.839 104.412 575.062 104.297 575.312C104.188 575.557 104.06 575.812 103.914 576.078C103.768 576.349 103.62 576.596 103.469 576.82C103.323 577.044 103.18 577.227 103.039 577.367C102.904 577.513 102.784 577.586 102.68 577.586C102.586 577.586 102.453 577.549 102.281 577.477C102.109 577.409 101.904 577.297 101.664 577.141C101.424 576.984 101.154 576.779 100.852 576.523C100.555 576.268 100.232 575.956 99.8828 575.586C99.513 575.784 99.112 575.94 98.6797 576.055C98.2526 576.169 97.7891 576.227 97.2891 576.227C96.6797 576.227 96.1198 576.146 95.6094 575.984C95.1042 575.823 94.6693 575.583 94.3047 575.266C93.9401 574.948 93.6562 574.552 93.4531 574.078C93.25 573.604 93.1484 573.055 93.1484 572.43C93.1484 572.008 93.2031 571.607 93.3125 571.227C93.4219 570.846 93.5703 570.482 93.7578 570.133C93.9453 569.784 94.1641 569.448 94.4141 569.125C94.6693 568.802 94.9401 568.492 95.2266 568.195C94.9401 567.273 94.7969 566.344 94.7969 565.406C94.7969 564.87 94.8724 564.393 95.0234 563.977C95.1797 563.555 95.3932 563.203 95.6641 562.922C95.9349 562.635 96.2552 562.419 96.625 562.273C97 562.122 97.4036 562.047 97.8359 562.047ZM98.2969 573.727C97.276 572.388 96.4714 571.094 95.8828 569.844C95.6745 570.214 95.5078 570.596 95.3828 570.992C95.2578 571.383 95.1953 571.799 95.1953 572.242C95.1953 572.711 95.2552 573.151 95.375 573.562C95.5 573.969 95.6797 574.323 95.9141 574.625C96.1536 574.922 96.4453 575.156 96.7891 575.328C97.1328 575.5 97.5234 575.586 97.9609 575.586C98.2526 575.586 98.5286 575.552 98.7891 575.484C99.0495 575.417 99.2969 575.328 99.5312 575.219C99.349 575 99.1484 574.771 98.9297 574.531C98.7161 574.286 98.5052 574.018 98.2969 573.727ZM95.7891 564.703C95.7891 565.115 95.8281 565.526 95.9062 565.938C95.9896 566.349 96.1042 566.766 96.25 567.188C96.5833 566.87 96.901 566.555 97.2031 566.242C97.5052 565.924 97.7682 565.612 97.9922 565.305C98.2161 564.992 98.3932 564.682 98.5234 564.375C98.6589 564.062 98.7266 563.75 98.7266 563.438C98.7266 563.109 98.6354 562.841 98.4531 562.633C98.2708 562.424 98 562.32 97.6406 562.32C97.4115 562.32 97.1849 562.365 96.9609 562.453C96.7422 562.536 96.5443 562.672 96.3672 562.859C96.1953 563.047 96.0547 563.292 95.9453 563.594C95.8411 563.896 95.7891 564.266 95.7891 564.703ZM110.062 563.602C110.344 563.602 110.591 563.628 110.805 563.68C111.018 563.732 111.206 563.792 111.367 563.859C111.534 563.922 111.677 563.979 111.797 564.031C111.922 564.083 112.031 564.109 112.125 564.109C112.193 564.109 112.25 564.081 112.297 564.023C112.344 563.966 112.385 563.896 112.422 563.812C112.458 563.729 112.49 563.638 112.516 563.539C112.542 563.44 112.568 563.349 112.594 563.266C112.625 563.146 112.659 563.044 112.695 562.961C112.737 562.872 112.794 562.828 112.867 562.828C112.951 562.828 112.992 562.904 112.992 563.055C112.992 563.138 112.982 563.232 112.961 563.336C112.945 563.44 112.922 563.565 112.891 563.711C112.865 563.852 112.833 564.018 112.797 564.211C112.766 564.398 112.734 564.617 112.703 564.867C112.661 565.174 112.633 565.448 112.617 565.688C112.607 565.922 112.596 566.12 112.586 566.281C112.576 566.438 112.56 566.557 112.539 566.641C112.523 566.724 112.492 566.766 112.445 566.766C112.409 566.766 112.38 566.747 112.359 566.711C112.339 566.669 112.32 566.62 112.305 566.562C112.289 566.505 112.276 566.448 112.266 566.391C112.255 566.333 112.247 566.284 112.242 566.242C112.216 566.107 112.182 565.958 112.141 565.797C112.104 565.63 112.052 565.464 111.984 565.297C111.917 565.125 111.833 564.958 111.734 564.797C111.635 564.635 111.51 564.492 111.359 564.367C111.214 564.242 111.039 564.143 110.836 564.07C110.633 563.992 110.396 563.953 110.125 563.953C109.635 563.953 109.255 564.099 108.984 564.391C108.714 564.682 108.578 565.112 108.578 565.68C108.578 565.966 108.646 566.258 108.781 566.555C108.922 566.846 109.104 567.148 109.328 567.461C109.557 567.773 109.815 568.094 110.102 568.422C110.388 568.75 110.682 569.089 110.984 569.438C111.287 569.786 111.581 570.146 111.867 570.516C112.154 570.885 112.409 571.268 112.633 571.664C112.862 572.06 113.044 572.471 113.18 572.898C113.32 573.32 113.391 573.758 113.391 574.211C113.391 574.836 113.289 575.38 113.086 575.844C112.883 576.302 112.609 576.682 112.266 576.984C111.922 577.292 111.523 577.518 111.07 577.664C110.617 577.815 110.143 577.891 109.648 577.891C109.263 577.891 108.924 577.844 108.633 577.75C108.346 577.661 108.086 577.562 107.852 577.453C107.622 577.349 107.411 577.25 107.219 577.156C107.031 577.068 106.844 577.023 106.656 577.023C106.51 577.023 106.375 577.068 106.25 577.156C106.13 577.245 106.018 577.341 105.914 577.445C105.815 577.555 105.727 577.654 105.648 577.742C105.576 577.831 105.516 577.875 105.469 577.875C105.427 577.875 105.401 577.859 105.391 577.828C105.38 577.802 105.375 577.768 105.375 577.727C105.375 577.685 105.383 577.615 105.398 577.516C105.414 577.422 105.43 577.307 105.445 577.172C105.466 577.036 105.484 576.883 105.5 576.711C105.516 576.539 105.523 576.354 105.523 576.156C105.523 575.802 105.49 575.44 105.422 575.07C105.354 574.695 105.279 574.344 105.195 574.016C105.112 573.688 105.036 573.398 104.969 573.148C104.901 572.898 104.867 572.719 104.867 572.609C104.867 572.562 104.878 572.518 104.898 572.477C104.914 572.435 104.951 572.414 105.008 572.414C105.086 572.414 105.159 572.471 105.227 572.586C105.294 572.695 105.365 572.841 105.438 573.023C105.484 573.148 105.544 573.302 105.617 573.484C105.695 573.667 105.781 573.865 105.875 574.078C105.969 574.286 106.07 574.505 106.18 574.734C106.294 574.964 106.417 575.188 106.547 575.406C106.771 575.792 107.005 576.112 107.25 576.367C107.495 576.622 107.745 576.825 108 576.977C108.26 577.133 108.523 577.242 108.789 577.305C109.055 577.372 109.32 577.406 109.586 577.406C109.904 577.406 110.177 577.346 110.406 577.227C110.641 577.107 110.833 576.951 110.984 576.758C111.135 576.565 111.245 576.349 111.312 576.109C111.385 575.87 111.422 575.63 111.422 575.391C111.422 574.917 111.357 574.474 111.227 574.062C111.102 573.646 110.935 573.25 110.727 572.875C110.523 572.495 110.289 572.13 110.023 571.781C109.758 571.432 109.484 571.091 109.203 570.758C108.927 570.424 108.656 570.094 108.391 569.766C108.125 569.438 107.888 569.104 107.68 568.766C107.477 568.422 107.31 568.07 107.18 567.711C107.055 567.346 106.992 566.964 106.992 566.562C106.992 566.172 107.042 565.828 107.141 565.531C107.24 565.234 107.37 564.977 107.531 564.758C107.698 564.539 107.885 564.357 108.094 564.211C108.307 564.06 108.526 563.94 108.75 563.852C108.979 563.763 109.206 563.701 109.43 563.664C109.659 563.622 109.87 563.602 110.062 563.602ZM115.977 565.938C116.018 565.938 116.06 566.005 116.102 566.141C116.143 566.271 116.185 566.443 116.227 566.656C116.268 566.87 116.31 567.117 116.352 567.398C116.393 567.674 116.435 567.956 116.477 568.242L116.758 570.211C116.784 570.039 116.828 569.841 116.891 569.617C116.958 569.393 117.047 569.161 117.156 568.922C117.266 568.682 117.398 568.448 117.555 568.219C117.711 567.99 117.891 567.784 118.094 567.602C118.302 567.419 118.534 567.273 118.789 567.164C119.049 567.049 119.339 566.992 119.656 566.992C120.047 566.992 120.385 567.068 120.672 567.219C120.958 567.365 121.195 567.57 121.383 567.836C121.57 568.096 121.708 568.409 121.797 568.773C121.885 569.138 121.93 569.536 121.93 569.969C121.93 570.359 121.906 570.753 121.859 571.148C121.818 571.539 121.771 571.924 121.719 572.305C121.672 572.685 121.625 573.052 121.578 573.406C121.536 573.76 121.516 574.091 121.516 574.398C121.516 574.581 121.531 574.74 121.562 574.875C121.594 575.01 121.641 575.135 121.703 575.25C121.776 575.359 121.865 575.456 121.969 575.539C122.078 575.617 122.18 575.693 122.273 575.766C122.372 575.833 122.456 575.904 122.523 575.977C122.596 576.044 122.633 576.117 122.633 576.195C122.633 576.242 122.62 576.281 122.594 576.312C122.568 576.349 122.523 576.367 122.461 576.367C122.367 576.367 122.263 576.331 122.148 576.258C122.039 576.19 121.901 576.104 121.734 576C121.573 575.891 121.378 575.776 121.148 575.656C120.919 575.531 120.641 575.417 120.312 575.312C120.068 575.229 119.82 575.164 119.57 575.117C119.326 575.07 119.039 575.039 118.711 575.023C118.529 575.008 118.438 574.956 118.438 574.867C118.438 574.768 118.497 574.719 118.617 574.719C118.69 574.719 118.792 574.719 118.922 574.719C119.052 574.719 119.185 574.714 119.32 574.703C119.529 574.688 119.701 574.625 119.836 574.516C119.971 574.401 120.073 574.193 120.141 573.891C120.161 573.771 120.182 573.62 120.203 573.438C120.224 573.25 120.242 573.052 120.258 572.844C120.273 572.63 120.287 572.414 120.297 572.195C120.307 571.977 120.312 571.768 120.312 571.57C120.312 571.393 120.31 571.19 120.305 570.961C120.299 570.727 120.281 570.484 120.25 570.234C120.224 569.984 120.18 569.74 120.117 569.5C120.06 569.26 119.974 569.047 119.859 568.859C119.745 568.672 119.599 568.521 119.422 568.406C119.245 568.286 119.029 568.227 118.773 568.227C118.555 568.227 118.354 568.281 118.172 568.391C117.995 568.5 117.836 568.654 117.695 568.852C117.555 569.044 117.435 569.273 117.336 569.539C117.237 569.805 117.162 570.096 117.109 570.414C117.052 570.737 117.013 571.07 116.992 571.414C116.977 571.753 116.969 572.091 116.969 572.43C116.969 572.716 116.979 572.992 117 573.258C117.021 573.518 117.049 573.76 117.086 573.984C117.122 574.203 117.167 574.398 117.219 574.57C117.271 574.742 117.331 574.878 117.398 574.977C117.497 575.112 117.604 575.214 117.719 575.281C117.833 575.349 117.93 575.396 118.008 575.422C118.112 575.453 118.185 575.482 118.227 575.508C118.273 575.529 118.297 575.56 118.297 575.602C118.297 575.633 118.271 575.661 118.219 575.688C118.172 575.714 118.091 575.727 117.977 575.727C117.867 575.727 117.747 575.719 117.617 575.703C117.487 575.682 117.352 575.661 117.211 575.641C117.07 575.62 116.924 575.602 116.773 575.586C116.622 575.565 116.474 575.555 116.328 575.555C116.182 575.555 116.034 575.56 115.883 575.57C115.732 575.581 115.586 575.591 115.445 575.602C115.31 575.612 115.185 575.622 115.07 575.633C114.956 575.643 114.865 575.648 114.797 575.648C114.594 575.648 114.492 575.583 114.492 575.453C114.492 575.406 114.508 575.367 114.539 575.336C114.576 575.3 114.638 575.276 114.727 575.266C114.799 575.26 114.865 575.255 114.922 575.25C114.979 575.245 115.036 575.242 115.094 575.242C115.156 575.237 115.219 575.232 115.281 575.227C115.349 575.221 115.427 575.214 115.516 575.203C115.682 575.177 115.794 575.117 115.852 575.023C115.914 574.925 115.945 574.792 115.945 574.625C115.945 574.339 115.919 573.99 115.867 573.578C115.82 573.167 115.755 572.714 115.672 572.219C115.589 571.724 115.487 571.201 115.367 570.648C115.253 570.091 115.13 569.523 115 568.945C114.938 568.648 114.865 568.427 114.781 568.281C114.703 568.135 114.589 568.062 114.438 568.062C114.359 568.062 114.279 568.078 114.195 568.109C114.112 568.135 114.029 568.167 113.945 568.203C113.867 568.234 113.792 568.266 113.719 568.297C113.646 568.323 113.578 568.336 113.516 568.336C113.417 568.336 113.367 568.294 113.367 568.211C113.367 568.143 113.393 568.096 113.445 568.07C113.503 568.039 113.562 568.01 113.625 567.984C113.771 567.927 113.927 567.854 114.094 567.766C114.266 567.677 114.451 567.557 114.648 567.406C114.841 567.255 115.013 567.094 115.164 566.922C115.315 566.75 115.445 566.591 115.555 566.445C115.664 566.299 115.753 566.18 115.82 566.086C115.888 565.987 115.94 565.938 115.977 565.938ZM125.062 570.367C124.87 570.367 124.688 570.331 124.516 570.258C124.349 570.185 124.203 570.076 124.078 569.93C123.953 569.784 123.854 569.602 123.781 569.383C123.708 569.164 123.672 568.906 123.672 568.609C123.672 568.286 123.716 567.971 123.805 567.664C123.898 567.352 124.042 567.076 124.234 566.836C124.427 566.591 124.672 566.396 124.969 566.25C125.271 566.104 125.633 566.031 126.055 566.031C126.404 566.031 126.711 566.078 126.977 566.172C127.247 566.26 127.484 566.383 127.688 566.539C127.891 566.69 128.062 566.867 128.203 567.07C128.349 567.273 128.471 567.487 128.57 567.711C128.669 567.93 128.75 568.154 128.812 568.383C128.88 568.607 128.938 568.82 128.984 569.023C129.01 569.138 129.042 569.302 129.078 569.516C129.12 569.724 129.164 569.966 129.211 570.242C129.258 570.518 129.307 570.815 129.359 571.133C129.411 571.445 129.464 571.763 129.516 572.086C129.568 572.409 129.617 572.724 129.664 573.031C129.716 573.333 129.763 573.612 129.805 573.867C129.846 574.117 129.88 574.333 129.906 574.516C129.938 574.693 129.961 574.815 129.977 574.883C130.008 575.044 130.042 575.208 130.078 575.375C130.12 575.542 130.169 575.695 130.227 575.836C130.289 575.971 130.365 576.083 130.453 576.172C130.542 576.26 130.654 576.305 130.789 576.305C130.867 576.305 130.935 576.286 130.992 576.25C131.049 576.214 131.094 576.164 131.125 576.102C131.161 576.039 131.188 575.969 131.203 575.891C131.219 575.812 131.227 575.732 131.227 575.648C131.227 575.55 131.224 575.45 131.219 575.352C131.214 575.247 131.211 575.159 131.211 575.086C131.211 575.008 131.221 574.94 131.242 574.883C131.263 574.826 131.305 574.797 131.367 574.797C131.424 574.797 131.469 574.831 131.5 574.898C131.536 574.961 131.562 575.036 131.578 575.125C131.599 575.208 131.612 575.294 131.617 575.383C131.622 575.466 131.625 575.529 131.625 575.57C131.625 575.753 131.609 575.958 131.578 576.188C131.547 576.417 131.482 576.638 131.383 576.852C131.289 577.07 131.133 577.25 130.914 577.391C130.695 577.531 130.443 577.602 130.156 577.602C129.906 577.602 129.69 577.565 129.508 577.492C129.331 577.419 129.177 577.328 129.047 577.219C128.922 577.109 128.815 576.992 128.727 576.867C128.643 576.742 128.576 576.625 128.523 576.516C128.378 576.234 128.266 575.927 128.188 575.594C128.115 575.255 128.055 574.932 128.008 574.625C127.93 574.755 127.81 574.917 127.648 575.109C127.492 575.302 127.297 575.487 127.062 575.664C126.828 575.841 126.557 575.992 126.25 576.117C125.943 576.242 125.602 576.305 125.227 576.305C124.81 576.305 124.453 576.245 124.156 576.125C123.865 576.01 123.625 575.854 123.438 575.656C123.25 575.453 123.112 575.219 123.023 574.953C122.935 574.682 122.891 574.396 122.891 574.094C122.891 573.771 122.951 573.445 123.07 573.117C123.19 572.789 123.385 572.492 123.656 572.227C123.932 571.961 124.289 571.745 124.727 571.578C125.169 571.411 125.708 571.328 126.344 571.328C126.49 571.328 126.63 571.336 126.766 571.352C126.906 571.362 127.031 571.375 127.141 571.391C127.255 571.406 127.352 571.422 127.43 571.438C127.513 571.453 127.573 571.464 127.609 571.469C127.578 571.021 127.539 570.573 127.492 570.125C127.471 569.938 127.448 569.74 127.422 569.531C127.401 569.323 127.378 569.115 127.352 568.906C127.326 568.693 127.297 568.484 127.266 568.281C127.234 568.078 127.201 567.888 127.164 567.711C127.081 567.31 126.917 566.992 126.672 566.758C126.432 566.518 126.125 566.398 125.75 566.398C125.547 566.398 125.367 566.435 125.211 566.508C125.06 566.581 124.93 566.674 124.82 566.789C124.716 566.904 124.638 567.034 124.586 567.18C124.534 567.32 124.508 567.461 124.508 567.602C124.508 567.753 124.544 567.88 124.617 567.984C124.69 568.083 124.779 568.172 124.883 568.25C124.992 568.328 125.109 568.404 125.234 568.477C125.359 568.544 125.474 568.625 125.578 568.719C125.688 568.807 125.779 568.917 125.852 569.047C125.924 569.172 125.961 569.331 125.961 569.523C125.961 569.779 125.872 569.984 125.695 570.141C125.523 570.292 125.312 570.367 125.062 570.367ZM127.672 571.953C127.635 571.938 127.57 571.919 127.477 571.898C127.388 571.872 127.281 571.849 127.156 571.828C127.031 571.802 126.896 571.781 126.75 571.766C126.609 571.75 126.469 571.742 126.328 571.742C126.052 571.742 125.794 571.781 125.555 571.859C125.32 571.938 125.117 572.055 124.945 572.211C124.773 572.362 124.638 572.555 124.539 572.789C124.44 573.018 124.391 573.284 124.391 573.586C124.391 573.862 124.435 574.091 124.523 574.273C124.617 574.451 124.734 574.591 124.875 574.695C125.021 574.8 125.18 574.872 125.352 574.914C125.529 574.956 125.701 574.977 125.867 574.977C126.133 574.977 126.385 574.935 126.625 574.852C126.865 574.768 127.076 574.672 127.258 574.562C127.44 574.453 127.589 574.346 127.703 574.242C127.818 574.138 127.888 574.068 127.914 574.031C127.878 573.682 127.844 573.365 127.812 573.078C127.797 572.953 127.781 572.831 127.766 572.711C127.755 572.591 127.742 572.479 127.727 572.375C127.716 572.271 127.706 572.182 127.695 572.109C127.685 572.036 127.677 571.984 127.672 571.953ZM133.742 567.844C133.742 567.917 133.74 568.034 133.734 568.195C133.729 568.357 133.727 568.547 133.727 568.766C133.727 568.891 133.727 568.99 133.727 569.062C133.732 569.135 133.734 569.206 133.734 569.273C133.734 569.341 133.734 569.419 133.734 569.508C133.74 569.596 133.742 569.719 133.742 569.875C133.909 569.646 134.102 569.44 134.32 569.258C134.414 569.18 134.518 569.104 134.633 569.031C134.747 568.958 134.872 568.893 135.008 568.836C135.148 568.779 135.294 568.732 135.445 568.695C135.602 568.659 135.766 568.641 135.938 568.641C136.312 568.641 136.646 568.708 136.938 568.844C137.229 568.979 137.474 569.169 137.672 569.414C137.875 569.654 138.029 569.943 138.133 570.281C138.237 570.615 138.289 570.984 138.289 571.391C138.289 572 138.208 572.547 138.047 573.031C137.885 573.516 137.667 573.93 137.391 574.273C137.115 574.612 136.792 574.872 136.422 575.055C136.052 575.237 135.656 575.328 135.234 575.328C135.083 575.328 134.94 575.315 134.805 575.289C134.674 575.263 134.552 575.229 134.438 575.188C134.323 575.146 134.216 575.102 134.117 575.055C134.023 575.003 133.94 574.956 133.867 574.914C133.862 575.128 133.857 575.318 133.852 575.484C133.852 575.646 133.852 575.805 133.852 575.961C133.852 576.117 133.852 576.279 133.852 576.445C133.852 576.612 133.852 576.805 133.852 577.023C133.852 577.378 133.854 577.768 133.859 578.195C133.87 578.622 133.888 579.039 133.914 579.445C133.945 579.857 133.987 580.232 134.039 580.57C134.091 580.909 134.164 581.162 134.258 581.328C134.346 581.49 134.456 581.617 134.586 581.711C134.716 581.805 134.846 581.88 134.977 581.938C135.138 582.01 135.279 582.083 135.398 582.156C135.523 582.229 135.586 582.305 135.586 582.383C135.586 582.44 135.568 582.487 135.531 582.523C135.495 582.56 135.432 582.578 135.344 582.578C135.203 582.578 135.005 582.555 134.75 582.508C134.5 582.466 134.227 582.419 133.93 582.367C133.638 582.315 133.346 582.266 133.055 582.219C132.763 582.177 132.508 582.156 132.289 582.156C132.055 582.156 131.859 582.164 131.703 582.18C131.547 582.201 131.383 582.211 131.211 582.211C130.982 582.211 130.826 582.195 130.742 582.164C130.664 582.138 130.625 582.104 130.625 582.062C130.625 582.016 130.651 581.984 130.703 581.969C130.755 581.953 130.826 581.938 130.914 581.922C131.003 581.906 131.102 581.88 131.211 581.844C131.32 581.812 131.435 581.758 131.555 581.68C131.68 581.591 131.779 581.479 131.852 581.344C131.93 581.213 131.99 581.068 132.031 580.906C132.073 580.745 132.102 580.575 132.117 580.398C132.133 580.227 132.146 580.057 132.156 579.891C132.167 579.76 132.177 579.56 132.188 579.289C132.198 579.023 132.208 578.711 132.219 578.352C132.229 577.997 132.24 577.609 132.25 577.188C132.266 576.766 132.279 576.331 132.289 575.883C132.299 575.435 132.31 574.99 132.32 574.547C132.331 574.099 132.339 573.675 132.344 573.273C132.349 572.872 132.354 572.505 132.359 572.172C132.365 571.833 132.367 571.552 132.367 571.328C132.367 570.995 132.357 570.721 132.336 570.508C132.32 570.289 132.292 570.117 132.25 569.992C132.208 569.862 132.154 569.773 132.086 569.727C132.018 569.674 131.935 569.648 131.836 569.648C131.758 569.648 131.674 569.664 131.586 569.695C131.503 569.727 131.417 569.76 131.328 569.797C131.245 569.828 131.167 569.859 131.094 569.891C131.021 569.922 130.961 569.938 130.914 569.938C130.826 569.938 130.781 569.893 130.781 569.805C130.781 569.773 130.797 569.737 130.828 569.695C130.859 569.654 130.94 569.602 131.07 569.539C131.154 569.492 131.253 569.445 131.367 569.398C131.482 569.346 131.604 569.289 131.734 569.227C131.87 569.159 132.008 569.081 132.148 568.992C132.294 568.898 132.438 568.786 132.578 568.656C132.766 568.484 132.917 568.331 133.031 568.195C133.151 568.06 133.247 567.948 133.32 567.859C133.398 567.766 133.458 567.695 133.5 567.648C133.547 567.596 133.591 567.57 133.633 567.57C133.68 567.57 133.708 567.599 133.719 567.656C133.734 567.708 133.742 567.771 133.742 567.844ZM135.18 569.406C134.956 569.406 134.76 569.458 134.594 569.562C134.432 569.667 134.294 569.805 134.18 569.977C134.065 570.148 133.971 570.344 133.898 570.562C133.831 570.781 133.776 571.008 133.734 571.242C133.693 571.471 133.664 571.698 133.648 571.922C133.638 572.141 133.633 572.339 133.633 572.516C133.633 572.792 133.651 573.07 133.688 573.352C133.729 573.628 133.799 573.878 133.898 574.102C134.003 574.32 134.143 574.5 134.32 574.641C134.497 574.781 134.721 574.852 134.992 574.852C135.206 574.852 135.409 574.797 135.602 574.688C135.799 574.578 135.971 574.404 136.117 574.164C136.268 573.919 136.388 573.602 136.477 573.211C136.565 572.815 136.609 572.336 136.609 571.773C136.609 571.43 136.583 571.115 136.531 570.828C136.479 570.536 136.396 570.286 136.281 570.078C136.167 569.865 136.018 569.701 135.836 569.586C135.654 569.466 135.435 569.406 135.18 569.406Z" fill="white"/>
</g>
<g clip-path="url(#clip2_0_1)">
<path data-slot="0" d="M188 261H12V372H188V261Z" fill="#747373"/>
</g>
<g clip-path="url(#clip3_0_1)">
<path data-slot="1" d="M188 132H12V243H188V132Z" fill="#747373"/>
</g>
<path d="M66.1953 60.5547C66.4766 60.5547 66.724 60.5807 66.9375 60.6328C67.151 60.6849 67.3385 60.7448 67.5 60.8125C67.6667 60.875 67.8099 60.9323 67.9297 60.9844C68.0547 61.0365 68.1641 61.0625 68.2578 61.0625C68.3255 61.0625 68.3828 61.0339 68.4297 60.9766C68.4766 60.9193 68.5182 60.849 68.5547 60.7656C68.5911 60.6823 68.6224 60.5911 68.6484 60.4922C68.6745 60.3932 68.7005 60.3021 68.7266 60.2187C68.7578 60.099 68.7917 59.9974 68.8281 59.9141C68.8698 59.8255 68.9271 59.7812 69 59.7812C69.0833 59.7812 69.125 59.8568 69.125 60.0078C69.125 60.0911 69.1146 60.1849 69.0937 60.2891C69.0781 60.3932 69.0547 60.5182 69.0234 60.6641C68.9974 60.8047 68.9661 60.9714 68.9297 61.1641C68.8984 61.3516 68.8672 61.5703 68.8359 61.8203C68.7943 62.1276 68.7656 62.401 68.75 62.6406C68.7396 62.875 68.7292 63.0729 68.7187 63.2344C68.7083 63.3906 68.6927 63.5104 68.6719 63.5937C68.6562 63.6771 68.625 63.7187 68.5781 63.7187C68.5417 63.7187 68.513 63.7005 68.4922 63.6641C68.4714 63.6224 68.4531 63.5729 68.4375 63.5156C68.4219 63.4583 68.4089 63.401 68.3984 63.3437C68.388 63.2865 68.3802 63.237 68.375 63.1953C68.349 63.0599 68.3151 62.9115 68.2734 62.75C68.237 62.5833 68.1849 62.4167 68.1172 62.25C68.0495 62.0781 67.9661 61.9115 67.8672 61.75C67.7682 61.5885 67.6432 61.4453 67.4922 61.3203C67.3464 61.1953 67.1719 61.0964 66.9687 61.0234C66.7656 60.9453 66.5286 60.9062 66.2578 60.9062C65.7682 60.9062 65.388 61.0521 65.1172 61.3437C64.8464 61.6354 64.7109 62.0651 64.7109 62.6328C64.7109 62.9193 64.7786 63.2109 64.9141 63.5078C65.0547 63.7995 65.237 64.1016 65.4609 64.4141C65.6901 64.7266 65.9479 65.0469 66.2344 65.375C66.5208 65.7031 66.8151 66.0417 67.1172 66.3906C67.4193 66.7396 67.7135 67.099 68 67.4687C68.2865 67.8385 68.5417 68.2214 68.7656 68.6172C68.9948 69.013 69.1771 69.4245 69.3125 69.8515C69.4531 70.2734 69.5234 70.7109 69.5234 71.164C69.5234 71.789 69.4219 72.3333 69.2187 72.7969C69.0156 73.2552 68.7422 73.6354 68.3984 73.9375C68.0547 74.2448 67.6562 74.4713 67.2031 74.6172C66.75 74.7682 66.276 74.8437 65.7812 74.8437C65.3958 74.8437 65.0573 74.7969 64.7656 74.7031C64.4792 74.6146 64.2187 74.5156 63.9844 74.4062C63.7552 74.3021 63.5443 74.2031 63.3516 74.1093C63.1641 74.0208 62.9766 73.9765 62.7891 73.9765C62.6432 73.9765 62.5078 74.0208 62.3828 74.1093C62.263 74.1979 62.151 74.2942 62.0469 74.3984C61.9479 74.5078 61.8594 74.6067 61.7812 74.6953C61.7083 74.7838 61.6484 74.8281 61.6016 74.8281C61.5599 74.8281 61.5339 74.8125 61.5234 74.7812C61.513 74.7552 61.5078 74.7213 61.5078 74.6797C61.5078 74.638 61.5156 74.5677 61.5312 74.4687C61.5469 74.375 61.5625 74.2604 61.5781 74.125C61.599 73.9896 61.6172 73.8359 61.6328 73.664C61.6484 73.4922 61.6562 73.3073 61.6562 73.1093C61.6562 72.7552 61.6224 72.3932 61.5547 72.0234C61.487 71.6484 61.4115 71.2969 61.3281 70.9687C61.2448 70.6406 61.1693 70.3515 61.1016 70.1015C61.0339 69.8515 61 69.6719 61 69.5625C61 69.5156 61.0104 69.4713 61.0312 69.4297C61.0469 69.388 61.0833 69.3672 61.1406 69.3672C61.2188 69.3672 61.2917 69.4245 61.3594 69.539C61.4271 69.6484 61.4974 69.7942 61.5703 69.9765C61.6172 70.1015 61.6771 70.2552 61.75 70.4375C61.8281 70.6198 61.9141 70.8177 62.0078 71.0312C62.1016 71.2396 62.2031 71.4583 62.3125 71.6875C62.4271 71.9166 62.5495 72.1406 62.6797 72.3593C62.9036 72.7448 63.138 73.0651 63.3828 73.3203C63.6276 73.5755 63.8776 73.7786 64.1328 73.9297C64.3932 74.0859 64.6562 74.1953 64.9219 74.2578C65.1875 74.3255 65.4531 74.3593 65.7187 74.3593C66.0365 74.3593 66.3099 74.2995 66.5391 74.1797C66.7734 74.0599 66.9661 73.9036 67.1172 73.7109C67.2682 73.5182 67.3776 73.3021 67.4453 73.0625C67.5182 72.8229 67.5547 72.5833 67.5547 72.3437C67.5547 71.8698 67.4896 71.4271 67.3594 71.0156C67.2344 70.5989 67.0677 70.2031 66.8594 69.8281C66.6562 69.4479 66.4219 69.0833 66.1562 68.7344C65.8906 68.3854 65.6172 68.0443 65.3359 67.7109C65.0599 67.3776 64.7891 67.0469 64.5234 66.7187C64.2578 66.3906 64.0208 66.0573 63.8125 65.7187C63.6094 65.375 63.4427 65.0234 63.3125 64.6641C63.1875 64.2995 63.125 63.9167 63.125 63.5156C63.125 63.125 63.1745 62.7812 63.2734 62.4844C63.3724 62.1875 63.5026 61.9297 63.6641 61.7109C63.8307 61.4922 64.0182 61.3099 64.2266 61.1641C64.4401 61.013 64.6589 60.8932 64.8828 60.8047C65.112 60.7161 65.3385 60.6536 65.5625 60.6172C65.7917 60.5755 66.0026 60.5547 66.1953 60.5547ZM71.8985 60.4219C72.2057 60.4219 72.4505 60.5026 72.6328 60.6641C72.8151 60.8255 72.9063 61.0547 72.9063 61.3516C72.9063 61.5495 72.875 61.7161 72.8125 61.8516C72.75 61.9818 72.6693 62.0885 72.5703 62.1719C72.4714 62.25 72.362 62.3073 72.2422 62.3437C72.1276 62.375 72.013 62.3906 71.8985 62.3906C71.7995 62.3906 71.6953 62.375 71.5859 62.3437C71.4766 62.3125 71.375 62.2604 71.2813 62.1875C71.1875 62.1094 71.1094 62.0104 71.0469 61.8906C70.9896 61.7656 70.9609 61.612 70.9609 61.4297C70.9609 61.237 70.9922 61.0781 71.0547 60.9531C71.1172 60.8229 71.1953 60.7187 71.2891 60.6406C71.3828 60.5625 71.4844 60.5078 71.5938 60.4766C71.7031 60.4401 71.8047 60.4219 71.8985 60.4219ZM73.0078 62.9844C73.0599 62.9844 73.0859 63.0443 73.0859 63.1641C73.0859 63.2422 73.0755 63.3724 73.0547 63.5547C73.0391 63.7318 73.0182 63.9219 72.9922 64.125C72.9505 64.4479 72.9089 64.8073 72.8672 65.2031C72.8255 65.5937 72.7839 65.9974 72.7422 66.4141C72.7057 66.8255 72.6693 67.2344 72.6328 67.6406C72.6016 68.0469 72.5729 68.4245 72.5469 68.7734C72.5208 69.1172 72.5 69.4219 72.4844 69.6875C72.4688 69.9479 72.4609 70.1406 72.4609 70.2656C72.4609 70.4271 72.4714 70.5599 72.4922 70.664C72.513 70.7682 72.5391 70.8541 72.5703 70.9219C72.6016 70.9896 72.6354 71.0442 72.6719 71.0859C72.7136 71.1276 72.7552 71.164 72.7969 71.1953C72.8438 71.2265 72.9011 71.2552 72.9688 71.2812C73.0365 71.3073 73.1094 71.3333 73.1875 71.3593C73.2656 71.3802 73.3438 71.3984 73.4219 71.414C73.5052 71.4297 73.5807 71.4401 73.6485 71.4453C73.7578 71.4661 73.8464 71.4817 73.9141 71.4922C73.9818 71.5026 74.0156 71.5364 74.0156 71.5937C74.0156 71.6979 73.9037 71.75 73.6797 71.75C73.5235 71.75 73.3672 71.7396 73.2109 71.7187C73.0547 71.6927 72.8932 71.664 72.7266 71.6328C72.5651 71.6015 72.3958 71.5755 72.2188 71.5547C72.0417 71.5286 71.8516 71.5156 71.6485 71.5156C71.4609 71.5156 71.2917 71.5208 71.1406 71.5312C70.9896 71.5416 70.8516 71.5547 70.7266 71.5703C70.6016 71.5859 70.4844 71.5989 70.375 71.6093C70.2656 71.6198 70.1562 71.625 70.0469 71.625C69.9583 71.625 69.8776 71.6146 69.8047 71.5937C69.7318 71.5677 69.6953 71.5182 69.6953 71.4453C69.6953 71.3724 69.7344 71.3229 69.8125 71.2969C69.8958 71.2656 69.9792 71.2422 70.0625 71.2265C70.1667 71.2057 70.2682 71.1823 70.3672 71.1562C70.4661 71.1302 70.5547 71.0911 70.6328 71.039C70.7162 70.9817 70.7839 70.9088 70.8359 70.8203C70.8932 70.7265 70.9297 70.6067 70.9453 70.4609C70.9662 70.1745 70.9818 69.8828 70.9922 69.5859C71.0026 69.289 71.0104 68.9974 71.0156 68.7109C71.0208 68.4193 71.0235 68.138 71.0235 67.8672C71.0235 67.5911 71.0235 67.3333 71.0235 67.0937C71.0235 66.8073 71.0235 66.5469 71.0235 66.3125C71.0235 66.0729 71.0182 65.8698 71.0078 65.7031C70.9974 65.4375 70.9662 65.2292 70.9141 65.0781C70.8672 64.9271 70.7969 64.8151 70.7031 64.7422C70.6146 64.6693 70.5 64.6224 70.3594 64.6016C70.2187 64.5755 70.0495 64.5547 69.8516 64.5391C69.7943 64.5286 69.7474 64.5104 69.7109 64.4844C69.6797 64.4583 69.6641 64.4167 69.6641 64.3594C69.6641 64.2604 69.7422 64.2031 69.8984 64.1875C69.9766 64.1823 70.0755 64.1745 70.1953 64.1641C70.3151 64.1484 70.4531 64.1276 70.6094 64.1016C70.7708 64.0755 70.9453 64.0391 71.1328 63.9922C71.3203 63.9401 71.5182 63.8698 71.7266 63.7812C71.9557 63.6875 72.1432 63.5937 72.2891 63.5C72.4401 63.4062 72.5625 63.3229 72.6563 63.25C72.75 63.1719 72.8229 63.1094 72.875 63.0625C72.9271 63.0104 72.9714 62.9844 73.0078 62.9844ZM76.5313 62.8906C76.5729 62.8906 76.6146 62.9583 76.6563 63.0937C76.6979 63.224 76.7396 63.3958 76.7813 63.6094C76.8229 63.8229 76.8646 64.0703 76.9063 64.3516C76.9479 64.6276 76.9896 64.9089 77.0313 65.1953L77.3125 67.1641C77.3386 66.9922 77.3828 66.7943 77.4453 66.5703C77.513 66.3464 77.6016 66.1146 77.7109 65.875C77.8203 65.6354 77.9531 65.401 78.1094 65.1719C78.2656 64.9427 78.4453 64.737 78.6485 64.5547C78.8568 64.3724 79.0886 64.2266 79.3438 64.1172C79.6042 64.0026 79.8932 63.9453 80.2109 63.9453C80.6016 63.9453 80.9401 64.0208 81.2266 64.1719C81.513 64.3177 81.75 64.5234 81.9375 64.7891C82.125 65.0495 82.263 65.362 82.3516 65.7266C82.4401 66.0911 82.4844 66.4896 82.4844 66.9219C82.4844 67.3125 82.4609 67.7057 82.4141 68.1016C82.3724 68.4922 82.3255 68.8776 82.2735 69.2578C82.2266 69.638 82.1797 70.0052 82.1328 70.3593C82.0912 70.7135 82.0703 71.0442 82.0703 71.3515C82.0703 71.5338 82.0859 71.6927 82.1172 71.8281C82.1485 71.9635 82.1953 72.0885 82.2578 72.2031C82.3307 72.3125 82.4193 72.4088 82.5235 72.4922C82.6328 72.5703 82.7344 72.6458 82.8281 72.7187C82.9271 72.7864 83.0104 72.8567 83.0781 72.9297C83.1511 72.9974 83.1875 73.0703 83.1875 73.1484C83.1875 73.1953 83.1745 73.2343 83.1485 73.2656C83.1224 73.3021 83.0781 73.3203 83.0156 73.3203C82.9219 73.3203 82.8177 73.2838 82.7031 73.2109C82.5938 73.1432 82.4557 73.0573 82.2891 72.9531C82.1276 72.8437 81.9323 72.7291 81.7031 72.6093C81.474 72.4843 81.1953 72.3698 80.8672 72.2656C80.6224 72.1823 80.375 72.1172 80.125 72.0703C79.8802 72.0234 79.5938 71.9922 79.2656 71.9765C79.0833 71.9609 78.9922 71.9088 78.9922 71.8203C78.9922 71.7213 79.0521 71.6719 79.1719 71.6719C79.2448 71.6719 79.3464 71.6719 79.4766 71.6719C79.6068 71.6719 79.7396 71.6666 79.875 71.6562C80.0833 71.6406 80.2552 71.5781 80.3906 71.4687C80.5261 71.3541 80.6276 71.1458 80.6953 70.8437C80.7162 70.7239 80.737 70.5729 80.7578 70.3906C80.7787 70.2031 80.7969 70.0052 80.8125 69.7969C80.8281 69.5833 80.8412 69.3672 80.8516 69.1484C80.862 68.9297 80.8672 68.7214 80.8672 68.5234C80.8672 68.3464 80.8646 68.1432 80.8594 67.9141C80.8542 67.6797 80.8359 67.4375 80.8047 67.1875C80.7787 66.9375 80.7344 66.6927 80.6719 66.4531C80.6146 66.2135 80.5287 66 80.4141 65.8125C80.2995 65.625 80.1537 65.474 79.9766 65.3594C79.7995 65.2396 79.5833 65.1797 79.3281 65.1797C79.1094 65.1797 78.9089 65.2344 78.7266 65.3437C78.5495 65.4531 78.3906 65.6068 78.25 65.8047C78.1094 65.9974 77.9896 66.2266 77.8906 66.4922C77.7917 66.7578 77.7162 67.0495 77.6641 67.3672C77.6068 67.6901 77.5677 68.0234 77.5469 68.3672C77.5313 68.7057 77.5235 69.0442 77.5235 69.3828C77.5235 69.6692 77.5339 69.9453 77.5547 70.2109C77.5755 70.4713 77.6042 70.7135 77.6406 70.9375C77.6771 71.1562 77.7214 71.3515 77.7735 71.5234C77.8255 71.6953 77.8854 71.8307 77.9531 71.9297C78.0521 72.0651 78.1589 72.1666 78.2735 72.2343C78.388 72.3021 78.4844 72.3489 78.5625 72.375C78.6667 72.4062 78.7396 72.4349 78.7813 72.4609C78.8281 72.4817 78.8516 72.513 78.8516 72.5547C78.8516 72.5859 78.8255 72.6146 78.7735 72.6406C78.7266 72.6666 78.6458 72.6797 78.5313 72.6797C78.4219 72.6797 78.3021 72.6719 78.1719 72.6562C78.0417 72.6354 77.9063 72.6146 77.7656 72.5937C77.625 72.5729 77.4792 72.5547 77.3281 72.539C77.1771 72.5182 77.0287 72.5078 76.8828 72.5078C76.737 72.5078 76.5886 72.513 76.4375 72.5234C76.2865 72.5338 76.1406 72.5442 76 72.5547C75.8646 72.5651 75.7396 72.5755 75.625 72.5859C75.5104 72.5963 75.4193 72.6015 75.3516 72.6015C75.1485 72.6015 75.0469 72.5364 75.0469 72.4062C75.0469 72.3593 75.0625 72.3203 75.0938 72.289C75.1302 72.2526 75.1927 72.2291 75.2813 72.2187C75.3542 72.2135 75.4193 72.2083 75.4766 72.2031C75.5339 72.1979 75.5912 72.1953 75.6485 72.1953C75.7109 72.1901 75.7735 72.1849 75.8359 72.1797C75.9037 72.1745 75.9818 72.1666 76.0703 72.1562C76.237 72.1302 76.349 72.0703 76.4063 71.9765C76.4688 71.8776 76.5 71.7448 76.5 71.5781C76.5 71.2916 76.474 70.9427 76.4219 70.5312C76.375 70.1198 76.3099 69.6666 76.2266 69.1719C76.1432 68.6771 76.0417 68.1536 75.9219 67.6016C75.8073 67.0443 75.6849 66.4766 75.5547 65.8984C75.4922 65.6016 75.4193 65.3802 75.3359 65.2344C75.2578 65.0885 75.1432 65.0156 74.9922 65.0156C74.9141 65.0156 74.8333 65.0312 74.75 65.0625C74.6667 65.0885 74.5833 65.1198 74.5 65.1562C74.4219 65.1875 74.3464 65.2187 74.2735 65.25C74.2005 65.276 74.1328 65.2891 74.0703 65.2891C73.9714 65.2891 73.9219 65.2474 73.9219 65.1641C73.9219 65.0964 73.9479 65.0495 74 65.0234C74.0573 64.9922 74.1172 64.9635 74.1797 64.9375C74.3255 64.8802 74.4818 64.8073 74.6485 64.7187C74.8203 64.6302 75.0052 64.5104 75.2031 64.3594C75.3958 64.2083 75.5677 64.0469 75.7188 63.875C75.8698 63.7031 76 63.5443 76.1094 63.3984C76.2188 63.2526 76.3073 63.1328 76.375 63.0391C76.4427 62.9401 76.4948 62.8906 76.5313 62.8906ZM90.9766 63.4687C91.2422 63.4687 91.4818 63.5104 91.6953 63.5937C91.9089 63.6719 92.0912 63.7812 92.2422 63.9219C92.3932 64.0625 92.5078 64.2266 92.5859 64.4141C92.6693 64.6016 92.7109 64.8021 92.7109 65.0156C92.7109 65.4375 92.6094 65.7656 92.4063 66C92.2083 66.2292 91.9401 66.3437 91.6016 66.3437C91.4609 66.3437 91.3307 66.3229 91.2109 66.2812C91.0912 66.2396 90.987 66.1771 90.8985 66.0937C90.8099 66.0104 90.7396 65.9089 90.6875 65.7891C90.6354 65.6693 90.6094 65.5339 90.6094 65.3828C90.6094 65.2161 90.6302 65.0677 90.6719 64.9375C90.7188 64.8021 90.7422 64.6693 90.7422 64.5391C90.7422 64.362 90.6901 64.2396 90.5859 64.1719C90.4818 64.1042 90.362 64.0703 90.2266 64.0703C90.0495 64.0703 89.8698 64.1302 89.6875 64.25C89.5104 64.3698 89.3646 64.5286 89.25 64.7266C89.2031 64.8151 89.1615 64.9089 89.125 65.0078C89.0938 65.1016 89.0781 65.1849 89.0781 65.2578C89.0781 65.2995 89.1016 65.3464 89.1485 65.3984C89.1953 65.4453 89.2552 65.5 89.3281 65.5625C89.4063 65.625 89.4922 65.6979 89.5859 65.7812C89.6849 65.8594 89.7813 65.9505 89.875 66.0547C90.0417 66.237 90.1927 66.4661 90.3281 66.7422C90.4636 67.0182 90.5313 67.3437 90.5313 67.7187C90.5313 68.1354 90.4844 68.5 90.3906 68.8125C90.2969 69.1198 90.1667 69.388 90 69.6172C89.8386 69.8411 89.6485 70.0286 89.4297 70.1797C89.2109 70.3255 88.974 70.4427 88.7188 70.5312C88.4688 70.6198 88.2057 70.6823 87.9297 70.7187C87.6589 70.7552 87.3906 70.7734 87.125 70.7734H86.8203C86.4818 70.8307 86.2057 70.9375 85.9922 71.0937C85.7839 71.25 85.6797 71.4531 85.6797 71.7031C85.6797 71.8646 85.7318 72 85.8359 72.1093C85.9401 72.2187 86.0781 72.3125 86.25 72.3906C86.4271 72.4635 86.6302 72.5234 86.8594 72.5703C87.0886 72.612 87.3255 72.651 87.5703 72.6875C87.8203 72.7187 88.0677 72.75 88.3125 72.7812C88.5625 72.8125 88.7943 72.8489 89.0078 72.8906C89.3672 72.9635 89.7136 73.0599 90.0469 73.1797C90.3854 73.2995 90.6823 73.4583 90.9375 73.6562C91.1979 73.8593 91.4063 74.112 91.5625 74.414C91.7188 74.7161 91.7969 75.0833 91.7969 75.5156C91.7969 75.8541 91.7396 76.1692 91.625 76.4609C91.5104 76.7578 91.3516 77.0286 91.1485 77.2734C90.9453 77.5234 90.7057 77.75 90.4297 77.9531C90.1537 78.1562 89.8568 78.3307 89.5391 78.4765C89.1224 78.6692 88.6667 78.8151 88.1719 78.914C87.6771 79.013 87.1615 79.0625 86.625 79.0625C86.125 79.0625 85.6563 79.0078 85.2188 78.8984C84.7813 78.789 84.3985 78.6198 84.0703 78.3906C83.7474 78.1666 83.4922 77.8828 83.3047 77.539C83.1172 77.1953 83.0235 76.7916 83.0235 76.3281C83.0235 75.9479 83.0859 75.6041 83.2109 75.2969C83.3359 74.9896 83.4948 74.7135 83.6875 74.4687C83.8854 74.2291 84.1042 74.0182 84.3438 73.8359C84.5886 73.6536 84.8255 73.4974 85.0547 73.3672C85.2891 73.237 85.5052 73.1302 85.7031 73.0469C85.9011 72.9635 86.0547 72.901 86.1641 72.8593C85.9818 72.8385 85.7969 72.8021 85.6094 72.75C85.4271 72.6979 85.2604 72.6276 85.1094 72.539C84.9636 72.4505 84.8438 72.3385 84.75 72.2031C84.6563 72.0625 84.6094 71.8958 84.6094 71.7031C84.6094 71.4479 84.7188 71.2317 84.9375 71.0547C85.1615 70.8724 85.474 70.7317 85.875 70.6328C85.5781 70.5547 85.3021 70.4427 85.0469 70.2969C84.7917 70.1458 84.5703 69.9609 84.3828 69.7422C84.1953 69.5234 84.0469 69.2656 83.9375 68.9687C83.8333 68.6719 83.7813 68.3359 83.7813 67.9609C83.7813 67.4974 83.862 67.0833 84.0235 66.7187C84.1901 66.3542 84.4141 66.0469 84.6953 65.7969C84.9766 65.5417 85.3073 65.349 85.6875 65.2187C86.0677 65.0833 86.4766 65.0156 86.9141 65.0156C87.0443 65.0156 87.1771 65.0234 87.3125 65.0391C87.4479 65.0495 87.5755 65.0651 87.6953 65.0859C87.8151 65.1016 87.9245 65.1172 88.0235 65.1328C88.1276 65.1432 88.2109 65.1484 88.2735 65.1484C88.4037 65.1484 88.5104 65.1302 88.5938 65.0937C88.6823 65.0573 88.763 64.9792 88.8359 64.8594C88.9401 64.6927 89.0547 64.526 89.1797 64.3594C89.3047 64.1927 89.4505 64.0443 89.6172 63.9141C89.7839 63.7786 89.9766 63.6719 90.1953 63.5937C90.4193 63.5104 90.6797 63.4687 90.9766 63.4687ZM87.4609 65.4844C87.263 65.4844 87.0651 65.5312 86.8672 65.625C86.6745 65.7135 86.5 65.8646 86.3438 66.0781C86.1927 66.2865 86.0677 66.5599 85.9688 66.8984C85.875 67.237 85.8281 67.651 85.8281 68.1406C85.8281 68.5417 85.8698 68.8854 85.9531 69.1719C86.0417 69.4531 86.1537 69.6875 86.2891 69.875C86.4297 70.0573 86.5859 70.1927 86.7578 70.2812C86.9297 70.3646 87.099 70.4062 87.2656 70.4062C87.4115 70.4062 87.5781 70.3724 87.7656 70.3047C87.9531 70.2317 88.1302 70.0963 88.2969 69.8984C88.4636 69.7005 88.6042 69.4271 88.7188 69.0781C88.8386 68.7292 88.8985 68.276 88.8985 67.7187C88.8985 66.9792 88.7682 66.4219 88.5078 66.0469C88.2526 65.6719 87.9037 65.4844 87.4609 65.4844ZM85.0078 75.8359C85.0078 76.2161 85.0625 76.5703 85.1719 76.8984C85.2865 77.2317 85.4531 77.5208 85.6719 77.7656C85.8906 78.0156 86.1589 78.2109 86.4766 78.3515C86.7943 78.4974 87.1589 78.5703 87.5703 78.5703C88.0391 78.5703 88.4427 78.4948 88.7813 78.3437C89.1198 78.1979 89.3985 78.0026 89.6172 77.7578C89.8359 77.5182 89.9974 77.2396 90.1016 76.9219C90.2057 76.6093 90.2578 76.2838 90.2578 75.9453C90.2578 75.6172 90.2162 75.3073 90.1328 75.0156C90.0495 74.7291 89.9219 74.4687 89.75 74.2343C89.5781 74 89.3568 73.7942 89.0859 73.6172C88.8151 73.4453 88.4922 73.3099 88.1172 73.2109C87.8724 73.1432 87.638 73.0911 87.4141 73.0547C87.1901 73.0234 86.987 73 86.8047 72.9843C86.6224 73.0937 86.4245 73.2343 86.2109 73.4062C86.0026 73.5833 85.8073 73.789 85.625 74.0234C85.4479 74.263 85.2995 74.5338 85.1797 74.8359C85.0651 75.138 85.0078 75.4713 85.0078 75.8359ZM97.5156 59C97.849 59 98.1354 59.0469 98.375 59.1406C98.6146 59.2344 98.8125 59.362 98.9688 59.5234C99.125 59.6849 99.2396 59.8698 99.3125 60.0781C99.3906 60.2865 99.4297 60.5026 99.4297 60.7266C99.4297 61.1693 99.3386 61.5911 99.1563 61.9922C98.974 62.3932 98.7396 62.7865 98.4531 63.1719C98.1667 63.5573 97.849 63.9401 97.5 64.3203C97.1563 64.7005 96.8203 65.0937 96.4922 65.5C96.7005 65.9375 96.9193 66.3568 97.1485 66.7578C97.3776 67.1536 97.5964 67.513 97.8047 67.8359C98.0182 68.1589 98.2109 68.4401 98.3828 68.6797C98.5599 68.9193 98.6953 69.1015 98.7891 69.2265C98.8672 69.3307 98.9662 69.4531 99.0859 69.5937C99.2057 69.7343 99.3412 69.888 99.4922 70.0547C99.6432 70.2161 99.8073 70.3854 99.9844 70.5625C100.167 70.7343 100.352 70.9062 100.539 71.0781C100.763 70.8229 100.958 70.5521 101.125 70.2656C101.292 69.9739 101.43 69.6823 101.539 69.3906C101.648 69.0989 101.729 68.8125 101.781 68.5312C101.839 68.2448 101.867 67.9792 101.867 67.7344C101.867 67.224 101.792 66.862 101.641 66.6484C101.49 66.4349 101.297 66.3281 101.062 66.3281C100.896 66.3281 100.698 66.3542 100.469 66.4062C100.24 66.4531 100.005 66.5052 99.7656 66.5625C99.5313 66.6198 99.3073 66.6745 99.0938 66.7266C98.8802 66.7734 98.7057 66.7969 98.5703 66.7969C98.487 66.7969 98.4193 66.7839 98.3672 66.7578C98.3203 66.7318 98.2969 66.6901 98.2969 66.6328C98.2969 66.5651 98.3438 66.5156 98.4375 66.4844C98.5365 66.4479 98.6823 66.4062 98.875 66.3594C99.0677 66.3073 99.3073 66.2344 99.5938 66.1406C99.8854 66.0469 100.227 65.9062 100.617 65.7187C100.94 65.5625 101.214 65.3984 101.437 65.2266C101.661 65.0495 101.849 64.888 102 64.7422C102.151 64.5911 102.273 64.4661 102.367 64.3672C102.461 64.2682 102.539 64.2187 102.602 64.2187C102.659 64.2187 102.708 64.2552 102.75 64.3281C102.797 64.401 102.836 64.5 102.867 64.625C102.898 64.7448 102.922 64.888 102.937 65.0547C102.958 65.2161 102.969 65.3854 102.969 65.5625C102.969 66.1042 102.927 66.6458 102.844 67.1875C102.76 67.7292 102.635 68.2552 102.469 68.7656C102.302 69.2708 102.091 69.7526 101.836 70.2109C101.586 70.664 101.292 71.0755 100.953 71.4453C101.13 71.5963 101.305 71.737 101.477 71.8672C101.654 71.9922 101.825 72.1015 101.992 72.1953C102.159 72.289 102.318 72.362 102.469 72.414C102.625 72.4661 102.771 72.4922 102.906 72.4922C103.021 72.4922 103.128 72.4583 103.227 72.3906C103.331 72.3177 103.427 72.2265 103.516 72.1172C103.604 72.0078 103.685 71.8932 103.758 71.7734C103.836 71.6484 103.906 71.5312 103.969 71.4219C104.031 71.3125 104.089 71.2239 104.141 71.1562C104.193 71.0833 104.24 71.0469 104.281 71.0469C104.333 71.0469 104.359 71.0911 104.359 71.1797C104.359 71.2578 104.323 71.3958 104.25 71.5937C104.182 71.7916 104.091 72.0156 103.977 72.2656C103.867 72.5104 103.74 72.7656 103.594 73.0312C103.448 73.3021 103.299 73.5495 103.148 73.7734C103.003 73.9974 102.859 74.1797 102.719 74.3203C102.583 74.4661 102.464 74.539 102.359 74.539C102.266 74.539 102.133 74.5026 101.961 74.4297C101.789 74.362 101.583 74.25 101.344 74.0937C101.104 73.9375 100.833 73.7317 100.531 73.4765C100.234 73.2213 99.9115 72.9088 99.5625 72.539C99.1927 72.737 98.7917 72.8932 98.3594 73.0078C97.9323 73.1224 97.4688 73.1797 96.9688 73.1797C96.3594 73.1797 95.7995 73.0989 95.2891 72.9375C94.7839 72.776 94.349 72.5364 93.9844 72.2187C93.6198 71.901 93.3359 71.5052 93.1328 71.0312C92.9297 70.5573 92.8281 70.0078 92.8281 69.3828C92.8281 68.9609 92.8828 68.5599 92.9922 68.1797C93.1016 67.7995 93.25 67.4349 93.4375 67.0859C93.625 66.737 93.8438 66.401 94.0938 66.0781C94.349 65.7552 94.6198 65.4453 94.9063 65.1484C94.6198 64.2266 94.4766 63.2969 94.4766 62.3594C94.4766 61.8229 94.5521 61.3464 94.7031 60.9297C94.8594 60.5078 95.0729 60.1562 95.3438 59.875C95.6146 59.5885 95.9349 59.3724 96.3047 59.2266C96.6797 59.0755 97.0833 59 97.5156 59ZM97.9766 70.6797C96.9557 69.3411 96.1511 68.0469 95.5625 66.7969C95.3542 67.1667 95.1875 67.5495 95.0625 67.9453C94.9375 68.3359 94.875 68.7526 94.875 69.1953C94.875 69.664 94.9349 70.1041 95.0547 70.5156C95.1797 70.9219 95.3594 71.276 95.5938 71.5781C95.8333 71.875 96.125 72.1093 96.4688 72.2812C96.8125 72.4531 97.2031 72.539 97.6406 72.539C97.9323 72.539 98.2083 72.5052 98.4688 72.4375C98.7292 72.3698 98.9766 72.2812 99.2109 72.1719C99.0287 71.9531 98.8281 71.7239 98.6094 71.4843C98.3958 71.2396 98.1849 70.9713 97.9766 70.6797ZM95.4688 61.6562C95.4688 62.0677 95.5078 62.4792 95.5859 62.8906C95.6693 63.3021 95.7839 63.7187 95.9297 64.1406C96.263 63.8229 96.5807 63.5078 96.8828 63.1953C97.1849 62.8776 97.4479 62.5651 97.6719 62.2578C97.8958 61.9453 98.0729 61.6354 98.2031 61.3281C98.3386 61.0156 98.4063 60.7031 98.4063 60.3906C98.4063 60.0625 98.3151 59.7943 98.1328 59.5859C97.9505 59.3776 97.6797 59.2734 97.3203 59.2734C97.0912 59.2734 96.8646 59.3177 96.6406 59.4062C96.4219 59.4896 96.224 59.625 96.0469 59.8125C95.875 60 95.7344 60.2448 95.625 60.5469C95.5208 60.849 95.4688 61.2187 95.4688 61.6562ZM109.742 60.5547C110.023 60.5547 110.271 60.5807 110.484 60.6328C110.698 60.6849 110.885 60.7448 111.047 60.8125C111.214 60.875 111.357 60.9323 111.477 60.9844C111.602 61.0365 111.711 61.0625 111.805 61.0625C111.872 61.0625 111.93 61.0339 111.977 60.9766C112.023 60.9193 112.065 60.849 112.102 60.7656C112.138 60.6823 112.169 60.5911 112.195 60.4922C112.221 60.3932 112.247 60.3021 112.273 60.2187C112.305 60.099 112.339 59.9974 112.375 59.9141C112.417 59.8255 112.474 59.7812 112.547 59.7812C112.63 59.7812 112.672 59.8568 112.672 60.0078C112.672 60.0911 112.661 60.1849 112.641 60.2891C112.625 60.3932 112.602 60.5182 112.57 60.6641C112.544 60.8047 112.513 60.9714 112.477 61.1641C112.445 61.3516 112.414 61.5703 112.383 61.8203C112.341 62.1276 112.312 62.401 112.297 62.6406C112.286 62.875 112.276 63.0729 112.266 63.2344C112.255 63.3906 112.24 63.5104 112.219 63.5937C112.203 63.6771 112.172 63.7187 112.125 63.7187C112.089 63.7187 112.06 63.7005 112.039 63.6641C112.018 63.6224 112 63.5729 111.984 63.5156C111.969 63.4583 111.956 63.401 111.945 63.3437C111.935 63.2865 111.927 63.237 111.922 63.1953C111.896 63.0599 111.862 62.9115 111.82 62.75C111.784 62.5833 111.732 62.4167 111.664 62.25C111.596 62.0781 111.513 61.9115 111.414 61.75C111.315 61.5885 111.19 61.4453 111.039 61.3203C110.893 61.1953 110.719 61.0964 110.516 61.0234C110.312 60.9453 110.075 60.9062 109.805 60.9062C109.315 60.9062 108.935 61.0521 108.664 61.3437C108.393 61.6354 108.258 62.0651 108.258 62.6328C108.258 62.9193 108.325 63.2109 108.461 63.5078C108.602 63.7995 108.784 64.1016 109.008 64.4141C109.237 64.7266 109.495 65.0469 109.781 65.375C110.068 65.7031 110.362 66.0417 110.664 66.3906C110.966 66.7396 111.26 67.099 111.547 67.4687C111.833 67.8385 112.089 68.2214 112.312 68.6172C112.542 69.013 112.724 69.4245 112.859 69.8515C113 70.2734 113.07 70.7109 113.07 71.164C113.07 71.789 112.969 72.3333 112.766 72.7969C112.562 73.2552 112.289 73.6354 111.945 73.9375C111.602 74.2448 111.203 74.4713 110.75 74.6172C110.297 74.7682 109.823 74.8437 109.328 74.8437C108.943 74.8437 108.604 74.7969 108.312 74.7031C108.026 74.6146 107.766 74.5156 107.531 74.4062C107.302 74.3021 107.091 74.2031 106.898 74.1093C106.711 74.0208 106.523 73.9765 106.336 73.9765C106.19 73.9765 106.055 74.0208 105.93 74.1093C105.81 74.1979 105.698 74.2942 105.594 74.3984C105.495 74.5078 105.406 74.6067 105.328 74.6953C105.255 74.7838 105.195 74.8281 105.148 74.8281C105.107 74.8281 105.081 74.8125 105.07 74.7812C105.06 74.7552 105.055 74.7213 105.055 74.6797C105.055 74.638 105.062 74.5677 105.078 74.4687C105.094 74.375 105.109 74.2604 105.125 74.125C105.146 73.9896 105.164 73.8359 105.18 73.664C105.195 73.4922 105.203 73.3073 105.203 73.1093C105.203 72.7552 105.169 72.3932 105.102 72.0234C105.034 71.6484 104.958 71.2969 104.875 70.9687C104.792 70.6406 104.716 70.3515 104.648 70.1015C104.581 69.8515 104.547 69.6719 104.547 69.5625C104.547 69.5156 104.557 69.4713 104.578 69.4297C104.594 69.388 104.63 69.3672 104.687 69.3672C104.766 69.3672 104.839 69.4245 104.906 69.539C104.974 69.6484 105.044 69.7942 105.117 69.9765C105.164 70.1015 105.224 70.2552 105.297 70.4375C105.375 70.6198 105.461 70.8177 105.555 71.0312C105.648 71.2396 105.75 71.4583 105.859 71.6875C105.974 71.9166 106.096 72.1406 106.227 72.3593C106.45 72.7448 106.685 73.0651 106.93 73.3203C107.174 73.5755 107.424 73.7786 107.68 73.9297C107.94 74.0859 108.203 74.1953 108.469 74.2578C108.734 74.3255 109 74.3593 109.266 74.3593C109.583 74.3593 109.857 74.2995 110.086 74.1797C110.32 74.0599 110.513 73.9036 110.664 73.7109C110.815 73.5182 110.924 73.3021 110.992 73.0625C111.065 72.8229 111.102 72.5833 111.102 72.3437C111.102 71.8698 111.036 71.4271 110.906 71.0156C110.781 70.5989 110.615 70.2031 110.406 69.8281C110.203 69.4479 109.969 69.0833 109.703 68.7344C109.437 68.3854 109.164 68.0443 108.883 67.7109C108.607 67.3776 108.336 67.0469 108.07 66.7187C107.805 66.3906 107.568 66.0573 107.359 65.7187C107.156 65.375 106.99 65.0234 106.859 64.6641C106.734 64.2995 106.672 63.9167 106.672 63.5156C106.672 63.125 106.721 62.7812 106.82 62.4844C106.919 62.1875 107.049 61.9297 107.211 61.7109C107.378 61.4922 107.565 61.3099 107.773 61.1641C107.987 61.013 108.206 60.8932 108.43 60.8047C108.659 60.7161 108.885 60.6536 109.109 60.6172C109.339 60.5755 109.549 60.5547 109.742 60.5547ZM115.656 62.8906C115.698 62.8906 115.74 62.9583 115.781 63.0937C115.823 63.224 115.865 63.3958 115.906 63.6094C115.948 63.8229 115.99 64.0703 116.031 64.3516C116.073 64.6276 116.115 64.9089 116.156 65.1953L116.437 67.1641C116.464 66.9922 116.508 66.7943 116.57 66.5703C116.638 66.3464 116.727 66.1146 116.836 65.875C116.945 65.6354 117.078 65.401 117.234 65.1719C117.391 64.9427 117.57 64.737 117.773 64.5547C117.982 64.3724 118.214 64.2266 118.469 64.1172C118.729 64.0026 119.018 63.9453 119.336 63.9453C119.727 63.9453 120.065 64.0208 120.352 64.1719C120.638 64.3177 120.875 64.5234 121.062 64.7891C121.25 65.0495 121.388 65.362 121.477 65.7266C121.565 66.0911 121.609 66.4896 121.609 66.9219C121.609 67.3125 121.586 67.7057 121.539 68.1016C121.497 68.4922 121.45 68.8776 121.398 69.2578C121.352 69.638 121.305 70.0052 121.258 70.3593C121.216 70.7135 121.195 71.0442 121.195 71.3515C121.195 71.5338 121.211 71.6927 121.242 71.8281C121.273 71.9635 121.32 72.0885 121.383 72.2031C121.456 72.3125 121.544 72.4088 121.648 72.4922C121.758 72.5703 121.859 72.6458 121.953 72.7187C122.052 72.7864 122.135 72.8567 122.203 72.9297C122.276 72.9974 122.312 73.0703 122.312 73.1484C122.312 73.1953 122.299 73.2343 122.273 73.2656C122.247 73.3021 122.203 73.3203 122.141 73.3203C122.047 73.3203 121.943 73.2838 121.828 73.2109C121.719 73.1432 121.581 73.0573 121.414 72.9531C121.253 72.8437 121.057 72.7291 120.828 72.6093C120.599 72.4843 120.32 72.3698 119.992 72.2656C119.747 72.1823 119.5 72.1172 119.25 72.0703C119.005 72.0234 118.719 71.9922 118.391 71.9765C118.208 71.9609 118.117 71.9088 118.117 71.8203C118.117 71.7213 118.177 71.6719 118.297 71.6719C118.37 71.6719 118.471 71.6719 118.602 71.6719C118.732 71.6719 118.865 71.6666 119 71.6562C119.208 71.6406 119.38 71.5781 119.516 71.4687C119.651 71.3541 119.753 71.1458 119.82 70.8437C119.841 70.7239 119.862 70.5729 119.883 70.3906C119.904 70.2031 119.922 70.0052 119.937 69.7969C119.953 69.5833 119.966 69.3672 119.977 69.1484C119.987 68.9297 119.992 68.7214 119.992 68.5234C119.992 68.3464 119.99 68.1432 119.984 67.9141C119.979 67.6797 119.961 67.4375 119.93 67.1875C119.904 66.9375 119.859 66.6927 119.797 66.4531C119.74 66.2135 119.654 66 119.539 65.8125C119.424 65.625 119.279 65.474 119.102 65.3594C118.924 65.2396 118.708 65.1797 118.453 65.1797C118.234 65.1797 118.034 65.2344 117.852 65.3437C117.674 65.4531 117.516 65.6068 117.375 65.8047C117.234 65.9974 117.115 66.2266 117.016 66.4922C116.917 66.7578 116.841 67.0495 116.789 67.3672C116.732 67.6901 116.693 68.0234 116.672 68.3672C116.656 68.7057 116.648 69.0442 116.648 69.3828C116.648 69.6692 116.659 69.9453 116.68 70.2109C116.7 70.4713 116.729 70.7135 116.766 70.9375C116.802 71.1562 116.846 71.3515 116.898 71.5234C116.95 71.6953 117.01 71.8307 117.078 71.9297C117.177 72.0651 117.284 72.1666 117.398 72.2343C117.513 72.3021 117.609 72.3489 117.687 72.375C117.792 72.4062 117.865 72.4349 117.906 72.4609C117.953 72.4817 117.977 72.513 117.977 72.5547C117.977 72.5859 117.95 72.6146 117.898 72.6406C117.852 72.6666 117.771 72.6797 117.656 72.6797C117.547 72.6797 117.427 72.6719 117.297 72.6562C117.167 72.6354 117.031 72.6146 116.891 72.5937C116.75 72.5729 116.604 72.5547 116.453 72.539C116.302 72.5182 116.154 72.5078 116.008 72.5078C115.862 72.5078 115.714 72.513 115.562 72.5234C115.411 72.5338 115.266 72.5442 115.125 72.5547C114.99 72.5651 114.865 72.5755 114.75 72.5859C114.635 72.5963 114.544 72.6015 114.477 72.6015C114.273 72.6015 114.172 72.5364 114.172 72.4062C114.172 72.3593 114.187 72.3203 114.219 72.289C114.255 72.2526 114.318 72.2291 114.406 72.2187C114.479 72.2135 114.544 72.2083 114.602 72.2031C114.659 72.1979 114.716 72.1953 114.773 72.1953C114.836 72.1901 114.898 72.1849 114.961 72.1797C115.029 72.1745 115.107 72.1666 115.195 72.1562C115.362 72.1302 115.474 72.0703 115.531 71.9765C115.594 71.8776 115.625 71.7448 115.625 71.5781C115.625 71.2916 115.599 70.9427 115.547 70.5312C115.5 70.1198 115.435 69.6666 115.352 69.1719C115.268 68.6771 115.167 68.1536 115.047 67.6016C114.932 67.0443 114.81 66.4766 114.68 65.8984C114.617 65.6016 114.544 65.3802 114.461 65.2344C114.383 65.0885 114.268 65.0156 114.117 65.0156C114.039 65.0156 113.958 65.0312 113.875 65.0625C113.792 65.0885 113.708 65.1198 113.625 65.1562C113.547 65.1875 113.471 65.2187 113.398 65.25C113.325 65.276 113.258 65.2891 113.195 65.2891C113.096 65.2891 113.047 65.2474 113.047 65.1641C113.047 65.0964 113.073 65.0495 113.125 65.0234C113.182 64.9922 113.242 64.9635 113.305 64.9375C113.45 64.8802 113.607 64.8073 113.773 64.7187C113.945 64.6302 114.13 64.5104 114.328 64.3594C114.521 64.2083 114.693 64.0469 114.844 63.875C114.995 63.7031 115.125 63.5443 115.234 63.3984C115.344 63.2526 115.432 63.1328 115.5 63.0391C115.568 62.9401 115.62 62.8906 115.656 62.8906ZM124.742 67.3203C124.549 67.3203 124.367 67.2839 124.195 67.2109C124.029 67.138 123.883 67.0286 123.758 66.8828C123.633 66.737 123.534 66.5547 123.461 66.3359C123.388 66.1172 123.352 65.8594 123.352 65.5625C123.352 65.2396 123.396 64.9245 123.484 64.6172C123.578 64.3047 123.721 64.0286 123.914 63.7891C124.107 63.5443 124.352 63.349 124.648 63.2031C124.95 63.0573 125.312 62.9844 125.734 62.9844C126.083 62.9844 126.391 63.0312 126.656 63.125C126.927 63.2135 127.164 63.3359 127.367 63.4922C127.57 63.6432 127.742 63.8203 127.883 64.0234C128.029 64.2266 128.151 64.4401 128.25 64.6641C128.349 64.8828 128.43 65.1068 128.492 65.3359C128.56 65.5599 128.617 65.7734 128.664 65.9766C128.69 66.0911 128.721 66.2552 128.758 66.4687C128.799 66.6771 128.844 66.9193 128.891 67.1953C128.937 67.4714 128.987 67.7682 129.039 68.0859C129.091 68.3984 129.143 68.7161 129.195 69.039C129.247 69.362 129.297 69.6771 129.344 69.9843C129.396 70.2864 129.443 70.5651 129.484 70.8203C129.526 71.0703 129.56 71.2864 129.586 71.4687C129.617 71.6458 129.641 71.7682 129.656 71.8359C129.687 71.9974 129.721 72.1614 129.758 72.3281C129.799 72.4948 129.849 72.6484 129.906 72.789C129.969 72.9245 130.044 73.0364 130.133 73.125C130.221 73.2135 130.333 73.2578 130.469 73.2578C130.547 73.2578 130.615 73.2396 130.672 73.2031C130.729 73.1666 130.773 73.1172 130.805 73.0547C130.841 72.9922 130.867 72.9219 130.883 72.8437C130.898 72.7656 130.906 72.6849 130.906 72.6015C130.906 72.5026 130.904 72.4036 130.898 72.3047C130.893 72.2005 130.891 72.112 130.891 72.039C130.891 71.9609 130.901 71.8932 130.922 71.8359C130.943 71.7786 130.984 71.75 131.047 71.75C131.104 71.75 131.148 71.7838 131.18 71.8515C131.216 71.914 131.242 71.9896 131.258 72.0781C131.279 72.1614 131.292 72.2474 131.297 72.3359C131.302 72.4192 131.305 72.4817 131.305 72.5234C131.305 72.7057 131.289 72.9114 131.258 73.1406C131.227 73.3698 131.161 73.5911 131.062 73.8047C130.969 74.0234 130.812 74.2031 130.594 74.3437C130.375 74.4843 130.122 74.5547 129.836 74.5547C129.586 74.5547 129.37 74.5182 129.187 74.4453C129.01 74.3724 128.857 74.2812 128.727 74.1719C128.602 74.0625 128.495 73.9453 128.406 73.8203C128.323 73.6953 128.255 73.5781 128.203 73.4687C128.057 73.1875 127.945 72.8802 127.867 72.5469C127.794 72.2083 127.734 71.8854 127.687 71.5781C127.609 71.7083 127.49 71.8698 127.328 72.0625C127.172 72.2552 126.977 72.4401 126.742 72.6172C126.508 72.7942 126.237 72.9453 125.93 73.0703C125.622 73.1953 125.281 73.2578 124.906 73.2578C124.49 73.2578 124.133 73.1979 123.836 73.0781C123.544 72.9635 123.305 72.8073 123.117 72.6093C122.93 72.4062 122.792 72.1719 122.703 71.9062C122.615 71.6354 122.57 71.3489 122.57 71.0469C122.57 70.7239 122.63 70.3984 122.75 70.0703C122.87 69.7422 123.065 69.4453 123.336 69.1797C123.612 68.9141 123.969 68.6979 124.406 68.5312C124.849 68.3646 125.388 68.2812 126.023 68.2812C126.169 68.2812 126.31 68.2891 126.445 68.3047C126.586 68.3151 126.711 68.3281 126.82 68.3437C126.935 68.3594 127.031 68.375 127.109 68.3906C127.193 68.4062 127.253 68.4167 127.289 68.4219C127.258 67.974 127.219 67.526 127.172 67.0781C127.151 66.8906 127.128 66.6927 127.102 66.4844C127.081 66.276 127.057 66.0677 127.031 65.8594C127.005 65.6458 126.977 65.4375 126.945 65.2344C126.914 65.0312 126.88 64.8411 126.844 64.6641C126.76 64.263 126.596 63.9453 126.352 63.7109C126.112 63.4714 125.805 63.3516 125.43 63.3516C125.227 63.3516 125.047 63.388 124.891 63.4609C124.74 63.5339 124.609 63.6276 124.5 63.7422C124.396 63.8568 124.318 63.987 124.266 64.1328C124.214 64.2734 124.187 64.4141 124.187 64.5547C124.187 64.7057 124.224 64.8333 124.297 64.9375C124.37 65.0365 124.458 65.125 124.562 65.2031C124.672 65.2812 124.789 65.3568 124.914 65.4297C125.039 65.4974 125.154 65.5781 125.258 65.6719C125.367 65.7604 125.458 65.8698 125.531 66C125.604 66.125 125.641 66.2839 125.641 66.4766C125.641 66.7318 125.552 66.9375 125.375 67.0937C125.203 67.2448 124.992 67.3203 124.742 67.3203ZM127.352 68.9062C127.315 68.8906 127.25 68.8724 127.156 68.8516C127.068 68.8255 126.961 68.8021 126.836 68.7812C126.711 68.7552 126.575 68.7344 126.43 68.7187C126.289 68.7031 126.148 68.6953 126.008 68.6953C125.732 68.6953 125.474 68.7344 125.234 68.8125C125 68.8906 124.797 69.0078 124.625 69.164C124.453 69.3151 124.318 69.5078 124.219 69.7422C124.12 69.9713 124.07 70.237 124.07 70.539C124.07 70.8151 124.115 71.0442 124.203 71.2265C124.297 71.4036 124.414 71.5442 124.555 71.6484C124.7 71.7526 124.859 71.8255 125.031 71.8672C125.208 71.9088 125.38 71.9297 125.547 71.9297C125.812 71.9297 126.065 71.888 126.305 71.8047C126.544 71.7213 126.755 71.625 126.937 71.5156C127.12 71.4062 127.268 71.2995 127.383 71.1953C127.497 71.0911 127.568 71.0208 127.594 70.9843C127.557 70.6354 127.523 70.3177 127.492 70.0312C127.477 69.9062 127.461 69.7838 127.445 69.664C127.435 69.5442 127.422 69.4323 127.406 69.3281C127.396 69.2239 127.385 69.1354 127.375 69.0625C127.365 68.9896 127.357 68.9375 127.352 68.9062ZM133.422 64.7969C133.422 64.8698 133.419 64.987 133.414 65.1484C133.409 65.3099 133.406 65.5 133.406 65.7187C133.406 65.8437 133.406 65.9427 133.406 66.0156C133.411 66.0885 133.414 66.1589 133.414 66.2266C133.414 66.2943 133.414 66.3724 133.414 66.4609C133.419 66.5495 133.422 66.6719 133.422 66.8281C133.589 66.599 133.781 66.3932 134 66.2109C134.094 66.1328 134.198 66.0573 134.312 65.9844C134.427 65.9115 134.552 65.8464 134.687 65.7891C134.828 65.7318 134.974 65.6849 135.125 65.6484C135.281 65.612 135.445 65.5937 135.617 65.5937C135.992 65.5937 136.325 65.6615 136.617 65.7969C136.909 65.9323 137.154 66.1224 137.352 66.3672C137.555 66.6068 137.708 66.8958 137.812 67.2344C137.917 67.5677 137.969 67.9375 137.969 68.3437C137.969 68.9531 137.888 69.5 137.727 69.9843C137.565 70.4687 137.346 70.8828 137.07 71.2265C136.794 71.5651 136.471 71.8255 136.102 72.0078C135.732 72.1901 135.336 72.2812 134.914 72.2812C134.763 72.2812 134.62 72.2682 134.484 72.2422C134.354 72.2161 134.232 72.1823 134.117 72.1406C134.003 72.0989 133.896 72.0547 133.797 72.0078C133.703 71.9557 133.62 71.9088 133.547 71.8672C133.542 72.0807 133.536 72.2708 133.531 72.4375C133.531 72.5989 133.531 72.7578 133.531 72.914C133.531 73.0703 133.531 73.2317 133.531 73.3984C133.531 73.5651 133.531 73.7578 133.531 73.9765C133.531 74.3307 133.534 74.7213 133.539 75.1484C133.549 75.5755 133.568 75.9922 133.594 76.3984C133.625 76.8099 133.667 77.1849 133.719 77.5234C133.771 77.862 133.844 78.1146 133.937 78.2812C134.026 78.4427 134.135 78.5703 134.266 78.664C134.396 78.7578 134.526 78.8333 134.656 78.8906C134.818 78.9635 134.958 79.0364 135.078 79.1093C135.203 79.1823 135.266 79.2578 135.266 79.3359C135.266 79.3932 135.247 79.4401 135.211 79.4765C135.174 79.513 135.112 79.5312 135.023 79.5312C134.883 79.5312 134.685 79.5078 134.43 79.4609C134.18 79.4192 133.906 79.3724 133.609 79.3203C133.318 79.2682 133.026 79.2187 132.734 79.1719C132.443 79.1302 132.187 79.1093 131.969 79.1093C131.734 79.1093 131.539 79.1172 131.383 79.1328C131.227 79.1536 131.062 79.164 130.891 79.164C130.661 79.164 130.505 79.1484 130.422 79.1172C130.344 79.0911 130.305 79.0573 130.305 79.0156C130.305 78.9687 130.331 78.9375 130.383 78.9219C130.435 78.9062 130.505 78.8906 130.594 78.875C130.682 78.8593 130.781 78.8333 130.891 78.7969C131 78.7656 131.115 78.7109 131.234 78.6328C131.359 78.5442 131.458 78.4323 131.531 78.2969C131.609 78.1666 131.669 78.0208 131.711 77.8593C131.753 77.6979 131.781 77.5286 131.797 77.3515C131.812 77.1797 131.825 77.0104 131.836 76.8437C131.846 76.7135 131.857 76.513 131.867 76.2422C131.878 75.9765 131.888 75.664 131.898 75.3047C131.909 74.9505 131.919 74.5625 131.93 74.1406C131.945 73.7187 131.958 73.2838 131.969 72.8359C131.979 72.388 131.99 71.9427 132 71.5C132.01 71.0521 132.018 70.6276 132.023 70.2265C132.029 69.8255 132.034 69.4583 132.039 69.125C132.044 68.7865 132.047 68.5052 132.047 68.2812C132.047 67.9479 132.036 67.6745 132.016 67.4609C132 67.2422 131.971 67.0703 131.93 66.9453C131.888 66.8151 131.833 66.7266 131.766 66.6797C131.698 66.6276 131.615 66.6016 131.516 66.6016C131.437 66.6016 131.354 66.6172 131.266 66.6484C131.182 66.6797 131.096 66.7135 131.008 66.75C130.924 66.7812 130.846 66.8125 130.773 66.8437C130.7 66.875 130.641 66.8906 130.594 66.8906C130.505 66.8906 130.461 66.8464 130.461 66.7578C130.461 66.7266 130.477 66.6901 130.508 66.6484C130.539 66.6068 130.62 66.5547 130.75 66.4922C130.833 66.4453 130.932 66.3984 131.047 66.3516C131.161 66.2995 131.284 66.2422 131.414 66.1797C131.549 66.112 131.687 66.0339 131.828 65.9453C131.974 65.8516 132.117 65.7396 132.258 65.6094C132.445 65.4375 132.596 65.2839 132.711 65.1484C132.831 65.013 132.927 64.901 133 64.8125C133.078 64.7187 133.138 64.6484 133.18 64.6016C133.227 64.5495 133.271 64.5234 133.312 64.5234C133.359 64.5234 133.388 64.5521 133.398 64.6094C133.414 64.6615 133.422 64.724 133.422 64.7969ZM134.859 66.3594C134.635 66.3594 134.44 66.4115 134.273 66.5156C134.112 66.6198 133.974 66.7578 133.859 66.9297C133.745 67.1016 133.651 67.2969 133.578 67.5156C133.51 67.7344 133.456 67.9609 133.414 68.1953C133.372 68.4245 133.344 68.651 133.328 68.875C133.318 69.0937 133.312 69.2916 133.312 69.4687C133.312 69.7448 133.331 70.0234 133.367 70.3047C133.409 70.5807 133.479 70.8307 133.578 71.0547C133.682 71.2734 133.823 71.4531 134 71.5937C134.177 71.7343 134.401 71.8047 134.672 71.8047C134.885 71.8047 135.089 71.75 135.281 71.6406C135.479 71.5312 135.651 71.3567 135.797 71.1172C135.948 70.8724 136.068 70.5547 136.156 70.164C136.245 69.7682 136.289 69.289 136.289 68.7266C136.289 68.3828 136.263 68.0677 136.211 67.7812C136.159 67.4896 136.075 67.2396 135.961 67.0312C135.846 66.8177 135.698 66.6536 135.516 66.5391C135.333 66.4193 135.115 66.3594 134.859 66.3594Z" fill="white"/>
<g clip-path="url(#clip4_0_1)">
<path data-slot="2" d="M188 390H12V501H188V390Z" fill="#747373"/>
</g>
</g>
<defs>
<clipPath id="clip0_0_1">
<rect width="200" height="634" fill="white"/>
</clipPath>
<clipPath id="clip1_0_1">
<rect width="78" height="21" fill="white" transform="translate(61 562)"/>
</clipPath>
<clipPath id="clip2_0_1">
<rect width="176" height="111" fill="white" transform="translate(12 261)"/>
</clipPath>
<clipPath id="clip3_0_1">
<rect width="176" height="111" fill="white" transform="translate(12 132)"/>
</clipPath>
<clipPath id="clip4_0_1">
<rect width="176" height="111" fill="white" transform="translate(12 390)"/>
</clipPath>
</defs>
</svg>
